<?xml version="1.0" encoding="UTF-8"?>
<svg xmlns="http://www.w3.org/2000/svg" version="1.1" viewBox="0 0 80 26">
  <defs>
    <style>
      .cls-1 {
        fill: #797878;
      }

      .cls-2 {
        fill: #6f6e6f;
      }

      .cls-3 {
        fill: #fff;
      }

      .cls-4 {
        fill: #a2a2a2;
      }

      .cls-5 {
        fill: #595757;
      }
    </style>
  </defs>
  <!-- Generator: Adobe Illustrator 28.7.1, SVG Export Plug-In . SVG Version: 1.2.0 Build 142)  -->
  <g>
    <g id="_レイヤー_1" data-name="レイヤー_1">
      <g>
        <g>
          <g>
            <path class="cls-5" d="M39.5290459,21.4541016c.1083984.7001953.5722656,1.1054688,1.3164062,1.1054688.7792969,0,1.1367188-.359375,1.1367188-.9287109,0-.6552734-.3632812-.9287109-1.4052734-1.2353516-1.5058594-.4306641-2.0400391-.9580078-2.0400391-1.9257812,0-1.1845703.9316406-1.8691406,2.2011719-1.8691406,1.5556641,0,2.2148438.84375,2.2910156,1.8789062h-1.1679688c-.0908203-.5615234-.3837891-.9580078-1.1386719-.9580078-.6650391,0-.9951172.3154297-.9951172.8330078,0,.5458984.3417969.7246094,1.3369141,1.0175781,1.6953125.5019531,2.1289062,1.1699219,2.1289062,2.1210938,0,1.1035156-.7431641,1.9970703-2.4023438,1.9970703-1.4414062,0-2.3496094-.7421875-2.4365234-2.0361328h1.1748047Z"/>
            <path class="cls-5" d="M43.3464287,18.3808594h.7412109v-1.3974609h1.1455078v1.3974609h.9365234v.9072266h-.9365234v2.7714844c0,.3701172.0898438.5244141.5068359.5244141.1259766,0,.2011719-.0058594.3310547-.0253906v.8125c-.2363281.0791016-.578125.0917969-.7578125.0917969-.890625,0-1.2255859-.3535156-1.2255859-1.2539062v-2.9208984h-.7412109v-.9072266Z"/>
            <path class="cls-5" d="M46.6823662,16.2919922h1.1523438v1.1650391h-1.1523438v-1.1650391ZM46.6823662,18.3808594h1.1523438v5.0273438h-1.1523438v-5.0273438Z"/>
            <path class="cls-5" d="M52.7038506,21.7041016c-.1660156,1.0009766-.796875,1.7949219-2.1367188,1.7949219-1.4960938,0-2.2158203-.9472656-2.2158203-2.6035156,0-1.5439453.8330078-2.6123047,2.2871094-2.6123047,1.5410156,0,2.0195312,1.09375,2.0625,1.8359375h-1.1513672c-.0654297-.4912109-.3095703-.9394531-.9355469-.9394531-.7685547,0-1.0878906.6914062-1.0878906,1.6777344,0,1.2138672.3916016,1.7519531,1.0673828,1.7519531.6123047,0,.8330078-.390625.9658203-.9052734h1.1445312Z"/>
            <path class="cls-5" d="M54.2936943,20.5615234c.3945312-.4765625,1.171875-1.4228516,1.7617188-2.1806641h1.3144531c-.5117188.6044922-1.1435547,1.2988281-1.6953125,1.9414062.578125.9277344,1.2666016,2.0957031,1.8583984,3.0859375h-1.3291016c-.3583984-.640625-.9082031-1.6328125-1.2910156-2.3173828-.0605469.0673828-.5546875.5908203-.6191406.6552734v1.6621094h-1.1523438v-7.1162109h1.1523438v4.2695312Z"/>
            <path class="cls-5" d="M58.3737725,21.1455078c-.0029297.7480469.2988281,1.4365234,1.0917969,1.4365234.6689453,0,.8769531-.4375.9570312-.6728516h1.1318359c-.2167969.7636719-.7714844,1.5898438-2.1279297,1.5898438-1.5947266,0-2.2177734-1.1425781-2.2177734-2.6064453,0-1.2412109.6191406-2.609375,2.2714844-2.609375,1.6484375,0,2.1416016,1.2128906,2.1416016,2.4619141,0,.0546875-.0068359.3388672-.0136719.4003906h-3.234375ZM60.4948662,20.3710938c-.0224609-.6630859-.2900391-1.2050781-1.0341797-1.2050781-.8330078,0-1.0361328.7050781-1.0673828,1.2050781h2.1015625Z"/>
            <path class="cls-5" d="M62.1257256,20.0849609c0-.8183594-.0029297-1.390625-.0195312-1.7041016h1.125c.0234375.2236328.0302734.5439453.0302734.9277344.1914062-.4892578.6699219-1.0058594,1.5566406-1.0117188v1.1738281c-1.0673828.0029297-1.5400391.4589844-1.5400391,1.5898438v2.3476562h-1.1523438v-3.3232422Z"/>
          </g>
          <g>
            <path class="cls-5" d="M42.2883232,10.4072266c-.3125,1.8515625-1.5449219,3.5917969-4.3330078,3.5917969-3.4394531,0-4.6992188-2.5371094-4.6992188-5.7822266,0-3.0839844,1.5537109-5.7158203,4.7871094-5.7158203,2.8671875,0,4.0400391,1.8027344,4.1845703,3.5878906h-1.9423828c-.2451172-1.0537109-.7285156-1.9833984-2.3085938-1.9833984-1.9794922,0-2.6875,1.9746094-2.6875,4.1044922,0,2.2050781.6318359,4.1962891,2.7099609,4.1962891,1.5517578,0,2.0830078-1.0175781,2.3408203-1.9990234h1.9482422Z"/>
            <path class="cls-5" d="M44.7463311,10.9248047l-.8916016,2.9121094h-1.9482422c.3642578-1.0859375,3.0859375-9.953125,3.4941406-11.1855469h2.5410156l3.6640625,11.1855469h-2.0820312l-.9423828-2.9121094h-3.8349609ZM48.1721123,9.2734375c-.7802734-2.4765625-1.3046875-4.0996094-1.5458984-5.0917969h-.0205078c-.2851562,1.2705078-.8173828,3.0068359-1.4667969,5.0917969h3.0332031Z"/>
            <path class="cls-5" d="M54.1203545,9.0556641v4.78125h-1.9443359V2.6513672h4.3515625c2.0644531,0,3.5322266,1.0253906,3.5322266,2.9765625,0,1.5566406-.8583984,2.2851562-1.7734375,2.6152344,1.1298828.4101562,1.5625,1.3027344,1.5625,2.7363281v.2607422c0,1.0068359.0458984,1.9580078.1513672,2.5966797h-1.9140625c-.1582031-.4628906-.2021484-1.3115234-.2021484-2.6162109v-.2705078c0-1.3847656-.5029297-1.8945312-2.0947266-1.8945312h-1.6689453ZM54.1203545,7.4716797h1.8261719c1.2119141,0,2.1425781-.3330078,2.1425781-1.6835938,0-1.0898438-.7666016-1.5527344-1.8242188-1.5527344h-2.1445312v3.2363281Z"/>
            <path class="cls-5" d="M60.9377373,2.6513672h3.8066406c3.2011719,0,5.171875,1.9873047,5.171875,5.3457031,0,3.6435547-1.9404297,5.8398438-5.2949219,5.8398438h-3.6835938V2.6513672ZM62.9230889,12.2646484h1.6621094c2.1757812,0,3.2861328-1.5722656,3.2861328-4.2304688,0-2.3007812-1.1337891-3.7871094-3.2695312-3.7871094h-1.6787109v8.0175781Z"/>
          </g>
        </g>
        <g id="_レイヤー_1-2" data-name="_レイヤー_1">
          <g>
            <rect class="cls-3" x="10.5717232" y=".4879725" width="19.2240299" height="24.9814798" rx="2.7323493" ry="2.7323493"/>
            <path class="cls-2" d="M27.0637276,25.9574138h-13.7599023c-1.775379,0-3.2200782-1.4446992-3.2200782-3.2200782V3.2205547c0-1.7758555,1.4446992-3.2205547,3.2200782-3.2205547h13.7599023c1.775379,0,3.2200782,1.4446992,3.2200782,3.2205547v19.5167808c0,1.775379-1.4446992,3.2200782-3.2200782,3.2200782ZM13.3038253.975839c-1.2379052,0-2.2442392,1.0068105-2.2442392,2.2447157v19.5167808c0,1.2374287,1.006334,2.2442392,2.2442392,2.2442392h13.7599023c1.2379052,0,2.2442392-1.0068105,2.2442392-2.2442392V3.2205547c0-1.2379052-1.006334-2.2447157-2.2442392-2.2447157h-13.7599023Z"/>
          </g>
          <rect class="cls-5" x="12.1330655" y="2.3420668" width="16.1989289" height="13.7593304"/>
          <polyline class="cls-4" points="12.1330655 17.1748205 12.1330655 23.7129409 14.0847436 23.7129409 15.0605827 24.2984447 25.599644 24.2984447 26.5754831 23.8105252 28.3319945 23.8105252 28.3319945 17.1748205"/>
          <rect class="cls-3" x="13.1089046" y="17.5651557" width="14.0520823" height=".5855038"/>
          <ellipse class="cls-3" cx="13.8895761" cy="3.5130734" rx="1.6589266" ry="1.5613424"/>
          <circle class="cls-1" cx="13.8895761" cy="3.5130735" r="1.171007"/>
          <circle class="cls-5" cx="11.9378978" cy="2.2444827" r=".7806713"/>
          <path class="cls-3" d="M27.7460525,18.9316586h-14.831991c-.0543192,0-.0972027-.0438365-.0972027-.0976792s.0428836-.0976792.0972027-.0976792h14.831991c.0543192,0,.0972027.0438365.0972027.0976792s-.0428836.0976792-.0972027.0976792Z"/>
          <path class="cls-3" d="M27.7460525,19.61446h-14.831991c-.0543192,0-.0972027-.0438365-.0972027-.0976792s.0428836-.0976792.0972027-.0976792h14.831991c.0543192,0,.0972027.0438365.0972027.0976792s-.0428836.0976792-.0972027.0976792Z"/>
          <path class="cls-3" d="M24.3306159,20.2977379h-11.4165544c-.0543192,0-.0972027-.0438365-.0972027-.0976792s.0428836-.0976792.0972027-.0976792h11.4165544c.0543192,0,.0972027.0438365.0972027.0976792s-.0428836.0976792-.0972027.0976792Z"/>
          <path class="cls-3" d="M24.3306159,20.9805394h-11.4165544c-.0543192,0-.0972027-.0438365-.0972027-.0976792s.0428836-.0976792.0972027-.0976792h11.4165544c.0543192,0,.0972027.0438365.0972027.0976792s-.0428836.0976792-.0972027.0976792Z"/>
          <path class="cls-3" d="M24.3306159,21.8591757h-11.4165544c-.0543192,0-.0972027-.0438365-.0972027-.0976792s.0428836-.0976792.0972027-.0976792h11.4165544c.0543192,0,.0972027.0438365.0972027.0976792s-.0428836.0976792-.0972027.0976792Z"/>
          <rect class="cls-5" x="13.3040724" y="22.3467667" width=".9758393" height=".975839"/>
          <rect class="cls-5" x="15.0605827" y="22.3467667" width=".975839" height=".975839"/>
          <rect class="cls-5" x="16.7195093" y="22.3467667" width=".975839" height=".975839"/>
          <rect class="cls-5" x="18.4760198" y="22.3467667" width=".975839" height=".975839"/>
          <rect class="cls-5" x="20.134946" y="22.3467667" width=".975839" height=".975839"/>
          <polygon class="cls-3" points="20.3301136 3.5130735 22.1842074 7.0260939 26.2827321 7.5140134 23.2576307 10.3439472 23.9407178 14.1497191 20.3301136 12.3932086 16.621925 14.1497191 17.3050126 10.3439472 14.3774955 7.5140134 18.4760198 7.0260939 20.3301136 3.5130735"/>
        </g>
      </g>
    </g>
  </g>
</svg>