<?xml version="1.0" encoding="UTF-8"?>
<svg xmlns="http://www.w3.org/2000/svg" version="1.1" viewBox="0 0 80 26">
  <defs>
    <style>
      .cls-1 {
        fill: #6f6e6f;
      }

      .cls-2 {
        fill: #fff;
      }

      .cls-3 {
        fill: #a2a2a2;
      }

      .cls-4 {
        fill: #595757;
      }
    </style>
  </defs>
  <!-- Generator: Adobe Illustrator 28.7.1, SVG Export Plug-In . SVG Version: 1.2.0 Build 142)  -->
  <g>
    <g id="_レイヤー_1" data-name="レイヤー_1">
      <g>
        <g>
          <path class="cls-4" d="M28.1839945,7.878418h3.6533203c1.9169922,0,3.5078125.9873047,3.5078125,2.9824219,0,2.0869141-1.5136719,3.1455078-3.6816406,3.1455078h-1.6708984v4.1035156h-1.8085938V7.878418ZM29.9925882,12.5639648h1.5664062c1.1865234,0,1.9462891-.4287109,1.9462891-1.6669922,0-1.0976562-.7763672-1.5693359-1.8984375-1.5693359h-1.6142578v3.2363281Z"/>
          <path class="cls-4" d="M44.4291116,12.940918c0,2.9423828-1.4033203,5.3183594-4.5488281,5.3183594-3.0429687,0-4.4169922-2.3691406-4.4169922-5.3300781,0-2.5751953,1.3828125-5.1884766,4.5527344-5.1884766,3,0,4.4130859,2.3798828,4.4130859,5.2001953ZM37.3334085,12.9262695c0,2.1640625.8681641,3.875,2.6279297,3.875,1.8886719,0,2.6162109-1.6259766,2.6162109-3.8564453,0-2.0390625-.7304688-3.7470703-2.6386719-3.7470703-1.8251953,0-2.6054687,1.6582031-2.6054687,3.7285156Z"/>
          <path class="cls-4" d="M46.2709085,15.1342773c.1650391,1.0654297.8701172,1.6835938,2.0029297,1.6835938,1.1875,0,1.7314453-.5478516,1.7314453-1.4140625,0-.9990234-.5527344-1.4140625-2.1396484-1.8818359-2.2919922-.6552734-3.1054688-1.4580078-3.1054688-2.9326172,0-1.8037109,1.4179688-2.8447266,3.3515625-2.8447266,2.3681641,0,3.3720703,1.2841797,3.4873047,2.859375h-1.7783203c-.1376953-.8535156-.5839844-1.4580078-1.7324219-1.4580078-1.0136719,0-1.515625.4804688-1.515625,1.2695312,0,.8300781.5195312,1.1025391,2.0351562,1.5488281,2.5810547.7646484,3.2412109,1.78125,3.2412109,3.2294922,0,1.6796875-1.1318359,3.0410156-3.6572266,3.0410156-2.1953125,0-3.5771484-1.1298828-3.7099609-3.1005859h1.7890625Z"/>
          <path class="cls-4" d="M54.8129007,9.3881836h-2.8486328v-1.5097656h7.5214844v1.5097656h-2.8525391v8.7216797h-1.8203125v-8.7216797Z"/>
          <path class="cls-4" d="M66.2836038,13.5239258h-4.5v3.0908203h4.9619141l-.2236328,1.4951172h-6.5009766V7.878418h6.4599609v1.5058594h-4.6972656v2.6298828h4.5v1.5097656Z"/>
          <path class="cls-4" d="M68.9632913,13.7368164v4.3730469h-1.7773438V7.878418h3.9794922c1.8886719,0,3.2314453.9375,3.2314453,2.7226562,0,1.4238281-.7851562,2.0898438-1.6220703,2.3916016,1.0332031.3759766,1.4296875,1.1914062,1.4296875,2.5039062v.2382812c0,.9199219.0410156,1.7910156.1386719,2.375h-1.7519531c-.1445312-.4228516-.1845703-1.2001953-.1845703-2.3935547v-.2470703c0-1.2666016-.4599609-1.7324219-1.9160156-1.7324219h-1.5273438ZM68.9632913,12.2885742h1.6708984c1.1083984,0,1.9599609-.3056641,1.9599609-1.5410156,0-.9970703-.7011719-1.4199219-1.6679688-1.4199219h-1.9628906v2.9609375Z"/>
        </g>
        <g>
          <polyline class="cls-2" points="18.6309093 25.5358393 6.2342089 25.5358393 6.2342089 .4645279 24.4715189 .4645279 24.4715189 19.5282071"/>
          <polygon class="cls-3" points="18.8576039 19.992491 23.0599594 19.992491 23.0599594 5.1354176 7.6457117 5.1354176 7.6457117 23.7067593 18.8576039 23.7067593 18.8576039 19.992491"/>
          <polygon class="cls-2" points="15.3574686 8.4086171 17.1031739 11.7514581 21.0217264 12.2900269 18.1895975 14.8993008 18.8581652 18.5764256 15.3574686 16.8400062 11.8474844 18.5764256 12.5160529 14.8993008 9.6839231 12.2900269 13.6024756 11.7514581 15.3574686 8.4086171"/>
          <path class="cls-1" d="M18.8234075,26H5.6031149V.0001215h19.4999089v19.7202622l-6.2796163,6.2796163ZM6.531682,25.0714329h11.9072407l5.735534-5.735534V.9286886H6.531682v24.1427443Z"/>
          <g>
            <polygon class="cls-2" points="18.630903 19.5282074 18.630903 25.5358393 24.6385348 19.5282074 18.630903 19.5282074"/>
            <path class="cls-1" d="M18.6311651,26c-.0598491,0-.1206049-.011335-.1777335-.0353653-.1731995-.0716375-.28655-.2412098-.28655-.4289182v-6.0075752c0-.2566255.2076581-.4642835.4642835-.4642835h6.0075752c.1877084,0,.3572807.1128971.4289182.28655s.0317381.3731498-.1006552.5059965l-6.0075752,6.0075752c-.0888668.0888668-.2076581.1360206-.328263.1360206ZM19.0954486,19.9924248v4.4224821l4.4224821-4.4224821h-4.4224821Z"/>
          </g>
          <circle class="cls-1" cx="15.1433355" cy="3.2782834" r=".9285671"/>
        </g>
      </g>
    </g>
  </g>
</svg>