<?xml version="1.0" encoding="UTF-8"?>
<svg xmlns="http://www.w3.org/2000/svg" version="1.1" viewBox="0 0 80 26">
  <defs>
    <style>
      .cls-1 {
        fill: #6f6e6f;
      }

      .cls-2 {
        fill: #fff;
      }

      .cls-3 {
        fill: #a2a2a2;
      }

      .cls-4 {
        fill: #595757;
      }
    </style>
  </defs>
  <!-- Generator: Adobe Illustrator 28.7.1, SVG Export Plug-In . SVG Version: 1.2.0 Build 142)  -->
  <g>
    <g id="_レイヤー_1" data-name="レイヤー_1">
      <g>
        <g>
          <path class="cls-4" d="M37.1365617,14.7824003c-.2577564,1.5296199-1.2768395,2.9676815-3.5797285,2.9676815-2.8412913,0-3.8822688-2.096883-3.8822688-4.7769521,0-2.548703,1.2838059-4.7232114,3.9549183-4.7232114,2.3675769,0,3.3378953,1.489812,3.4573191,2.9646959h-1.6042598c-.2030205-.8707986-.602095-1.6380965-1.9077953-1.6380965-1.6351109,0-2.2202875,1.6311301-2.2202875,3.3906408,0,1.821213.5214839,3.4662759,2.2391963,3.4662759,1.2808203,0,1.720698-.8409426,1.9326752-1.6510341h1.610231Z"/>
          <path class="cls-4" d="M45.4315401,12.9472545c0,2.6571796-1.2668875,4.8028273-4.1081788,4.8028273-2.7487379,0-3.9897502-2.1386813-3.9897502-4.8137745,0-2.3257786,1.2499691-4.6863891,4.1121596-4.6863891,2.7099251,0,3.9857694,2.1496285,3.9857694,4.6973363ZM39.0234578,12.9333217c0,1.9555648.7832211,3.5001126,2.3725529,3.5001126,1.7067652,0,2.3635961-1.4679176,2.3635961-3.4821991,0-1.8421122-.6598165-3.3846696-2.3835001-3.3846696-1.6480485,0-2.3526489,1.4977735-2.3526489,3.3667561Z"/>
          <path class="cls-4" d="M47.0945165,14.9276992c.1492798.9623568.7862067,1.5206631,1.8092706,1.5206631,1.0728238,0,1.5634566-.4946136,1.5634566-1.2768395,0-.9016497-.4985944-1.2768395-1.93168-1.6988036-2.0710078-.592143-2.8054642-1.3176426-2.8054642-2.649218,0-1.6291397,1.2818155-2.5696022,3.0273934-2.5696022,2.1386813,0,3.0463022,1.1594061,3.1498028,2.583535h-1.6062502c-.1234046-.7722739-.5264599-1.3176426-1.565447-1.3176426-.9145873,0-1.3683977.4339065-1.3683977,1.1464685,0,.7503796.4697336.9961936,1.8381314,1.3992489,2.3317498.6896725,2.9278736,1.6092358,2.9278736,2.9159312,0,1.5176775-1.0220687,2.7477427-3.3030634,2.7477427-1.9824351,0-3.2314091-1.0210735-3.3508329-2.8014834h1.6152069Z"/>
          <path class="cls-4" d="M52.7034545,8.3753132h3.3000778c1.73065,0,3.1677164.8916977,3.1677164,2.6930068,0,1.8849057-1.3664074,2.8412913-3.3249577,2.8412913h-1.5087207v3.7061187h-1.6341157v-9.2404168ZM54.3375702,12.6068966h1.4141769c1.0718286,0,1.7585155-.3881274,1.7585155-1.5057351,0-.9912176-.7016148-1.4171625-1.715722-1.4171625h-1.4569704v2.9228976Z"/>
          <path class="cls-4" d="M59.6051552,8.3753132h1.6301349v7.8899326h4.2365594l-.1910781,1.3504842h-5.6756163v-9.2404168Z"/>
          <path class="cls-4" d="M68.2143673,15.2093404l-.7364468,2.4063896h-1.610231c.3015451-.8966737,2.5496982-8.2233241,2.8870705-9.2404168h2.0988733l3.0273934,9.2404168h-1.720698l-.7782451-2.4063896h-3.1677164ZM71.0447115,13.8459186c-.6458837-2.0461278-1.0777998-3.3876552-1.2778347-4.2067035h-.0169184c-.235862,1.0489391-.6747445,2.4840151-1.2111564,4.2067035h2.5059095Z"/>
          <path class="cls-4" d="M74.6960782,17.61573v-3.5389254c0-.0995198-.0208992-.1970493-.0766303-.2806459l-2.9517583-5.4208455h1.841117c.6916629,1.4121865,1.6779044,3.3468521,2.0789694,4.1619196.6428981-1.3206282,1.4291048-2.8383057,2.0829502-4.1619196h1.7067652l-2.9816143,5.4029319c-.0497599.0786207-.0686687.145299-.0686687.2637276v3.5737573h-1.6311301Z"/>
        </g>
        <g>
          <g>
            <path class="cls-2" d="M2.6901651,12.6530748c-.1318359-.1933594-3.2138672-4.7919922-2.4433594-8.1748047.1513672-.6679688.4462891-1.2041016.8759766-1.59375.4736328-.3828125,1.0488281-.5917969,1.7314453-.6386719.1064453-.0068359.2138672-.0107422.3212891-.0107422,3.3867188,0,7.2158203,3.5390625,7.3769531,3.6904297l.4082031.3808594-3.9697266,3.4121094-3.9873047,3.3964844-.3134766-.4619141Z"/>
            <path class="cls-1" d="M3.1762872,2.7355028c3.2278061,0,7.0355682,3.5552979,7.0355682,3.5552979l-3.54702,3.0484161-3.5601349,3.0331116S.003573,7.7995287.7338434,4.5891863c.1358109-.5970306.3960571-1.0359192.725174-1.333725.345108-.2791138.8189545-.4683838,1.4297943-.5102692.0954285-.006546.1908951-.0096893.2874756-.0096893M3.1762948,1.7355028c-.1195602,0-.2377243.0039368-.3558502.0120392-.7882385.0540314-1.4578476.2997894-1.9902802.7303925l-.021553.0174255-.0205536.0186005C.2803064,2.9734178-.0660071,3.5969988-.2412467,4.3673692c-.8172226,3.5926056,2.3817444,8.3648376,2.5183182,8.5662231l.6264954.9238129.8496552-.723877,3.5601349-3.0331116,3.5502853-3.0512085.8465424-.7275391-.8158722-.7617798c-.1672363-.1561584-4.1371155-3.8243866-7.7180176-3.8243866h0Z"/>
          </g>
          <path class="cls-3" d="M3.5076723,3.8259092c-.5107312.0350132-.906915.193264-1.195467.4266312-.2751705.2490054-.4927671.6159613-.6063162,1.1151395-.6105854,2.6841893,1.9822941,6.5075431,1.9822941,6.5075431l2.976654-2.536,2.9656894-2.5488136s-3.376541-3.1527812-6.1228544-2.9645003Z"/>
          <g>
            <path class="cls-2" d="M19.2780557,9.7204576l-3.9716797-3.4140625.4082031-.3808594c.1611328-.1513672,3.9902344-3.6904297,7.3769531-3.6904297.1074219,0,.2148438.0039062.3212891.0107422.6845703.046875,1.2597656.2558594,1.7099609.6210938.4511719.4072266.7460938.9433594.8974609,1.6123047.7705078,3.3818359-2.3115234,7.9804688-2.4433594,8.1738281l-.3134766.4619141-3.9853516-3.3945312Z"/>
            <path class="cls-1" d="M23.0909829,2.7355028c.0965805-.0000153.1920471.0031433.2874756.0096893.6108398.0418854,1.0846863.2311554,1.4297867.5102692.3291168.2978058.5893707.7366943.725174,1.333725.7302704,3.2103424-2.3708572,7.7831421-2.3708572,7.7831421l-3.5601349-3.0331116-3.54702-3.0484161s3.8077621-3.5548706,7.0355759-3.5552979M23.0914407,1.7355028h-.000145c-3.5812454.0004883-7.5510712,3.6681976-7.7183075,3.8243408l-.8159637.7617645.8465958.7276001,3.54702,3.0484009,3.5634003,3.0359192.8496552.723877.6264954-.9238129c.1365738-.2013855,3.3355408-4.9736176,2.5183182-8.5662231-.1752319-.7703552-.5215378-1.3939362-1.0293045-1.8534088l-.020546-.0185852-.021553-.0174255c-.5324173-.4306183-1.2020264-.6763763-1.9902496-.7304077-.1179962-.0080872-.2360153-.0120392-.3554153-.0120392h0Z"/>
          </g>
          <path class="cls-3" d="M22.7595948,3.8259092c.5107312.0350132.906915.193264,1.195467.4266312.2751705.2490054.4927671.6159613.6063162,1.1151395.6105854,2.6841893-1.9822941,6.5075431-1.9822941,6.5075431l-2.976654-2.536-2.9656894-2.5488136s3.376541-3.1527812,6.1228544-2.9645003Z"/>
          <g>
            <path class="cls-2" d="M22.0612588,23.7644029c-.3310547,0-.6308594-.1699219-.8027344-.4541016-.1689453-.28125-.1787109-.6210938-.0263672-.9091797.7695312-1.4599609,1.1757812-3.1181641,1.1757812-4.7949219,0-5.4541016-4.2041016-9.8916016-9.3720703-9.8916016-5.1669922,0-9.3710938,4.4375-9.3710938,9.8916016,0,1.6855469.4101562,3.3505859,1.1855469,4.8144531.1533203.2880859.1445312.6259766-.0234375.9042969-.1650391.2753906-.4560547.4394531-.7783203.4394531-.3369141,0-.6552734-.1767578-.8300781-.4619141-1.1542969-1.8935547-1.7636719-4.0771484-1.7636719-6.3144531,0-6.5722656,5.2089844-11.9199219,11.6113281-11.9199219,6.4033203,0,11.6123047,5.3476562,11.6123047,11.9199219,0,2.2294922-.6054688,4.4052734-1.75,6.2929688-.1826172.2978516-.5146484.4833984-.8671875.4833984Z"/>
            <path class="cls-1" d="M13.0665307,5.5680986c6.1368103,0,11.1116791,5.1130676,11.1116791,11.4203491,0,2.2152252-.6153946,4.2818756-1.6776962,6.0325928-.0925522.1525421-.2605438.243454-.4389572.243454-.323555,0-.5380402-.343689-.387207-.6299286.7852402-1.4901733,1.233757-3.203949,1.233757-5.0287933,0-5.7390594-4.4197998-10.3914948-9.8719101-10.3914948-5.4521027,0-9.8719101,4.6524353-9.8719101,10.3914948,0,1.8331604.4526062,3.5542145,1.2444992,5.049118.1464996.2765656-.0474548.6096039-.3604355.6096039-.1640244,0-.3184052-.0836029-.4037781-.2236633-1.0696869-1.7549286-1.6897354-3.8287964-1.6897354-6.0523834,0-6.3072815,4.9748764-11.4203491,11.1116943-11.4203491M13.0665307,4.5680986C6.388125,4.5680986.9548364,10.1398454.9548364,16.9884477c0,2.3295898.6348267,4.6024475,1.8358536,6.5728455.2643814.4337616.7462921.7032013,1.2576599.7032013.4989166,0,.9501648-.2548523,1.2070999-.6817169.2586212-.4296417.2724533-.9514923.0370102-1.3959808-.73806-1.3932953-1.1281738-2.9773712-1.1281738-4.5810242,0-5.1784973,3.9799194-9.3914948,8.8719101-9.3914948,4.891983,0,8.8719101,4.2129974,8.8719101,9.3914948,0,1.5963287-.3867569,3.174057-1.1184464,4.5626221-.2345963.4451904-.2190094.9689636.0417252,1.4010773.2625961.4352112.7224655.6950226,1.2301712.6950226.5268784,0,1.0226746-.2776947,1.2939072-.7247314,1.1924362-1.96521,1.8227463-4.2306366,1.8227463-6.5513153,0-6.8486023-5.4332733-12.4203491-12.1116791-12.4203491h0Z"/>
          </g>
        </g>
      </g>
    </g>
  </g>
</svg>