<?xml version="1.0" encoding="UTF-8"?>
<svg xmlns="http://www.w3.org/2000/svg" version="1.1" viewBox="0 0 80 26">
  <defs>
    <style>
      .cls-1 {
        fill: #bbbcbc;
      }

      .cls-2 {
        fill: #4f4c4b;
      }

      .cls-3 {
        fill: #fff;
      }

      .cls-4 {
        fill: #595757;
      }

      .cls-5 {
        fill: #807f80;
      }
    </style>
  </defs>
  <!-- Generator: Adobe Illustrator 28.7.1, SVG Export Plug-In . SVG Version: 1.2.0 Build 142)  -->
  <g>
    <g id="_レイヤー_1" data-name="レイヤー_1">
      <g>
        <g>
          <g>
            <path class="cls-4" d="M36.6229911,11.4951172v5.6816406h-1.0024414v-5.6816406h1.0024414Z"/>
            <path class="cls-4" d="M37.3749442,17.1767578v-6.0175781h.9746094v6.0175781h-.9746094Z"/>
            <path class="cls-4" d="M39.0463309,17.1767578v-6.0175781h.9746094v6.0175781h-.9746094Z"/>
            <path class="cls-4" d="M44.1254325,15.9394531c0,.5849609.0078125,1.0234375.0166016,1.2373047h-.9462891c-.0253906-.125-.0332031-.3320312-.0390625-.5664062-.2392578.4492188-.6357422.640625-1.1953125.640625-.7880859,0-1.3095703-.4609375-1.3095703-1.4814453v-2.84375h.96875v2.6748047c0,.4824219.1640625.8378906.6845703.8378906.5126953,0,.8408203-.3291016.8408203-1.1386719v-2.3740234h.9794922v3.0136719Z"/>
            <path class="cls-4" d="M45.2728934,15.8964844c.0585938.4052734.3535156.6367188.8056641.6367188.4589844,0,.6757812-.2050781.6757812-.5087891,0-.3134766-.2519531-.453125-.9238281-.640625-1.0986328-.3056641-1.3662109-.6962891-1.3662109-1.2890625,0-.5449219.3535156-1.2519531,1.5527344-1.2519531,1.0947266,0,1.5439453.5751953,1.5957031,1.2695312h-.9511719c-.0439453-.2695312-.1933594-.5507812-.6904297-.5507812-.3603516,0-.5507812.1640625-.5507812.4443359,0,.2558594.1660156.3876953.8134766.5537109,1.1337891.2958984,1.4824219.7001953,1.4824219,1.3769531,0,.84375-.6943359,1.3144531-1.6660156,1.3144531-.9882812,0-1.6445312-.4472656-1.7304688-1.3544922h.953125Z"/>
            <path class="cls-4" d="M47.7953544,12.9257812h.6269531v-1.1816406h.96875v1.1816406h.7910156v.7675781h-.7910156v2.3427734c0,.3134766.0761719.4433594.4277344.4433594.1074219,0,.1708984-.0048828.2792969-.0214844v.6875c-.1992188.0664062-.4873047.0771484-.6396484.0771484-.7529297,0-1.0361328-.2988281-1.0361328-1.0605469v-2.46875h-.6269531v-.7675781Z"/>
            <path class="cls-4" d="M50.5746513,14.3662109c0-.6914062-.0019531-1.1757812-.0166016-1.4404297h.9511719c.0195312.1894531.0253906.4599609.0253906.7841797.1621094-.4140625.5673828-.8505859,1.3164062-.8554688v.9921875c-.9023438.0029297-1.3017578.3886719-1.3017578,1.3447266v1.9853516h-.9746094v-2.8105469Z"/>
            <path class="cls-4" d="M56.3891044,16.1289062c0,.2890625.0214844.7724609.0605469,1.0478516h-.8623047c-.0302734-.1337891-.0576172-.3808594-.0634766-.5625-.171875.3730469-.5810547.6367188-1.2226562.6367188-1.046875,0-1.4003906-.6708984-1.4003906-1.2949219,0-.7236328.4902344-1.3808594,1.9804688-1.3808594h.5507812v-.34375c0-.3662109-.1103516-.6845703-.6835938-.6845703-.5361328,0-.6865234.2626953-.7373047.6279297h-.9453125c.0517578-.6845703.4560547-1.3320312,1.7011719-1.3320312.9658203,0,1.6220703.3496094,1.6220703,1.3740234v1.9121094ZM55.4633231,15.21875h-.5693359c-.8525391,0-1.0117188.3457031-1.0117188.6650391,0,.3320312.1992188.6123047.6611328.6123047.7236328,0,.9199219-.4833984.9199219-1.1894531v-.0878906Z"/>
            <path class="cls-4" d="M56.5101981,12.9257812h.6269531v-1.1816406h.96875v1.1816406h.7910156v.7675781h-.7910156v2.3427734c0,.3134766.0761719.4433594.4277344.4433594.1074219,0,.1708984-.0048828.2792969-.0214844v.6875c-.1992188.0664062-.4873047.0771484-.6396484.0771484-.7529297,0-1.0361328-.2988281-1.0361328-1.0605469v-2.46875h-.6269531v-.7675781Z"/>
            <path class="cls-4" d="M59.1654716,11.1591797h.9746094v.9853516h-.9746094v-.9853516ZM59.1654716,12.9257812h.9746094v4.2509766h-.9746094v-4.2509766Z"/>
            <path class="cls-4" d="M64.5111747,14.9882812c0,1.2373047-.5751953,2.2666016-1.9912109,2.2666016-1.4296875,0-1.9482422-1.0888672-1.9482422-2.2441406,0-1.078125.6044922-2.1679688,2.0039062-2.1679688,1.3134766,0,1.9355469.96875,1.9355469,2.1455078ZM61.5648856,14.9902344c0,.9306641.3427734,1.4882812.9960938,1.4882812.6396484,0,.9599609-.5498047.9599609-1.484375,0-.8701172-.3222656-1.3759766-.9873047-1.3759766-.6289062,0-.96875.5449219-.96875,1.3720703Z"/>
            <path class="cls-4" d="M64.9418388,14.2529297c0-.8798828-.0078125-1.1416016-.0166016-1.3271484h.9511719c.0136719.0771484.0361328.3964844.0341797.5888672.1738281-.3476562.5693359-.671875,1.2070312-.671875.8574219,0,1.3466797.5273438,1.3466797,1.5625v2.7714844h-.9765625v-2.59375c0-.5263672-.1494141-.9248047-.7138672-.9248047-.5908203,0-.8574219.3857422-.8574219,1.1796875v2.3388672h-.9746094v-2.9238281Z"/>
          </g>
          <g>
            <path class="cls-4" d="M33.2201591,22.6289062c.0917969.5917969.4833984.9345703,1.1123047.9345703.6591797,0,.9614258-.3037109.9614258-.7851562,0-.5546875-.3066406-.7851562-1.1879883-1.0449219-1.2729492-.3632812-1.7246094-.8095703-1.7246094-1.6279297,0-1.0019531.7875977-1.5800781,1.8613281-1.5800781,1.3149414,0,1.8725586.7128906,1.9365234,1.5878906h-.987793c-.0761719-.4746094-.3237305-.8095703-.9619141-.8095703-.5629883,0-.8417969.2666016-.8417969.7041016,0,.4619141.2885742.6132812,1.1303711.8613281,1.4335938.4238281,1.7998047.9882812,1.7998047,1.7929688,0,.9326172-.628418,1.6884766-2.0307617,1.6884766-1.2192383,0-1.9868164-.6279297-2.0605469-1.7216797h.9936523Z"/>
            <path class="cls-4" d="M36.7782645,18.2636719h.9746094v.9853516h-.9746094v-.9853516ZM36.7782645,20.0302734h.9746094v4.2509766h-.9746094v-4.2509766Z"/>
            <path class="cls-4" d="M41.989202,23.8935547c0,1.3164062-.5371094,2.1074219-1.9472656,2.1074219-1.331543,0-1.7250977-.7177734-1.7797852-1.3408203h.9628906c.0786133.3808594.3852539.5791016.8686523.5791016.7763672,0,.9462891-.4765625.9462891-1.3007812v-.2919922c-.2148438.4257812-.6113281.6035156-1.1738281.6035156-1.0117188,0-1.6762695-.8125-1.6762695-2.1289062,0-1.3623047.7983398-2.1738281,1.7602539-2.1738281.6699219,0,.9628906.2548828,1.0683594.515625,0-.1269531.0273438-.3486328.0410156-.4326172h.9453125c-.0078125.2070312-.015625.6757812-.015625,1.2646484v2.5986328ZM39.1952567,22.1035156c0,.8320312.3466797,1.3369141.9345703,1.3369141.6953125,0,.9355469-.4130859.9355469-1.3505859,0-.8759766-.1523438-1.3330078-.90625-1.3330078-.5664062,0-.9638672.4375-.9638672,1.3466797Z"/>
            <path class="cls-4" d="M42.3388114,21.3574219c0-.8798828-.0078125-1.1416016-.015625-1.3271484h.9511719c.0136719.0771484.0351562.3964844.0332031.5888672.1738281-.3476562.5703125-.671875,1.2070312-.671875.8574219,0,1.3476562.5273438,1.3476562,1.5625v2.7714844h-.9765625v-2.59375c0-.5263672-.1503906-.9248047-.7148438-.9248047-.5898438,0-.8574219.3857422-.8574219,1.1796875v2.3388672h-.9746094v-2.9238281Z"/>
            <path class="cls-4" d="M47.1200614,22.3671875c-.0019531.6337891.2519531,1.2158203.9238281,1.2158203.5644531,0,.7421875-.3701172.8085938-.5703125h.9570312c-.1835938.6464844-.6523438,1.3457031-1.7988281,1.3457031-1.3496094,0-1.875-.9667969-1.875-2.2041016,0-1.0498047.5234375-2.2070312,1.9199219-2.2070312,1.3945312,0,1.8105469,1.0253906,1.8105469,2.0820312,0,.046875-.0058594.2861328-.0117188.3378906h-2.734375ZM48.9130302,21.7128906c-.0195312-.5605469-.2441406-1.0185547-.875-1.0185547-.703125,0-.875.5966797-.9003906,1.0185547h1.7753906Z"/>
            <path class="cls-4" d="M53.8915458,18.2636719v4.8583984c0,.4667969.0058594.90625.015625,1.1591797h-.9511719c-.0136719-.1132812-.0332031-.3691406-.0332031-.5439453-.2089844.4121094-.5351562.6240234-1.21875.6240234-1.0878906,0-1.6445312-.8994141-1.6445312-2.1972656,0-1.2626953.6679688-2.2167969,1.8164062-2.2167969.6503906,0,.9394531.2363281,1.0410156.4287109v-2.1123047h.9746094ZM51.0595145,22.1279297c0,.8759766.3261719,1.4326172.953125,1.4326172.7910156,0,.9472656-.5615234.9472656-1.4472656,0-1.0019531-.2363281-1.3583984-.9101562-1.3583984-.6035156,0-.9902344.4697266-.9902344,1.3730469Z"/>
            <path class="cls-4" d="M55.645452,18.2636719h.9726562v2.2714844c.1835938-.2929688.5351562-.5878906,1.2089844-.5878906,1.0742188,0,1.6367188.9121094,1.6367188,2.0732422,0,1.3408203-.5859375,2.3349609-1.7851562,2.3349609-.6269531,0-.9238281-.265625-1.0722656-.5292969-.0019531.1494141-.0136719.3027344-.0292969.4550781h-.9492188c.0078125-.2685547.0175781-.8046875.0175781-1.2646484v-4.7529297ZM58.4774833,22.0595703c0-.765625-.2929688-1.3027344-.9472656-1.3027344-.7246094,0-.9648438.4794922-.9648438,1.3613281,0,.9316406.2285156,1.4394531.9550781,1.4394531.6542969,0,.9570312-.59375.9570312-1.4980469Z"/>
            <path class="cls-4" d="M63.5907645,22.0927734c0,1.2373047-.5742188,2.2666016-1.9902344,2.2666016-1.4296875,0-1.9492188-1.0888672-1.9492188-2.2441406,0-1.078125.6054688-2.1679688,2.0039062-2.1679688,1.3144531,0,1.9355469.96875,1.9355469,2.1455078ZM60.645452,22.0947266c0,.9306641.3417969,1.4882812.9960938,1.4882812.6386719,0,.9589844-.5498047.9589844-1.484375,0-.8701172-.3222656-1.3759766-.9863281-1.3759766-.6289062,0-.96875.5449219-.96875,1.3720703Z"/>
            <path class="cls-4" d="M67.7138114,22.0927734c0,1.2373047-.5761719,2.2666016-1.9921875,2.2666016-1.4296875,0-1.9472656-1.0888672-1.9472656-2.2441406,0-1.078125.6035156-2.1679688,2.0039062-2.1679688,1.3125,0,1.9355469.96875,1.9355469,2.1455078ZM64.7665458,22.0947266c0,.9306641.34375,1.4882812.9960938,1.4882812.640625,0,.9609375-.5498047.9609375-1.484375,0-.8701172-.3222656-1.3759766-.9882812-1.3759766-.6289062,0-.96875.5449219-.96875,1.3720703Z"/>
            <path class="cls-4" d="M69.1181083,21.8740234c.3339844-.4023438.9902344-1.203125,1.4902344-1.84375h1.1113281c-.4316406.5107422-.9667969,1.0986328-1.4335938,1.6416016.4882812.7841797,1.0722656,1.7714844,1.5722656,2.609375h-1.125c-.3027344-.5419922-.7675781-1.3808594-1.0917969-1.9599609-.0507812.0576172-.46875.5-.5234375.5546875v1.4052734h-.9746094v-6.0175781h.9746094v3.6103516Z"/>
          </g>
          <g>
            <path class="cls-4" d="M33.9921317,10.1347656h-1.3154297c-.0644531-.3134766-.1132812-.7617188-.1386719-1.2568359-.5175781,1.0478516-1.5136719,1.4023438-2.8261719,1.4023438-2.6142578,0-3.9550781-2.1982422-3.9550781-5.0917969C25.7567802,2.3095703,27.3407645-.0009766,30.2362723-.0009766c2.2919922,0,3.5117188,1.2636719,3.7753906,2.9658203h-1.734375c-.2255859-.7851562-.7431641-1.53125-2.1376953-1.53125-1.8505859,0-2.5644531,1.7207031-2.5644531,3.7646484,0,1.9824219.7255859,3.6572266,2.5117188,3.6572266,1.7236328,0,2.1552734-1.1982422,2.1552734-2.6748047v-.0527344h-2.2607422v-1.5107422h4.0107422v5.5175781Z"/>
            <path class="cls-4" d="M36.8290458,7.5302734l-.796875,2.6044922h-1.7431641c.3271484-.9707031,2.7597656-8.8994141,3.125-10h2.2714844l3.2763672,10h-1.8613281l-.8427734-2.6044922h-3.4287109ZM39.8925223,6.0546875c-.6982422-2.2148438-1.1669922-3.6660156-1.3828125-4.5527344h-.0185547c-.2548828,1.1357422-.7304688,2.6884766-1.3105469,4.5527344h2.7119141Z"/>
            <path class="cls-4" d="M43.1786552.1347656h1.7646484v8.5390625h4.5849609l-.2070312,1.4609375h-6.1425781V.1347656Z"/>
            <path class="cls-4" d="M49.7733817.1347656h1.7646484v8.5390625h4.5849609l-.2070312,1.4609375h-6.1425781V.1347656Z"/>
            <path class="cls-4" d="M62.4901786,5.6523438h-4.3984375v3.0214844h4.8496094l-.2177734,1.4609375h-6.3554688V.1347656h6.3144531v1.4707031h-4.5908203v2.5703125h4.3984375v1.4765625Z"/>
            <path class="cls-4" d="M65.1093192,5.8603516v4.2744141h-1.7382812V.1347656h3.890625c1.8457031,0,3.1582031.9150391,3.1582031,2.6611328,0,1.390625-.7675781,2.0419922-1.5849609,2.3378906,1.0097656.3662109,1.3964844,1.1640625,1.3964844,2.4462891v.2333984c0,.8994141.0410156,1.7509766.1357422,2.3212891h-1.7119141c-.1416016-.4130859-.1806641-1.1728516-.1806641-2.3388672v-.2421875c0-1.2382812-.4492188-1.6933594-1.8730469-1.6933594h-1.4921875ZM65.1093192,4.4443359h1.6328125c1.0839844,0,1.9160156-.2978516,1.9160156-1.5058594,0-.9746094-.6855469-1.3876953-1.6308594-1.3876953h-1.9179688v2.8935547Z"/>
            <path class="cls-4" d="M73.2626395,10.1347656v-3.8291016c0-.1083984-.0234375-.2148438-.0830078-.3046875l-3.1953125-5.8662109h1.9931641c.7480469,1.5283203,1.8154297,3.6210938,2.25,4.5039062.6953125-1.4296875,1.546875-3.0722656,2.2539062-4.5039062h1.8466797l-3.2265625,5.8466797c-.0537109.0849609-.0742188.1572266-.0742188.2861328v3.8671875h-1.7646484Z"/>
          </g>
        </g>
        <g>
          <path class="cls-5" d="M12.7749265,25.459864c.7510854.2274531,1.56341.1255022,2.234993-.2805048.3443415-.1622495.7099077-.2749665,1.0858275-.3347974.7437418-.0129544,1.475544.1880566,2.1083137.5791071.4770992.2134494,1.0178212.2361135,1.5111091.0633396v.0542926c.1281825.1635405.3060063.2810312.5067187.3347956.4560229.1652042.9555516.1652042,1.4115744,0,.6420619-.3181824,1.0359118-.9852435,1.0043904-1.701128v-.1085834c-.0031083-.3584298-.1497766-.7006536-.4071858-.9500978h-.0452421c.0491702-.1525829.0795559-.3105902.0904859-.4705254.0101326-.8134862-.1761066-1.6174127-.5429138-2.3435764-.2516292-.514763-.4138028-1.0686016-.4795742-1.6377884-.0080012-.1174941-.0080012-.235399,0-.3528932.0875071-.5533933.2583515-1.0903355.5067187-1.5925463.3075061-.6139215.4977649-1.279828.5610113-1.963537v-.0542909c.0136206-.3704298-.1311734-.7291271-.398137-.9862929-.0631015-.0592579-.1329528-.1108875-.2081164-.1538255h.1628743c.1447768,0,.2443115-.1176305.262409-.2352627.0032809-.0512223.0032809-.1026033,0-.1538255.0111492-.1456949-.0379054-.2895915-.135728-.398137-.062261-.0605126-.1409177-.1014142-.2262139-.1176305h-.1538255c.1058428-.047843.2035428-.1119575.2895536-.1900189.2669636-.2571658.4117576-.6158631.398137-.9862929v-.0542909c-.0632464-.683709-.2535052-1.3496164-.5610113-1.963537-.2483673-.5022107-.4192117-1.039153-.5067187-1.5925463-.0091161-.1174544-.0091161-.2354396,0-.352894.0657714-.5691859.227945-1.1230253.4795742-1.6377892.4145276-.7686669.6174975-1.6336273.5881559-2.5064507-.0116531-.1568834-.0420302-.3118096-.0904859-.4614766l.0904859-.0723884c.2270441-.2473322.3557806-.5691704.3619419-.9048557v-.1085826c.0315214-.7158845-.3623268-1.3829448-1.0043887-1.7011288-.4560229-.1652053-.9555516-.1652053-1.4115744,0-.2225188.0534663-.4165124.1892621-.5429138.3800395h-.1176305c-.4582958-.1356374-.9502514-.1002677-1.3844299.0995342-.6327697.391051-1.3645719.5920611-2.1083137.5791075-.3759198-.0598314-.7414861-.1725474-1.0858275-.3347965-.671583-.4060057-1.4839076-.5079575-2.234993-.2805052l-.1447768.0904855v-.1085826c0-.1719226-.1176305-.2805052-.2533602-.2986023-.1936708-.0469546-.3981474-.0000259-.5519625.1266797-.0605126.062261-.1014142.1409186-.1176305.2262139h-.0904859c-.7510854-.2274527-1.5634118-.1255009-2.2349939.2805052-.3443415.1622491-.709906.2749652-1.0858267.3347965-.7437409.0129536-1.475544-.1880566-2.1083137-.5791075-.4768835-.2143649-1.0179592-.2370447-1.5111091-.0633401v-.0542913c-.1313408-.1975161-.331211-.3393593-.5610113-.3981366C3.6684826-.0413013,3.1689556-.0413013,2.7129319.123904c-.6807573.3333636-1.0816311,1.0556588-1.00439,1.8097114-.0009859.3791735.1643926.7396981.4524279.9862929v.0904855c-.0325737.1214313-.0537783.2456305-.0633401.3709907-.0133988.8138352.1730181,1.6185349.5429138,2.343576.2457008.5157683.4017579,1.0696173.4614766,1.6377892.0094155.1174432.0094155.2354508,0,.352894-.0876425.5533614-.2584818,1.0902829-.5067196,1.5925463-.3077042.6138429-.4979741,1.2797875-.5610104,1.9635361-.036775.3847149.0991274.7659055.3709907,1.0405837v.0542909c.0161758.0646841.0437527.1259665.0814372.1809718-.0852953.0162163-.163953.0571178-.2262139.1176305-.1267056.1538152-.1736343.3582917-.1266797.5519625,0,.1538255.1719226.2262139.3890878.271456l-.1176313.1447785c-.2840152.2682908-.4305317.6512314-.3981366,1.0405837.0630367.6837487.2533063,1.3496932.5610109,1.963537.2505056.4989212.4243807,1.03275.5157675,1.5834975.0098617.1174251.0098617.2354681,0,.3528932-.0644123.5723503-.2266264,1.1293904-.4795733,1.6468371-.3716565.7243982-.558177,1.5295449-.5429133,2.3435764.0101607.1223093.0313604.2434502.0633401.3619419v.0995347c-.2812996.2469417-.4428139.6029328-.4433791.9772441-.0772411.7540522.3236323,1.4763483,1.0043895,1.8097114.4560237.1652042.9555516.1652042,1.4115753,0,.2225188-.0534676.4165133-.1892629.5429138-.3800395h.1266801c.4483902.1805904.9474822.1902519,1.4025248.0271463.6327697-.3910506,1.3645728-.5920615,2.1083137-.5791071.3759207.0598326.7414852.1725478,1.0858267.3347974.6715821.406007,1.4839085.5079579,2.2349939.2805048h.0904859c.0162163.0852962.0571178.1639547.1176305.2262139.1538152.1267069.3582917.1736334.5519625.1266792.1538255,0,.2262139-.1719213.271456-.3890882h.1447768Z"/>
          <rect class="cls-2" x="4.6221769" y="3.4357017" width="15.2739646" height="19.4091558"/>
          <rect class="cls-3" x="5.8346844" y="4.5215171" width="12.9122915" height="17.2736966"/>
          <path class="cls-4" d="M17.290158,13.6967397c-.7238839,1.1763117-.9048557,2.4069161-2.1716534,3.302723-1.3533399.8753381-2.9677375,1.2557607-4.5695224,1.0767788-1.2025183-.0649343-2.2973221-.7137064-2.9317323-1.737323-.3540271-.7883712-.4974447-1.655111-.4162337-2.5154995-.0063383-.6252311-.145115-1.2420193-.4071849-1.8097114-.170375-.5960431-.141785-1.231381.0814372-1.8097114.1744696-.6772801.5167892-1.2996773.9953416-1.8097114.7056138-.5592768,1.5501907-.9158754,2.4431094-1.031535.6786418-.1447768,1.0586813-.6786418,1.6287396-1.0224871,1.2939439-.7600789,3.1308017-.2262139,4.1894812.5248162,1.0860191.8373429,1.8188689,2.0512261,2.0540229,3.4022577.2098026,1.2188244-.1167313,2.4688879-.8958052,3.4294031Z"/>
          <path class="cls-3" d="M10.1779915,12.3485049c-.059969-.0449763-.0721226-.1300516-.0271446-.1900206.0077164-.0102879.0168549-.0194282.0271446-.0271446l.533865-.2805048c1.0980071-.6603441,2.3006177-1.1285361,3.5560832-1.384429.0368336-.0193082.0807969-.0193082.1176305,0,.0151083.0346176.0151083.073965,0,.1085826-.1275318.9603547-.4509091,1.8842917-.9500978,2.7145671.4705254.0633396.9048557.1085834,1.3663323.135728.077459,0,.1402515.0627925.1402515.1402515,0,.0774607-.0627925.1402533-.1402515.1402533-1.6620921.0229058-3.2913926-.4633578-4.6690554-1.3934769l.0452421.0361933ZM12.0419938,11.5069888c-.398137.1900189-.7872252.3890882-1.167263.5881559l-.3438444.1809718c.7501569.5157571,1.6068331.8559548,2.5064507.9953416-.2533602-.4343303-.49767-.9048557-.7329326-1.3029927l-.2533602-.4524279-.0090505-.0090488ZM12.295354,11.3893583l.2443115.4433791c.2443115.4433791.49767.9048557.7510302,1.3301373.4444043-.7346085.751044-1.5441372.9048557-2.3888194-.6572496.1224293-1.2959339.3292409-1.9001973.615303Z"/>
          <path class="cls-1" d="M8.6035428,17.6781045h-.2624081c-1.0134383,0-.9048557,1.0586813-.9048557,1.7554206l1.8097114-.9048557c-.0619339.4738719-.0831251.9521809-.0633396,1.429672.4025009-.2213625.819714-.4148538,1.248701-.5791071l1.701128.4614766c-.0083998-.3145218-.0856155-.6233827-.2262139-.9048557.3528932-.0814372.7148368-.1809718,1.06773-.271456l1.0224862.7781765c-.0904859-.6514955,0-1.6468371-.7238839-1.8820998s-1.3210902.3619419-1.963537.4614766c-.3494035.0633552-.7035928.0966559-1.0586813.0995347-.5330918-.2013993-1.0846893-.3499074-1.6468371-.4433825Z"/>
          <path class="cls-1" d="M11.3090612,21.4784992c-.1223076-.4094467-.1981892-.8313455-.2262139-1.2577489.0299284-.2312828.0299284-.4654565,0-.6967393l-.3347974-.7962723-.3166998.6153022c-.1872368.7671188-.1463525,1.5722224.1176322,2.3164284v.135728h.9048557l-.1447768-.3166981Z"/>
          <path class="cls-3" d="M12.6150296,15.4974098c-.3870379,0-.7749594-.0256258-1.1584627-.077761-1.7460888-.2416778-3.9746494-1.1390225-5.0173543-2.5979256l.1837988-.1316636c1.0038243,1.4045587,3.1661114,2.2700921,4.8644831,2.5051425,1.3201704.1798224,2.6818722.0406478,3.9366526-.4016181.9481545-.3777596,1.7991077-.9923369,2.4583092-1.7761328l.173195.1458019c-.68306.8120727-1.5649409,1.449183-2.5519759,1.8419646-.9269469.326508-1.9077964.492192-2.8886458.492192Z"/>
          <path class="cls-3" d="M12.501039,15.4527855l-.1042705-.2005881c1.145208-.5982298,2.1410795-1.4076515,2.9602213-2.4052903.6265065-1.0157536.6839437-2.325762.1405001-3.4064637-.5319562-1.2892427-1.2238527-2.4985152-2.0615512-3.6017499l.1802642-.1369655c.8491859,1.1191404,1.5508025,2.3452022,2.0862933,3.6446068.575255,1.1429989.5142832,2.5373957-.1617076,3.6317939-.8474186,1.0338683-1.8671486,1.8622885-3.0397497,2.4746567Z"/>
          <path class="cls-3" d="M11.9664318,15.3626534c-.2129592-.1550803-.4347549-.3026495-.6583179-.4515442-.7988179-.532398-1.6259126-1.0829108-2.0907115-2.0049977-.396758-.8805554-.4718681-1.8720086-.2156102-2.795421.5010285-1.6130997,1.4518339-3.0304714,2.7516804-4.1018948l.143151.1740787c-1.2645005,1.0440303-2.1905638,2.4238469-2.6783376,3.9914387-.2412359.8695098-.1696604,1.8061768.2032391,2.634597.4356385.8642079,1.2371074,1.3979314,2.0120669,1.9139819.2262139.150662.4506606.2999986.6653871.4568461l-.1325472.1829152Z"/>
          <path class="cls-3" d="M10.2548054,13.6603052l-.2262139-.017673c.1042705-1.2941027.4736354-2.5272337,1.100142-3.6649307.9030884-1.5397569,2.2506519-2.0562493,3.6777436-2.6027857l.0812956.2111919c-1.3890949.5319562-2.7013124,1.034752-3.5628694,2.5033752-.6088336,1.1067693-.969362,2.3089726-1.0700979,3.5708222Z"/>
          <path class="cls-3" d="M15.5319522,12.6776885c-.2977894-.6291575-.6538996-1.2322474-1.0577268-1.7920385-.74845-.770983-1.7619944-1.2764298-2.8444634-1.4107443l.0282767-.2244466c1.1328369.1405001,2.1940984.6698053,2.9893817,1.4902726.4223838.5836496.7855632,1.1986687,1.0895382,1.8397555l-.2050064.0972013Z"/>
        </g>
      </g>
    </g>
  </g>
</svg>