<?xml version="1.0" encoding="UTF-8"?>
<svg xmlns="http://www.w3.org/2000/svg" version="1.1" viewBox="0 0 80 26">
  <defs>
    <style>
      .cls-1 {
        fill: #6f6e6f;
      }

      .cls-2 {
        fill: #fff;
      }

      .cls-3 {
        fill: #a2a2a2;
      }

      .cls-4 {
        fill: #595757;
      }
    </style>
  </defs>
  <!-- Generator: Adobe Illustrator 28.7.1, SVG Export Plug-In . SVG Version: 1.2.0 Build 142)  -->
  <g>
    <g id="_レイヤー_1" data-name="レイヤー_1">
      <g>
        <g>
          <path class="cls-4" d="M49.9105277,14.0820312c0-1.7509766.0253906-3.7421875.0683594-4.8427734h-.0654297c-.4541016,1.9765625-1.6523438,5.9111328-2.578125,8.7558594h-1.5527344c-.6894531-2.390625-1.9160156-6.7890625-2.3525391-8.78125h-.0693359c.0830078,1.1650391.1220703,3.3525391.1220703,5.0742188v3.7070312h-1.6318359V7.9951172h2.6425781c.828125,2.5488281,1.875,6.2392578,2.1767578,7.7080078h.0185547c.2099609-1.1806641,1.5126953-5.1347656,2.3789062-7.7080078h2.5507812v10h-1.7080078v-3.9130859Z"/>
          <path class="cls-4" d="M61.0921684,12.9423828c0,2.8769531-1.3720703,5.1982422-4.4462891,5.1982422-2.9746094,0-4.3183594-2.3144531-4.3183594-5.2099609,0-2.5166016,1.3525391-5.0712891,4.4511719-5.0712891,2.9316406,0,4.3134766,2.3261719,4.3134766,5.0830078ZM54.1566215,12.9277344c0,2.1162109.8476562,3.7880859,2.5673828,3.7880859,1.8466797,0,2.5585938-1.5888672,2.5585938-3.7685547,0-1.9941406-.7148438-3.6630859-2.5800781-3.6630859-1.7841797,0-2.5458984,1.6210938-2.5458984,3.6435547Z"/>
          <path class="cls-4" d="M70.1624809,12.9423828c0,2.8769531-1.3720703,5.1982422-4.4462891,5.1982422-2.9746094,0-4.3183594-2.3144531-4.3183594-5.2099609,0-2.5166016,1.3525391-5.0712891,4.4511719-5.0712891,2.9316406,0,4.3134766,2.3261719,4.3134766,5.0830078ZM63.226934,12.9277344c0,2.1162109.8476562,3.7880859,2.5673828,3.7880859,1.8466797,0,2.5585938-1.5888672,2.5585938-3.7685547,0-1.9941406-.7148438-3.6630859-2.5800781-3.6630859-1.7841797,0-2.5458984,1.6210938-2.5458984,3.6435547Z"/>
          <path class="cls-4" d="M70.9251762,7.9951172h1.7333984v4.7539062c1.0830078-1.3300781,2.7607422-3.3583984,3.8867188-4.7539062h2.1123047l-3.5234375,4.0664062,3.7363281,5.9335938h-2.1123047l-2.8369141-4.7646484-1.2519531,1.3447266v3.4199219h-1.7441406V7.9951172Z"/>
        </g>
        <g>
          <path class="cls-2" d="M6.4542519,23.9780185L1.1455251,5.3039511l2.9113465-1.1950331,2.4362448-.5622259-.7496558-2.4929389s2.2145923-.1773853,2.9236544,0c1.60575.4017087,4.3933669,2.3449234,5.7190362,3.3360862.3792818.2835775,1.3783314,1.2994374,1.3783314,1.2994374L28.2237526.3570015s1.2083848.9595631,1.6588535,1.1379809c.3520114.1394217,1.5510669.1333771,1.5510669.1333771l7.3363137,17.5106875-.3704564.7165349-14.763694,5.594307-1.7108004-.2076598-1.6602575.4118735-13.8105265-1.676084"/>
          <path class="cls-1" d="M9.205305,4.7916273l3.3360672,11.1202239s1.2655306-.1709203,2.8338919.22117,2.9664494,1.48173,2.875329,1.4376645l-3.3981161-9.9329549s-.7312927-.9088845-1.9604516-1.6990581c-1.8297548-1.176271-3.6867204-1.1470455-3.6867204-1.1470455Z"/>
          <path class="cls-3" d="M15.6639635,5.9729523s1.5480769-.5369484,2.9782663-1.5020426c2.3182786-1.5643781,9.9865654-3.4987144,9.9865654-3.4987144l5.9629952,14.4191656s-1.7232092.1641577-3.5957233.7565329c-2.5608052.8101181-4.7390139,1.6725931-6.5509898,2.6482725-3.1907848,1.7181149-3.570142,2.5535016-3.449852,2.6954227.243564.2873628-5.3312619-15.5186366-5.3312619-15.5186366Z"/>
          <path class="cls-1" d="M31.433673,1.6283595l-1.4373454-.4837312c-.7954762-.2426314-1.1650392-.4843694-1.3350471-.6445495l-.0091258-.0094449c-.0798348-.0920238-.2014058-.1470339-.3252103-.1470339-.034844,0-.0692412.0044672-.1031917.0134015-.9871818.2504171-9.7198706,2.5240815-12.3318916,5.2017061l-.1273783.1305691-.0826427-.1626052C14.2970795,2.8048858,9.9897018.5053118,6.275884.5053118h-.0032547c-.0418,0-.0841105,0-.1276336.0011487-.1322922.0016592-.2583303.0666247-.3370164.1733264-.0784946.1074675-.1026174.2472262-.0645188.3739664l.7496558,2.4929389-.1785594-.0026803c-.2370794-.0035737-.4615868-.0051053-.670523-.0051053-.9959886,0-1.6340926.0336953-1.6416868.0340782-.0561588.0025527-.1101478.0163371-.1582018.0399493l-2.6669672,1.3786978c-.0495218.0961081-.0611365.2080427-.0316531.3123193l5.3087269,18.6740675c.0479902.1686039.191578.2888348.3659254.3064482l13.4446011,1.3696358c.0140397.0015316.0280794.0022974.0419914.0022974.0352907,0,.0713472-.0047224.1084247-.0140397l1.5098413-.4001312,1.4952273.2299957c.0213148.0031908.0429487.0048501.0645826.0048501.0523936,0,.1033194-.0091896.1509905-.027186l14.763694-5.594307.3704564-.7165349L31.433673,1.6283595ZM6.9144348,1.3792188c3.8314959.27237,7.7915189,2.8329547,8.3156461,5.3750325l.0206766.0613917.0301215.1013411,5.3505268,15.5143709s-2.7729031-2.638824-8.0216422-3.0892429c-.1255117-.0107691-.2509276.0033185-.3714137.0099554l-.1026174.0054882L6.7254733,1.3656896l.1889615.0135292ZM4.7546833,4.3992843c.2910045-.006254.5916454-.0094449.8935626-.0094449.3367612,0,.6758836.0039566,1.0079223.0118699l.0947679.0022974,4.6715163,15.5354304c.0539252.1780488.2242522.3022363.4141709.3022363.017422,0,.0349078-.0010211.0506067-.0029356.2329951-.0316531.482774-.0478626.7423807-.0478626,1.8666409,0,5.6209824,1.1700169,8.2349179,3.2611653-1.9604516-1.3069677-6.1680199-1.677488-8.4818888-1.677488-1.0269397,0-1.9461567.0627957-2.5882811.1767725l-.115636.020549L4.5846754,4.4029857l.1700079-.0037014ZM7.1477489,23.3069212L2.0618703,5.4151199l1.6942718-.8159614,5.1493125,17.7594453-.0679011.0544995c-.4585236.3683505-1.1709742.6838607-1.554896.8391907l-.1349087.0546272ZM20.2724365,24.8001064l-11.8373754-1.1922252.4603105-.2022992c.2827084-.173454.5170436-.3499712.6965602-.5247016l.0244418-.0237398.0329933-.0088067c.549654-.1467786,1.4910154-.2275707,2.6507578-.2275707,3.1334041,0,7.1957254.5534192,8.7104167,1.7683631l.2020439.1620946-.9401489.2488855ZM22.0617315,23.9694671l-5.9617002-17.2864353.0232931-.0485008c.961017-1.9992522,8.1720583-4.3632812,11.8507769-5.3339345l.1091267-.0288452,7.3091278,17.069203-.1663065.0259096c-3.0152793.4687981-10.2477631,2.9003452-13.0172839,5.4664181l-.1470339.136185ZM23.4389615,24.6141443l-.7214487-.1106583.209-.1848134c2.7554173-2.4361419,10.5103053-5.0020872,13.0041376-5.1807742l.0253353-.0019145,1.047744.3388671-13.5647681,5.1392933ZM36.3266335,18.3618862L29.2296327,1.7879015l.276901.0934278c.072815.0245056.147672.048756.2248903.0724959l.0424382.0099554.003829.0035737c.2795175.0836.5888375.1601801.8966258.2219548l.1992998.0137844,6.8507956,16.5438632-1.397779-.3850705Z"/>
        </g>
      </g>
    </g>
  </g>
</svg>