<?xml version="1.0" encoding="UTF-8"?>
<svg id="_レイヤー_1" data-name="レイヤー_1" xmlns="http://www.w3.org/2000/svg" version="1.1" viewBox="0 0 80 26">
  <!-- Generator: Adobe Illustrator 29.0.0, SVG Export Plug-In . SVG Version: 2.1.0 Build 186)  -->
  <defs>
    <style>
      .st0 {
        fill: none;
      }

      .st1 {
        fill: #6f6e6f;
      }

      .st2 {
        fill: #c3c4c4;
      }

      .st3 {
        fill: #595757;
      }
    </style>
  </defs>
  <g>
    <path class="st3" d="M39.5527344,16.8481445l-2.5058594-7.7050781h1.4589844l1.0859375,3.6015625c.3154297,1.0400391.6337891,2.0966797.7851562,2.8164062h.0224609c.1572266-.6650391.5078125-1.7832031.8251953-2.7880859l1.1435547-3.6298828h1.3964844l-2.5869141,7.7050781h-1.625Z"/>
    <path class="st3" d="M48.5673828,13.394043h-3.3886719v2.328125h3.7363281l-.1679688,1.1259766h-4.8964844v-7.7050781h4.8652344v1.1337891h-3.5371094v1.9804688h3.3886719v1.1367188Z"/>
    <path class="st3" d="M49.2441406,9.1430664h1.359375v3.1113281h3.0839844v-3.1113281h1.3623047v7.7050781h-1.3623047v-3.4570312h-3.0839844v3.4570312h-1.359375v-7.7050781Z"/>
    <path class="st3" d="M57.1523438,9.1430664v7.7050781h-1.359375v-7.7050781h1.359375Z"/>
    <path class="st3" d="M63.9804688,14.4858398c-.2148438,1.2753906-1.0644531,2.4746094-2.984375,2.4746094-2.3691406,0-3.2373047-1.7490234-3.2373047-3.9833984,0-2.125,1.0703125-3.9375,3.2978516-3.9375,1.9736328,0,2.7822266,1.2412109,2.8818359,2.4716797h-1.3378906c-.1689453-.7265625-.5019531-1.3662109-1.5908203-1.3662109-1.3632812,0-1.8505859,1.359375-1.8505859,2.8271484,0,1.5185547.4355469,2.890625,1.8671875,2.890625,1.0683594,0,1.4345703-.7011719,1.6113281-1.3769531h1.3427734Z"/>
    <path class="st3" d="M64.3486328,9.1430664h1.359375v6.5791016h3.5322266l-.1591797,1.1259766h-4.7324219v-7.7050781Z"/>
    <path class="st3" d="M74.1445312,13.394043h-3.3886719v2.328125h3.7363281l-.1679688,1.1259766h-4.8964844v-7.7050781h4.8652344v1.1337891h-3.5371094v1.9804688h3.3886719v1.1367188Z"/>
    <path class="st3" d="M75.7988281,14.6069336c.1240234.8027344.6552734,1.2675781,1.5087891,1.2675781.8935547,0,1.3037109-.4121094,1.3037109-1.0644531,0-.7519531-.4160156-1.0644531-1.6113281-1.4169922-1.7265625-.4931641-2.3388672-1.0976562-2.3388672-2.2080078,0-1.3583984,1.0683594-2.1425781,2.5244141-2.1425781,1.7832031,0,2.5390625.9667969,2.6259766,2.1533203h-1.3398438c-.1025391-.6435547-.4384766-1.0986328-1.3046875-1.0986328-.7626953,0-1.140625.3623047-1.140625.9560547,0,.6259766.3916016.8310547,1.5322266,1.1669922,1.9443359.5751953,2.4414062,1.3417969,2.4414062,2.4316406,0,1.265625-.8525391,2.2910156-2.7539062,2.2910156-1.6533203,0-2.6943359-.8515625-2.7939453-2.3359375h1.3466797Z"/>
  </g>
  <g>
    <polygon class="st0" points="25.1732987 17.1189785 25.3780864 16.4831689 23.8001234 16.5753328 23.6796075 17.2098181 25.1732987 17.1189785"/>
    <path class="st2" d="M11.5069527,6.2193281h-.9257882c-.4169,0-.7548592.3379593-.7548592.7548592v1.2579028c0,.4168932.3379593.7548592.7548592.7548592h.7201153c.15578-.017899.3131277-.0342912.4707862-.0488118.2859109-.107448.489746-.3825885.489746-.7060475v-1.2579028c0-.4169-.3379593-.7548592-.7548592-.7548592Z"/>
    <path class="st2" d="M19.524473,5.8318611l-.0410278-.0014595c.0182368.0142638.0366696.0282843.0546092.042913l-.0135813-.0414535Z"/>
    <path class="st2" d="M14.4573883,8.9869493h4.4652352c.4177581,0,.7564133-.338662.7564133-.7564133v-.7986641c0-.7919545-.6420057-1.4339535-1.4339535-1.4339535h-3.5184939c-.5664299,0-1.0256145.4591846-1.0256145,1.0256145v1.2070031c0,.4177513.3386552.7564133.7564133.7564133Z"/>
    <path class="st2" d="M24.1072307,8.2120153h.0932991c.0603863,0,.1096305-.0483996.1106846-.1087724l.0135273-.7749339c.0010811-.0618863-.0487915-.1126373-.1106846-.1126373h-.7749002c-.0603931,0-.1096373.0483928-.1106913.1087724l-.0135273.7749339c-.0010811.0618863.0487915.1126373.1106913.1126373h.2387817v.5101856l.4428194.007115v-.5173006Z"/>
    <path class="st2" d="M25.7678034,8.2120153h.0952316c.0603863,0,.1096305-.0483996.1106846-.1087724l.0135273-.7749339c.0010811-.0618863-.0487915-.1126373-.1106846-.1126373h-.7749002c-.0603931,0-.1096373.0483928-.1106913.1087724l-.0135273.7749339c-.0010811.0618863.0487915.1126373.1106913.1126373h.1261443v.5350779l.5535242.0088921v-.54397Z"/>
    <path class="st2" d="M27.4283761,8.2085423c.0518388-.0085272.0923329-.0510888.0932788-.1052993l.0135273-.7749339c.0010811-.0618863-.0487915-.1126373-.1106846-.1126373h-.5534905c-.0603931,0-.1096373.0483928-.1106913.1087724l-.0135273.7749339c-.0010811.0618863.0487915.1126373.1106913.1126373h.1280768v.5635244l.4428194.007115v-.5741125Z"/>
    <path class="st2" d="M28.978244,8.433425h.0894342c.0603863,0,.1096305-.0483996.1106846-.1087724l.0135273-.7749339c.0010811-.0618863-.0487915-.1126373-.1106846-.1126373h-.5534905c-.0603931,0-.1096373.0483928-.1106913.1087724l-.0135273.7749339c-.0010811.0618863.0487915.1126373.1106913.1126373h.1319417v.3687842l.3321145.0053379v-.3741221Z"/>
    <path class="st2" d="M25.1732987,17.1189785l-1.4936911.0908396.1205158-.6344853-.4634211.0270681-.1207321.6356069-12.0673893.7338656c-.1220564.0074191-.2149839.1123806-.2075648.234437l.0052839.0868868c.0074191.1220564.1123873.2149839.2344437.2075648l14.4210024-.934187.4674009-1.123765-.6910607.0403589-.2047878.6358096Z"/>
    <path class="st1" d="M23.0555346,10.3045153c-3.0433698.0166152-6.6416828.0345818-10.0741412.047609v5.6155413l10.0741412-.5009219v-5.1622284Z"/>
    <path class="st1" d="M23.0555346,8.7152751c-.7023852-.0021149-1.457981-.0037636-2.2694494-.0047501v-.2116798c0-1.0592165-.4865432-2.0045388-1.2480309-2.6255306l.6391543,1.9512338v2.214097h-6.8899714v-4.4281939l6.1962079.2199502c-.5747409-.4494817-1.2977414-.718122-2.0839323-.718122h-4.4181194v5.0184418c3.432499-.0130273,7.0308525-.0309871,10.0741412-.0475955v-1.3678508Z"/>
    <path class="st1" d="M13.2872372,10.0386453h6.8899714v-2.214097l-.6391543-1.9512338c-.0179395-.0146287-.0363723-.0286492-.0546092-.042913l-6.1962079-.2199502v4.4281939ZM13.700975,7.0235328c0-.5664299.4591846-1.0256145,1.0256145-1.0256145h3.5184939c.7919478,0,1.4339535.6419989,1.4339535,1.4339535v.7986641c0,.4177513-.3386552.7564133-.7564133.7564133h-4.4652352c-.4177581,0-.7564133-.338662-.7564133-.7564133v-1.2070031Z"/>
    <path class="st1" d="M30.3621627,9.9325351c-.0451901-1.0839129-.5472538-1.1116432-.5529296-1.1116432l-.8309891-.0133449v.4008118h-.3321145v-.4061498l-1.2177533-.0195544v.536409h-.4428194v-.543524l-1.2177533-.0195544v.5630785h-.5535242v-.5719705l-1.1070485-.0177774v.4790431h-.4428194v-.4861581l-.387467-.0062231v1.3659386c3.5584473-.0195206,6.3177373-.0369196,7.0896644-.0418724-.0014865-.0359196-.002919-.0708325-.004446-.1075088Z"/>
    <rect class="st1" x="23.664397" y="8.7257584" width=".442848" height=".4826006"/>
    <polygon class="st1" points="25.7678034 9.3190638 25.7678034 8.7559853 25.2142792 8.7470933 25.2142792 9.3190638 25.7678034 9.3190638"/>
    <rect class="st1" x="26.9855425" y="8.7790973" width=".442848" height=".5399665"/>
    <rect class="st1" x="28.6461187" y="8.8048782" width=".332136" height=".4034808"/>
    <path class="st1" d="M12.7599838,10.3529555c-2.8479944.0106556-5.5699525.0178044-7.7493394.0178044-1.3898107,0-2.682052.9273153-3.2338465,1.3233229-.0505415.036271-.0955154.0685419-.1344891.0958397-1.0567232.73969-1.2839776,1.3780064-1.287106,1.3839187-.2155717.4073592-.3552028,1.2947008-.3552028,1.2947008.5095572-.6228026,1.6864381-1.8241705,3.4367761-2.213151,2.4477231-.5439565,3.8098036.0543794,4.4038691.4594143,1.4074259.9596132,1.9808154,2.3656134,2.2142186,3.3983767l2.70512-.1345094v-5.6257171Z"/>
    <path class="st1" d="M1.5153334,11.6085136c.0383791-.0268654.0826503-.0586498.1323809-.0943262.5690921-.4083863,1.9018747-1.3648373,3.36293-1.3648373,2.1793395,0,4.9013247-.0071488,7.7493394-.0177976v-5.0192729h-2.5229948c-1.1439208,0-2.0712564.9273355-2.0712564,2.0712564l-.2722958,2.2398745c-1.1961718-.0070339-3.5444606-.0042095-4.266603.1170631-.9692282.1627667-2.214097.7749339-2.8783261,1.9926873-.3292429.603613-.4880027,1.0266483-.5982954,1.556591.0387305-.1028601.313202-.7449063,1.365121-1.4812382ZM9.3706073,5.7274401h3.1399933v3.788114h-3.1399933v-3.788114Z"/>
    <path class="st1" d="M12.5106006,5.7274401h-3.1399933v3.788114h3.1399933v-3.788114ZM12.261812,8.23209c0,.323459-.203835.5985994-.489746.7060475-.1576585.0145206-.3150061.0309128-.4707862.0488118h-.7201153c-.4169,0-.7548592-.337966-.7548592-.7548592v-1.2579028c0-.4169.3379593-.7548592.7548592-.7548592h.9257882c.4169,0,.7548592.3379593.7548592.7548592v1.2579028Z"/>
    <circle class="st2" cx="4.2357105" cy="17.1237556" r="1.7712776"/>
    <circle class="st2" cx="32.1333322" cy="15.5738877" r="1.3284582"/>
    <path class="st2" d="M32.0226273,18.5629186c.01248,0,.0245275-.001669.0369602-.0018649-.2747148-.0066758-.5402807-.0499131-.7918059-.1259011.2369708.081434.4902392.127766.7548457.127766Z"/>
    <path class="st1" d="M30.4651715,12.8304359c-.0101488-.4196568-.033879-1.2041112-.0894747-2.569043-.7601566.004865-3.526494.022318-7.0987524.041913v5.1524242l5.671664-.2820122c.12357-.9930463.6997298-1.8455425,1.5165632-2.3432819Z"/>
    <path class="st1" d="M30.5833562,9.9233458c.0602647,1.4459334.0877247,2.3045109.1002655,2.7863108.296803-.1505299.6196742-.2570793.960674-.3091952l.0871841-2.0453437c.0362237-.7969681-.7469807-1.540692-1.5448205-1.5856456.183186.1669762.3693653.4978407.3966969,1.1538737Z"/>
    <path class="st1" d="M28.9228916,15.5738877c0-.059589.0019122-.1187253.005115-.177517l-18.8273176.9361668c.0938194.4902325.1109751.8706588.1132117,1.0363241l13.1228016-.7664608.1255092-.6607763.4423261.0840151-.1044142.5496931,1.577963-.0921639.1798278-.5582946.640803.2064026-.1295701.3115331,2.9306784-.1711722c-.049832-.2247341-.0769339-.4580156-.0769339-.69775Z"/>
    <polygon class="st1" points="23.9045376 16.0256397 23.4622114 15.9416246 23.3367023 16.6024009 23.8001234 16.5753328 23.9045376 16.0256397"/>
    <polygon class="st1" points="25.5579142 15.9248742 25.3780864 16.4831689 26.0691471 16.44281 26.1987172 16.1312769 25.5579142 15.9248742"/>
    <path class="st1" d="M9.8315419,16.1242903c-.2293558-.9882827-.7827652-2.3177746-2.1156559-3.2265625-1.3642967-.9301802-3.4134716-.6080118-4.231109-.4262245C1.5888889,12.8928493.3605678,14.3516478.0064799,14.8222245c.0278586.6104578.1331512.9733094.1331512.9733094l.1661046-.0000203c.5028003-1.7268848,2.096142-2.9892471,3.9853272-2.9892471,2.2927742,0,4.1514318,1.8586576,4.1514318,4.1514318,0,.188855-.0137908.3743924-.038217.5565648l1.5884429-.1324823c-.0013176-.1506516-.0161625-.536132-.114509-1.0381823l-.0466698-.2193083Z"/>
    <path class="st3" d="M4.2910629,13.0276762c-2.170488,0-3.9300221,1.7595273-3.9300221,3.9300221,0,2.170488,1.7595341,3.9300221,3.9300221,3.9300221s3.9300221-1.7595341,3.9300221-3.9300221c0-2.1704948-1.7595341-3.9300221-3.9300221-3.9300221ZM4.2357105,19.4485574c-1.40623,0-2.5462115-1.1399816-2.5462115-2.5462115,0-1.4062367,1.1399816-2.5462115,2.5462115-2.5462115,1.4062367,0,2.5462115,1.1399748,2.5462115,2.5462115,0,1.40623-1.1399748,2.5462115-2.5462115,2.5462115Z"/>
    <path class="st3" d="M4.2357105,14.3561344c-1.40623,0-2.5462115,1.1399748-2.5462115,2.5462115,0,1.40623,1.1399816,2.5462115,2.5462115,2.5462115,1.4062367,0,2.5462115-1.1399816,2.5462115-2.5462115,0-1.4062367-1.1399748-2.5462115-2.5462115-2.5462115ZM4.2357105,18.8950332c-.9782487,0-1.7712776-.7930289-1.7712776-1.7712776s.7930289-1.7712776,1.7712776-1.7712776,1.7712776.7930289,1.7712776,1.7712776-.7930289,1.7712776-1.7712776,1.7712776Z"/>
    <path class="st3" d="M32.1333322,12.5848568c-1.6507955,0-2.9890309,1.3382354-2.9890309,2.9890309,0,1.3497424.8948349,2.4900685,2.1234803,2.8612649-.9128961-.3136953-1.5699561-1.1776917-1.5699561-2.1970358,0-1.2839573,1.0408513-2.3248018,2.3248018-2.3248018,1.2839573,0,2.3248018,1.0408445,2.3248018,2.3248018,0,1.2714706-1.0211211,2.3029838-2.2878416,2.3229369.0245883.0005946.0490145.0018649.0737447.0018649,1.6507955,0,2.9890309-1.3382354,2.9890309-2.9890309s-1.3382354-2.9890309-2.9890309-2.9890309Z"/>
    <path class="st3" d="M34.3474291,16.2381168c0-1.2839573-1.0408445-2.3248018-2.3248018-2.3248018-1.2839506,0-2.3248018,1.0408445-2.3248018,2.3248018,0,1.0193441.65706,1.8833406,1.5699561,2.1970358.2515251.075988.5170911.1192253.7918059.1259011,1.2667205-.0199531,2.2878416-1.0514663,2.2878416-2.3229369ZM32.1333322,16.9023459c-.7336899,0-1.3284582-.594775-1.3284582-1.3284582,0-.7336899.5947683-1.3284582,1.3284582-1.3284582s1.3284582.5947683,1.3284582,1.3284582c0,.7336831-.5947683,1.3284582-1.3284582,1.3284582Z"/>
  </g>
</svg>