<?xml version="1.0" encoding="UTF-8"?>
<svg xmlns="http://www.w3.org/2000/svg" version="1.1" viewBox="0 0 80 26">
  <defs>
    <style>
      .cls-1 {
        fill: #6f6e6f;
      }

      .cls-2 {
        fill: #706e6f;
      }

      .cls-3 {
        fill: #fff;
      }

      .cls-4 {
        fill: #a2a2a2;
      }

      .cls-5 {
        fill: #595757;
      }
    </style>
  </defs>
  <!-- Generator: Adobe Illustrator 28.7.1, SVG Export Plug-In . SVG Version: 1.2.0 Build 142)  -->
  <g>
    <g id="_レイヤー_1" data-name="レイヤー_1">
      <g>
        <g>
          <path class="cls-5" d="M29.1823147,7.4018555h3.8066406c3.2001953,0,5.171875,1.9863281,5.171875,5.3447266,0,3.6435547-1.9414062,5.8398438-5.2949219,5.8398438h-3.6835938V7.4018555ZM31.1666897,17.0141602h1.6630859c2.1757812,0,3.2861328-1.5722656,3.2861328-4.2294922,0-2.3007812-1.1337891-3.7880859-3.2695312-3.7880859h-1.6796875v8.0175781Z"/>
          <path class="cls-5" d="M48.3112209,12.9360352c0,3.2167969-1.5341797,5.8134766-4.9736328,5.8134766-3.3261719,0-4.8291016-2.5888672-4.8291016-5.8271484,0-2.8144531,1.5126953-5.671875,4.9775391-5.671875,3.2802734,0,4.8251953,2.6015625,4.8251953,5.6855469ZM40.5534084,12.9194336c0,2.3662109.9492188,4.2363281,2.8730469,4.2363281,2.0644531,0,2.8603516-1.7773438,2.8603516-4.2148438,0-2.2294922-.7988281-4.0966797-2.8857422-4.0966797-1.9951172,0-2.8476562,1.8125-2.8476562,4.0751953Z"/>
          <path class="cls-5" d="M51.0729397,7.4018555v7.1162109c0,1.4365234.4521484,2.6328125,2.2636719,2.6328125,1.7998047,0,2.2148438-1.1425781,2.2148438-2.6376953v-7.1113281h1.9990234v7.1650391c0,2.3476562-.9882812,4.1826172-4.2578125,4.1826172-3.15625,0-4.203125-1.6835938-4.203125-4.1435547v-7.2041016h1.9833984Z"/>
          <path class="cls-5" d="M61.6969631,15.152832c0,2.1933594-.6953125,3.5800781-3.1035156,3.5800781-.5673828,0-.9697266-.0546875-1.2138672-.1035156v-1.578125c.2363281.0380859.6074219.0537109.9443359.0537109,1.2060547,0,1.4003906-.7744141,1.4003906-1.8984375v-7.8046875h1.9726562v7.7509766Z"/>
          <path class="cls-5" d="M64.8688381,7.4018555v11.1845703h-1.9736328V7.4018555h1.9736328Z"/>
          <path class="cls-5" d="M66.2819241,18.5864258V7.4018555h2.5439453c3.7109375,7.2001953,4.2714844,8.2929688,4.453125,8.8105469h.0283203c-.109375-1.3837891-.1259766-3.2021484-.1259766-5.0253906v-3.7851562h1.8183594v11.1845703h-2.4199219c-3.9775391-7.8740234-4.3603516-8.7001953-4.5507812-9.1367188h-.0166016c.0820312,1.4248047.0830078,3.3378906.0830078,5.3388672v3.7978516h-1.8134766Z"/>
        </g>
        <g>
          <path class="cls-5" d="M20.7538641,23.7001005l-6.8497042,2.2998995h-1.1999487l-6.9663669-2.2998995v-5.1664446c.5099506-.539607,1.121684-.9729188,1.7999223-1.274944,2.0165798-.5583093,4.0914902-.9666249,6.1247363-1.4582705l2.7998798.7416342,2.0832435.5499762c.835122.1623068,1.6034929.5682398,2.2082378,1.1666161v5.4414327Z"/>
          <path class="cls-3" d="M13.2461669,20.3087103c-.0740528,0-.1464781-.0398746-.1839113-.1102654-.0537086-.1017209-.0154616-.2278548.0862593-.2819703l.1424092-.0760872c2.1507862-1.1474115,4.5896459-2.4461836,7.1627772-1.6987386.1106723.0321438.1741461.1476987.1424092.258371-.0325507.1110792-.1521744.1737393-.2579641.1420023-2.4152605-.7022809-4.7719297.5562097-6.8511044,1.6661879l-.143223.0760872c-.0309231.0166822-.0642876.024413-.097652.024413Z"/>
          <path class="cls-4" d="M17.1123537,14.8921472v1.8582528c0,.2666549-1.0416218.4999788-1.2332798.5583093-1.3866876.3061735-2.8154097.3738067-4.2248176.1999912-.8519886-.1076286-1.6900407-.3059684-2.4998922-.5916404v-2.024913"/>
          <path class="cls-2" d="M17.1123537,14.9004803c0,.3916492-1.2749456.7749668-1.5582669.8332974-1.5841214.2181595-3.1906723.2181595-4.7747938,0-.40034-.0388399-.7916141-.1429909-1.1582837-.3083207-.2333231-.1166611-.6666381-.4416482-.3666505-.7083031.0789441-.0620338.1696617-.1073934.2666549-.1333275.5259907-.158505,1.0683783-.2563573,1.6165974-.2916544.9974447-.086992,1.9993254-.1120392,2.999871-.0749969.5055337,0,1.0110674.0416658,1.516601.1249943.4602822.0039274.9124951.1212751,1.3166098.3416518.0803849.0440896.1335102.1253392.1416606.2166591Z"/>
          <ellipse class="cls-5" cx="13.1125268" cy="15.0004767" rx="3.3581891" ry=".4416482"/>
          <path class="cls-4" d="M20.695532,3.4343077c-.1838001.5978374-.5659114,1.1151568-1.083286,1.4666036-.4263392.1443697-.8827846.1759477-1.324943.0916624-.5693333-.0386802-1.1398666.0554577-1.6665948.2749881-1.4166062.9499593-2.3165674,2.5998878-3.1748627,4.041492-.3110974.5166443-.6083067,1.0416218-.891628,1.5749324l-.158327.2833212c-.2404101.4282997-.454682.8707569-.6416394,1.3249422.0999956.0583306.2249907,0,.2999868-.0833301l2.499893-2.0332461,1.9582492-1.5665992c.3249855-.4416474.7249694-1.2499461,1.3999399-1.1166187l.1166611.1499938c0,.6833036-.8999611.891628-1.3999399,1.1166187l-1.9415829,1.574934-2.4998922,2.0332461c-.0833301.0666637-.191658.1666601-.1499938.2749881.4840292-.082165.9626562-.1934731,1.433271-.3333186l.3083207-.0916632c.5555311-.1611052,1.1332834-.3360969,1.7332586-.5249767,1.5999311-.5249775,3.3998534-1.0499549,4.6414663-2.216571.3205002-.4738619.5259446-1.0160056.5999752-1.5832664.014953-.4510471.147055-.8904343.383316-1.2749448.4565106-.4260356,1.0440726-.6845632,1.6665948-.7333018"/>
          <rect class="cls-5" x="20.6267184" y="2.9949386" width="1.3082767" height="4.1581538" transform="translate(1.5050334 14.430153) rotate(-38.7299948)"/>
          <g>
            <path class="cls-1" d="M25.7802641,4.4374564c.3101978-.1788253.6135803-.3704166.906689-.5781815L23.6370561.0510997c-.2673733.2405699-.5211669.4946686-.7639746.7582783l2.9071826,3.6280785Z"/>
            <path class="cls-1" d="M22.6801169,1.0351983c-.6839712.7823861-1.2672895,1.6496583-1.717913,2.5907798l1.6499126,2.0582202c1.0173105-.2333985,1.9917456-.6123088,2.9054534-1.1079946l-2.837453-3.5410054Z"/>
          </g>
          <path class="cls-5" d="M12.88755,2.0593749c-.6532515-.099127-1.3194723.0592524-1.8582878.4416212-.6280755.4581-1.0704596,1.1228967-1.2613897,1.8749192-.1908792-.7520224-.6333142-1.4168192-1.2613897-1.8749192-.5388155-.3823688-1.2050364-.5407482-1.858237-.4416212-1.4832938.2832926-1.8832603,1.8665781-1.5249485,3.0581873,0,.0833603.0277698.1666697.0833094.2499791.7597024,1.915811,2.9173038,3.1522282,4.5375648,4.3665212.0005086.0082394.0013224.0167331.001831.0249725v.0083411c.0070187-.0052895.0148004-.0106807.02187-.0159702.0070696.0052895.0148512.0106807.02187.0159702v-.0083411c.0005086-.0082394.0013224-.0167331.001831-.0249725,1.620261-1.214293,3.7778625-2.4507102,4.5375648-4.3665212.0555396-.0833094.0833094-.1666188.0833094-.2499791.3583626-1.1916092-.0416547-2.7748946-1.5248976-3.0581873Z"/>
          <path class="cls-3" d="M6.4878117,5.0092401l-.1333275-.641639c-.0545502-.3002097-.0107101-.6100086.1249943-.8832952l.1666593-.291654-.583308-.2249903c-.1322618.1936765-.2546352.3939244-.3666505.5999744-.1556091.3236881-.2162852.6848533-.1749925,1.0416214.0488522.2404272.1301479.4731018.2416562.6916372l.7249687-.2916544Z"/>
        </g>
      </g>
    </g>
  </g>
</svg>