<?xml version="1.0" encoding="UTF-8"?>
<svg xmlns="http://www.w3.org/2000/svg" version="1.1" viewBox="0 0 80 26">
  <defs>
    <style>
      .cls-1 {
        fill: #6f6e6f;
      }

      .cls-2 {
        fill: #595758;
      }

      .cls-3 {
        fill: #595757;
      }

      .cls-4 {
        fill: #999;
      }
    </style>
  </defs>
  <!-- Generator: Adobe Illustrator 28.7.1, SVG Export Plug-In . SVG Version: 1.2.0 Build 142)  -->
  <g>
    <g id="_レイヤー_1" data-name="レイヤー_1">
      <g>
        <g>
          <path class="cls-3" d="M41.0412308,15.6796875l-.8916016,2.9130859h-1.9492188c.3652344-1.0859375,3.0869141-9.9541016,3.4951172-11.1855469h2.5410156l3.6640625,11.1855469h-2.0820312l-.9423828-2.9130859h-3.8349609ZM44.467012,14.0283203c-.78125-2.4765625-1.3046875-4.0996094-1.5458984-5.0917969h-.0214844c-.2841797,1.2705078-.8164062,3.0078125-1.4658203,5.0917969h3.0332031Z"/>
          <path class="cls-3" d="M50.4142776,13.8115234v4.78125h-1.9433594V7.4072266h4.3515625c2.0644531,0,3.53125,1.0244141,3.53125,2.9765625,0,1.5566406-.8574219,2.2841797-1.7724609,2.6152344,1.1298828.4101562,1.5625,1.3017578,1.5625,2.7363281v.2597656c0,1.0068359.0458984,1.9589844.1513672,2.5976562h-1.9150391c-.1572266-.4628906-.2011719-1.3125-.2011719-2.6171875v-.2695312c0-1.3847656-.5029297-1.8945312-2.0947266-1.8945312h-1.6699219ZM50.4142776,12.2275391h1.8261719c1.2119141,0,2.1435547-.3339844,2.1435547-1.6835938,0-1.0908203-.7666016-1.5527344-1.8242188-1.5527344h-2.1455078v3.2363281Z"/>
          <path class="cls-3" d="M57.232637,7.4072266h1.9394531v5.3183594c1.2109375-1.4882812,3.0869141-3.7578125,4.3466797-5.3183594h2.3623047l-3.9404297,4.5488281,4.1787109,6.6367188h-2.3632812l-3.1728516-5.3300781-1.3994141,1.5039062v3.8261719h-1.9511719V7.4072266Z"/>
        </g>
        <g>
          <g>
            <path class="cls-4" d="M23.9490404,4.8309308c.0591265-.0295633.1292337-.0287186.1883602-.0008447l.4502062.2162341,4.446789,2.1670395v-1.6950832l-4.5409163-2.1796039-.4497838-.2162341-4.9820423,2.395838v1.6948193l4.8873871-2.382165Z"/>
            <polygon class="cls-4" points="24.0444875 5.2655106 19.0616533 7.693921 19.0616533 9.7651439 29.0343957 9.7651439 29.0343957 7.6945017 24.0444875 5.2655106"/>
          </g>
          <path class="cls-3" d="M18.5871103,21.7989732c-.2863413,0-.5709932-.0122476-.8548005-.0392769-.7821593-.0701072-1.5685419-.2065205-2.32874-.3382881-.3860117-.0671508-.7720233-.1338793-1.155501-.1921612-.2356614-.0354759-.3986816-.2559333-.3623611-.4920171.0354759-.2365061.2576227-.4024826.4924394-.3627834.3893903.0587042.78047.1266997,1.1740836.1946952.7424601.1292337,1.5102601.2622683,2.2594775.3294191,1.5972605.1511949,3.3060168-.2149671,4.9564912-.5688815.5515659-.118253,1.0989085-.2356614,1.6386491-.3336425,3.4115998-.6824889,7.0048026-.6009788,10.3876838.23904.2322827.0574372.3733417.2922539.3159045.5241143-.0574372.2314381-.2897199.3729194-.523692.3154822-3.2604049-.8091886-6.7235293-.8877424-10.0177208-.2293264-.5380513.0979811-1.0769472.2137001-1.6192218.3302638-1.432551.3070355-2.9064905.6233624-4.3626921.6233624Z"/>
          <path class="cls-3" d="M18.5871103,23.840105c-.2854966,0-.5709932-.0122476-.8548005-.0392769-.7846933-.0696848-1.5727653-.2065205-2.3346526-.3391328-.385167-.0667285-.7678-.133457-1.1495884-.1913165-.2356614-.0354759-.3986816-.2559333-.3623611-.4924394.0354759-.2365061.2610013-.3961476.4924394-.3623611.3868563.0587042.7762467.1262773,1.1673263.1938505.7449941.129656,1.5144834.263113,2.2662348.3302638,1.5972605.1499279,3.3060168-.2149671,4.9564912-.5688815.5515659-.118253,1.0989085-.2356614,1.6386491-.3336425,3.4115998-.6829112,7.0064919-.6005564,10.3876838.23904.2322827.0574372.3733417.2922539.3159045.5241143-.0574372.2314381-.2897199.3729194-.523692.3154822-3.2587156-.8079216-6.72184-.8877424-10.0177208-.2293264-.5380513.0979811-1.0769472.2137001-1.6192218.3302638-1.432551.3070355-2.9064905.6233624-4.3626921.6233624Z"/>
          <path class="cls-3" d="M18.5871103,25.9158679c-.2854966,0-.5709932-.0122476-.8548005-.0392769-.7846933-.0696848-1.5727653-.2065205-2.3346526-.3391328-.385167-.0667285-.7678-.133457-1.1495884-.1913165-.2356614-.0354759-.3986816-.2559333-.3623611-.4924394.0354759-.2360837.2610013-.397837.4924394-.3623611.3868563.0587042.7762467.1262773,1.1673263.1938505.7449941.129656,1.5144834.263113,2.2662348.3302638,1.5972605.1490833,3.3060168-.2153894,4.9564912-.5688815.5515659-.118253,1.0989085-.2356614,1.6386491-.3336425,3.4115998-.6829112,7.0048026-.6005564,10.3876838.23904.2322827.0574372.3733417.2922539.3159045.5241143-.0574372.2314381-.2897199.372497-.523692.3154822-3.2604049-.8083439-6.7235293-.8881647-10.0177208-.2293264-.5380513.0979811-1.0769472.2137001-1.6192218.3302638-1.432551.3070355-2.9064905.6233624-4.3626921.6233624Z"/>
          <polygon class="cls-1" points="15.9997826 1.7904184 14.460196 1.3665997 15.0570018 2.845641 14.1747666 4.1776431 15.7662502 4.0652013 16.7609268 5.3107094 17.150148 3.7624736 18.6378389 3.2002648 17.2885377 2.3612767 17.2193429 .7697935 15.9997826 1.7904184"/>
          <polygon class="cls-1" points="28.95653 1.141716 28.1002431 1.9028602 29.2246614 2.1277439 29.6830767 3.1829661 30.2452851 2.17964 31.3870025 2.0671982 30.5999089 1.22821 30.8507412 .1037925 29.8128168 .5881568 28.8267898 0 28.95653 1.141716"/>
          <polygon class="cls-1" points="30.4528712 6.7205558 29.5965827 7.4817 30.7210011 7.7065837 31.1794163 8.7531568 31.7329768 7.7498307 32.8746926 7.6460384 32.0962501 6.8070498 32.3470808 5.6826323 31.3091581 6.1669971 30.3144799 5.57884 30.4528712 6.7205558"/>
          <g>
            <path class="cls-2" d="M18.1107195,13.4110326l5.8383209-2.8456746c.0599712-.0299856.130923-.0291409.1908942.0008447l.4502062.2251031,5.3948721,2.6193046c.0010558.0005279.0011086.0019005.0021645.0024284l1.2527958-2.4975673-6.7464936-3.5116398-.4497838-.2334969-7.1876196,3.7451367,1.2527958,2.4976201c.0008975-.0004223.0009502-.0016365.0018477-.0020589Z"/>
            <path class="cls-2" d="M29.7958079,13.8000006l-5.7530098-2.7992181-5.7428738,2.7987958c-.0158903.0078659-.0328363-.0005279-.0495185.0030619l1.5983692,6.9991011.0951303.4757045,1.4271134-.2248919,1.8769501-.389232,1.946107-.3719163,1.7557935-.2248919,1.4790603-.0864725,1.4146546-6.1691654c-.0159958-.003537-.032414-.0034314-.0477763-.0108751Z"/>
          </g>
        </g>
      </g>
    </g>
  </g>
</svg>