<?xml version="1.0" encoding="UTF-8"?>
<svg xmlns="http://www.w3.org/2000/svg" version="1.1" viewBox="0 0 80 26">
  <defs>
    <style>
      .cls-1 {
        fill: #6f6e6f;
      }

      .cls-2 {
        fill: #7b7a7b;
      }

      .cls-3 {
        fill: #fff;
      }

      .cls-4 {
        fill: #a2a2a2;
      }

      .cls-5 {
        fill: #595757;
      }
    </style>
  </defs>
  <!-- Generator: Adobe Illustrator 28.7.1, SVG Export Plug-In . SVG Version: 1.2.0 Build 142)  -->
  <g>
    <g id="_レイヤー_1" data-name="レイヤー_1">
      <g>
        <path class="cls-5" d="M40.3450883,13.8254395c0-1.3359375.0185547-2.855957.0517578-3.6958008h-.0498047c-.3466797,1.5092773-1.2607422,4.5112305-1.9667969,6.6821289h-1.1855469c-.5263672-1.8242188-1.4619141-5.1811523-1.7949219-6.7006836h-.0537109c.0634766.8886719.09375,2.5581055.09375,3.871582v2.8291016h-1.2451172v-7.6313477h2.0166016c.6318359,1.9453125,1.4306641,4.7612305,1.6601562,5.8823242h.0146484c.1601562-.9013672,1.1552734-3.9179688,1.8154297-5.8823242h1.9462891v7.6313477h-1.3027344v-2.9863281Z"/>
        <path class="cls-5" d="M43.6956742,14.8244629l-.6083984,1.9873047h-1.3291016c.2490234-.7402344,2.1054688-6.7910156,2.3837891-7.6313477h1.7333984l2.5009766,7.6313477h-1.4208984l-.6435547-1.9873047h-2.6162109ZM46.0335649,13.6984863c-.5332031-1.6899414-.890625-2.7973633-1.0546875-3.4741211h-.0146484c-.1943359.8662109-.5576172,2.0512695-1.0009766,3.4741211h2.0703125Z"/>
        <path class="cls-5" d="M54.1038774,16.8117676h-1.0039062c-.0488281-.2392578-.0869141-.5810547-.1064453-.9589844-.3945312.7988281-1.1552734,1.0703125-2.15625,1.0703125-1.9951172,0-3.0185547-1.6777344-3.0185547-3.8857422,0-2.1972656,1.2089844-3.9604492,3.4179688-3.9604492,1.7490234,0,2.6806641.9648438,2.8808594,2.2631836h-1.3222656c-.1728516-.5991211-.5673828-1.1679688-1.6318359-1.1679688-1.4121094,0-1.9570312,1.3129883-1.9570312,2.8730469,0,1.5126953.5537109,2.7900391,1.9160156,2.7900391,1.3154297,0,1.6455078-.9140625,1.6455078-2.0410156v-.0400391h-1.7255859v-1.152832h3.0615234v4.2104492Z"/>
        <path class="cls-5" d="M56.2620805,14.8244629l-.6083984,1.9873047h-1.3291016c.2490234-.7402344,2.1054688-6.7910156,2.3837891-7.6313477h1.7333984l2.5009766,7.6313477h-1.4208984l-.6435547-1.9873047h-2.6162109ZM58.5999711,13.6984863c-.5332031-1.6899414-.890625-2.7973633-1.0546875-3.4741211h-.0146484c-.1943359.8662109-.5576172,2.0512695-1.0009766,3.4741211h2.0703125Z"/>
        <path class="cls-5" d="M60.7718461,15.8283691l3.9345703-5.5249023h-3.7333984v-1.1230469h5.3134766v1.1030273l-3.8623047,5.4052734h4.046875l-.1787109,1.1230469h-5.5205078v-.9833984Z"/>
        <path class="cls-5" d="M68.1663774,9.1804199v7.6313477h-1.3466797v-7.6313477h1.3466797Z"/>
        <path class="cls-5" d="M68.6849321,16.8117676v-7.6313477h1.7353516c2.5322266,4.9125977,2.9140625,5.6577148,3.0390625,6.0112305h.0185547c-.0742188-.9433594-.0859375-2.1845703-.0859375-3.4287109v-2.5825195h1.2412109v7.6313477h-1.6513672c-2.7138672-5.3725586-2.9755859-5.9360352-3.1054688-6.2338867h-.0107422c.0556641.972168.0566406,2.2773438.0566406,3.6420898v2.5917969h-1.2373047Z"/>
        <path class="cls-5" d="M79.816768,13.3908691h-3.3564453v2.3056641h3.7011719l-.1669922,1.1152344h-4.8496094v-7.6313477h4.8183594v1.1230469h-3.5029297v1.9614258h3.3564453v1.1259766Z"/>
      </g>
      <g>
        <path class="cls-5" d="M1.600278,6.109274l-1.29.8900003v18.2799997c0-.2999992,1.6400003-1.3500004,1.9499998-1.5900002,2.1824417-1.8092003,4.95755-2.7461109,7.7900009-2.6300011,2.2299995.1800003,5.1100006,1,6.1499996,3.0900002h.4599991c1-2,3.9200001-2.9099998,6.1499996-3.0900002,2.8324509-.1161118,5.6075592.8208008,7.7900009,2.6300011.2999992.2299995,1.9500008,1.2900009,1.9500008,1.5900002V6.9992734l-1.2900009-.8900003"/>
        <g>
          <path class="cls-3" d="M1.600278,4.5992738l-1.2900004.9099998v18.2600002c0-.2999992,1.6399999-1.3500004,1.9500003-1.5900002,2.1824417-1.8092003,4.95755-2.7461109,7.7900009-2.6299992,2.2299995.1800003,5.1100006,1,6.1499996,3.0900002h.4599991c1-2,3.9200001-2.9099998,6.1499996-3.0900002,2.8324509-.1161118,5.6075592.8208008,7.7900009,2.6300011.2999992.2299995,1.9500008,1.2900009,1.9500008,1.5900002V5.5092736l-1.2900009-.8900003"/>
          <path class="cls-1" d="M.5521875,23.8165512l-.4921875-.0473633V5.3800278l1.3955078-.9848633.2890625.4082031-1.1845703.8354492v17.46875c.2597656-.215332.6396484-.4921875,1.1816406-.8671875.1650391-.1142578.2978516-.206543.3652344-.2587891,2.2275391-1.8461914,5.0693359-2.7949219,7.953125-2.6821289,1.1494141.0927734,4.9199219.5854492,6.2919922,3.0898438h.1582031c1.1054688-1.9921875,4.0527344-2.909668,6.2792969-3.0888672,2.9101562-.1289062,5.7353516.8339844,7.9697266,2.6865234.0556641.0419922.1787109.1274414.3339844.234375.5546875.3842773.9423828.6660156,1.2070312.8852539V5.64077l-1.1816406-.815918.2832031-.4111328,1.3984375.9643555v18.3911133h-.5c-.0927734-.168457-1.109375-.871582-1.4912109-1.1367188-.1640625-.1132812-.2949219-.2041016-.3613281-.2548828-2.1464844-1.7788086-4.8388672-2.6894531-7.6279297-2.578125-2.1376953.1723633-4.984375,1.0493164-5.9355469,2.9516602l-.0693359.1381836h-.7695312l-.0683594-.1386719c-1.1894531-2.390625-4.8525391-2.8637695-5.9472656-2.9521484-2.7382812-.1064453-5.4707031.800293-7.6103516,2.5732422-.078125.0605469-.2177734.1582031-.3935547.2797852-.3759766.2607422-1.375.953125-1.4736328,1.1650391Z"/>
        </g>
        <g>
          <path class="cls-3" d="M16.5002776,21.5092736V3.9692737c-1.4899998-1-2.7000008-2.1300001-4.6800003-2.5699997-1.8039589-.4073381-3.6760416-.4073386-5.4799995,0-1.7476597.5028334-3.3650427,1.3797684-4.7399998,2.5699997v17.4199991c1.3673782-1.2069092,2.9815655-2.1010265,4.7299995-2.6200008,1.8039579-.4073391,3.6760426-.4073391,5.4799995,0,2,.4400005,3.2000008,1.5200005,4.6800003,2.5699997"/>
          <path class="cls-1" d="M1.2250391,22.2208481V3.7979965l.1298828-.1123047c1.40625-1.2172852,3.09375-2.1328125,4.8818359-2.6469727,1.8681641-.4223633,3.8193359-.421875,5.6669922-.0053711,1.6357422.3642578,2.7880859,1.190918,3.9013672,1.9902344.2958984.2124023.59375.4262695.9042969.6342773l.1660156.1113281v17.7402344h-.5048828l-.0966797.1357422c-.2402344-.1704102-.4736328-.3413086-.703125-.5107422-1.1523438-.8466797-2.2412109-1.6469727-3.8408203-1.9990234-1.7421875-.3925781-3.5800781-.3930664-5.3164062-.0004883-1.6611328.4936523-3.2480469,1.3725586-4.5654297,2.5356445l-.6230469.550293ZM9.0775781,18.0914536c.9492188,0,1.8955078.1044922,2.8154297.3120117,1.7529297.3857422,2.9033203,1.2314453,4.1220703,2.1269531.0361328.0268555.0732422.0541992.1103516.0810547V4.1681137c-.2578125-.1767578-.5087891-.3564453-.7568359-.5351562-1.1015625-.7905273-2.1416016-1.5366211-3.6289062-1.8676758-1.7412109-.3920898-3.5791016-.3935547-5.3164062-.0004883-1.609375.4633789-3.1503906,1.2861328-4.4482422,2.3774414v16.4501953c1.2636719-.9799805,2.7177734-1.7285156,4.2490234-2.1826172.9384766-.2124023,1.8974609-.3183594,2.8535156-.3183594Z"/>
        </g>
        <path class="cls-4" d="M15.3402777,7.0292741c-1.0361805-.8216534-2.2364922-1.4115791-3.5200005-1.7299995-1.8039589-.4073381-3.6760416-.4073381-5.4799995,0-1.3968649.3674974-2.6992073,1.0288973-3.8199997,1.9400005v-2.3100014c1.1207924-.9111032,2.4231348-1.5725031,3.8199997-1.9400005,1.8039579-.4073381,3.6760426-.4073381,5.4799995,0,1.2835083.3184204,2.48382.9083462,3.5200005,1.7299995v2.3100014Z"/>
        <path class="cls-1" d="M2.5101953,8.4840317c-.0507812,0-.1015625-.0219727-.1357422-.0644531-.0605469-.0751953-.0498047-.1850586.0253906-.2460938,1.1484375-.9331055,2.4550781-1.597168,3.8857422-1.9736328.6914062-.1577148,1.3955078-.25,2.0986328-.2753906h1.0664062c.8115234.0390625,1.6152344.1479492,2.3974609.3237305,1.2861328.3173828,2.4619141.8901367,3.5009766,1.7036133.0751953.0595703.0888672.1694336.0292969.2456055-.0585938.0771484-.1689453.090332-.2460938.0297852-.9990234-.7827148-2.1308594-1.3339844-3.3642578-1.6381836-.7587891-.1708984-1.5429688-.2768555-2.3261719-.3149414h-1.0517578c-.6748047.0244141-1.3564453.1137695-2.0205078.265625-1.3769531.3623047-2.6396484,1.0039062-3.7490234,1.9052734-.0322266.0263672-.0712891.0390625-.1103516.0390625Z"/>
        <path class="cls-1" d="M15.2406641,10.2042465c-.0380859,0-.0761719-.0117188-.1074219-.0371094-1-.7827148-2.1328125-1.3339844-3.3652344-1.6381836-.7617188-.1708984-1.5458984-.2768555-2.3261719-.3149414-.0966797-.0048828-.1708984-.0869141-.1660156-.1831055.0048828-.0966797.0927734-.1621094.1835938-.1665039.7998047.0390625,1.6035156.1479492,2.3886719.3237305,1.2851562.3168945,2.4609375.8896484,3.5,1.7036133.0761719.0595703.0898438.1694336.0302734.2456055-.0341797.0439453-.0859375.0668945-.1376953.0668945Z"/>
        <path class="cls-1" d="M2.5101953,10.4239731c-.0507812,0-.1015625-.0219727-.1357422-.0644531-.0605469-.0751953-.0498047-.1850586.0253906-.2460938,1.1484375-.9331055,2.4550781-1.597168,3.8857422-1.9736328.6914062-.1577148,1.3955078-.25,2.0986328-.2753906.1035156-.0068359.1777344.0722656.1806641.168457.0039062.0966797-.0722656.1777344-.1689453.1811523-.6806641.0244141-1.3623047.1137695-2.0263672.265625-1.3769531.3623047-2.6396484,1.0039062-3.7490234,1.9052734-.0322266.0263672-.0712891.0390625-.1103516.0390625Z"/>
        <path class="cls-1" d="M15.2406641,12.0040512c-.0380859,0-.0761719-.0117188-.1074219-.0371094-1.0009766-.7832031-2.1328125-1.3339844-3.3652344-1.6376953-.7587891-.1708984-1.5429688-.2768555-2.3261719-.3149414-.0966797-.0048828-.1708984-.0869141-.1660156-.1831055.0048828-.0966797.0927734-.159668.1835938-.1665039.8027344.0390625,1.6064453.1479492,2.3886719.3237305,1.2841797.3164062,2.4609375.8891602,3.5,1.703125.0761719.0595703.0898438.1694336.0302734.2456055-.0341797.0439453-.0859375.0668945-.1376953.0668945Z"/>
        <path class="cls-1" d="M2.5101953,12.2340317c-.0507812,0-.1015625-.0219727-.1357422-.0644531-.0605469-.0751953-.0498047-.1850586.0253906-.2460938,1.1484375-.9331055,2.4550781-1.597168,3.8857422-1.9736328.6914062-.1577148,1.3955078-.25,2.0986328-.2753906.1035156.0014648.1777344.0722656.1806641.168457.0039062.0966797-.0722656.1777344-.1689453.1811523-.6806641.0244141-1.3623047.1137695-2.0263672.265625-1.3769531.3623047-2.6396484,1.0039062-3.7490234,1.9052734-.0322266.0263672-.0712891.0390625-.1103516.0390625Z"/>
        <path class="cls-1" d="M15.2504297,13.934227c-.0380859,0-.0761719-.0117188-.1074219-.0371094-1.0009766-.7832031-2.1318359-1.3339844-3.3642578-1.6376953-.7617188-.1708984-1.5458984-.2773438-2.3271484-.3154297-.0966797-.0048828-.1708984-.0869141-.1660156-.1831055.0048828-.0966797.0830078-.159668.1835938-.1665039.8007812.0390625,1.6044922.1479492,2.3896484.3242188,1.2841797.3164062,2.4599609.8891602,3.4990234,1.703125.0761719.0595703.0898438.1694336.0302734.2456055-.0341797.0439453-.0859375.0668945-.1376953.0668945Z"/>
        <path class="cls-1" d="M15.2504297,15.9142075c-.0380859,0-.0761719-.0117188-.1074219-.0371094-1.0009766-.7832031-2.1318359-1.3339844-3.3642578-1.6376953-.7617188-.1708984-1.5458984-.2773438-2.3271484-.3154297-.0966797-.0048828-.1708984-.0869141-.1660156-.1831055.0048828-.0966797.0830078-.1616211.1835938-.1665039.8007812.0390625,1.6044922.1479492,2.3896484.3242188,1.2841797.3164062,2.4599609.8891602,3.4990234,1.703125.0761719.0595703.0898438.1694336.0302734.2456055-.0341797.0439453-.0859375.0668945-.1376953.0668945Z"/>
        <path class="cls-1" d="M15.2504297,17.9039536c-.0380859,0-.0761719-.0117188-.1074219-.0371094-1.0009766-.7832031-2.1318359-1.3339844-3.3642578-1.6376953-.7597656-.1708984-1.5439453-.2768555-2.3271484-.3149414-.0966797-.0048828-.1708984-.0869141-.1660156-.1831055.0048828-.0966797.0830078-.1738281.1835938-.1665039.8027344.0390625,1.6064453.1479492,2.3896484.3237305,1.2841797.3164062,2.4599609.8891602,3.4990234,1.703125.0761719.0595703.0898438.1694336.0302734.2456055-.0341797.0439453-.0859375.0668945-.1376953.0668945Z"/>
        <path class="cls-2" d="M2.5102778,19.149273c1.1719093-.8752651,2.5086927-1.5045395,3.9300003-1.8500004.6582994-.1437588,1.3271456-.2340527,2-.2700005v-5.5199986c-.5717688.0438919-1.139801.1274261-1.6999998.25-1.5196543.3705578-2.9462156,1.0514946-4.1899996,2v5.3899994h-.0400009Z"/>
        <g>
          <path class="cls-3" d="M16.5002776,21.5092736V3.9692737c1.4899998-1,2.7000008-2.1300001,4.6800003-2.5699997,1.8039589-.4073386,3.6760426-.4073386,5.4800014,0,1.7484322.5189738,3.3626213,1.4130907,4.7299995,2.6199999v17.3699989c-1.3673782-1.2069092-2.9815636-2.1010265-4.7299995-2.6200008-1.8039589-.4073391-3.6760426-.4073391-5.4799995,0-2,.4400005-3.2000008,1.5200005-4.6800003,2.5699997"/>
          <path class="cls-1" d="M31.7650781,22.2208481l-.6230469-.550293c-1.3173828-1.1625977-2.9033203-2.0415039-4.5878906-2.5419922-1.7177734-.3876953-3.5556641-.3862305-5.2910156.0063477-1.6035156.3525391-2.6923828,1.1533203-3.8447266,2.0009766-.2294922.168457-.4609375.3393555-.7011719.5092773l-.0957031-.1357422h-.4960938V3.7691879l.1660156-.1113281c.3105469-.2080078.6083984-.421875.9042969-.6342773,1.1132812-.7993164,2.265625-1.6259766,3.9033203-1.9907227,1.8447266-.4165039,3.7978516-.4160156,5.6445312.0004883,1.8125.5371094,3.4970703,1.4702148,4.8945312,2.7045898l.1269531.1123047v18.3706055ZM16.8754297,4.1681137v16.4360352c.0332031-.0244141.0664062-.0483398.0986328-.0727539,1.21875-.8959961,2.3691406-1.7421875,4.1259766-2.128418,1.8427734-.4165039,3.7949219-.4160156,5.6435547.0004883,1.5507812.4594727,3.0078125,1.2089844,4.2714844,2.1889648V4.1900864c-1.2910156-1.1079102-2.8300781-1.9472656-4.4609375-2.4316406-1.7177734-.387207-3.5556641-.3857422-5.2910156.0063477-1.4892578.331543-2.5292969,1.0776367-3.6308594,1.8681641-.2480469.1787109-.4990234.3583984-.7568359.5351562Z"/>
        </g>
        <path class="cls-1" d="M17.7601953,6.3238754c-.0517578,0-.1035156-.0229492-.1376953-.0668945-.0595703-.0761719-.0458984-.1860352.0302734-.2456055,1.0380859-.8129883,2.2138672-1.3857422,3.4951172-1.7021484.7871094-.1767578,1.5908203-.2856445,2.3935547-.324707.0996094-.0107422.1787109.0698242.1835938.1665039.0048828.0961914-.0693359.1782227-.1660156.1831055-.7832031.0380859-1.5673828.144043-2.3310547.315918-1.2285156.3032227-2.3603516.8544922-3.3603516,1.6367188-.03125.0253906-.0693359.0371094-.1074219.0371094Z"/>
        <path class="cls-1" d="M17.7504297,8.2540512c-.0517578,0-.1035156-.0229492-.1376953-.0668945-.0595703-.0761719-.0458984-.1860352.0292969-.2456055,1.0380859-.8134766,2.2148438-1.3862305,3.4960938-1.7021484.7871094-.1767578,1.5917969-.2856445,2.3935547-.324707.0927734-.0112305.1787109.0698242.1835938.1665039.0048828.0961914-.0693359.1782227-.1660156.1831055-.7822266.0380859-1.5664062.144043-2.3310547.315918-1.2294922.3032227-2.3613281.8540039-3.359375,1.6367188-.0322266.0249023-.0703125.0371094-.1083984.0371094Z"/>
        <path class="cls-1" d="M17.7504297,10.2340317c-.0517578,0-.1035156-.0229492-.1376953-.0668945-.0595703-.0761719-.0458984-.1860352.0292969-.2456055,1.0380859-.8134766,2.2148438-1.3862305,3.4960938-1.7021484.7871094-.1767578,1.5917969-.2856445,2.3935547-.324707.0927734.0029297.1787109.0698242.1835938.1665039.0048828.0961914-.0693359.1782227-.1660156.1831055-.7822266.0380859-1.5664062.144043-2.3310547.315918-1.2294922.3032227-2.3613281.8540039-3.359375,1.6367188-.0322266.0249023-.0703125.0371094-.1083984.0371094Z"/>
        <path class="cls-1" d="M17.7504297,12.2242661c-.0517578,0-.1035156-.0229492-.1376953-.0668945-.0595703-.0761719-.0458984-.1860352.0292969-.2456055,1.0380859-.8134766,2.2138672-1.3862305,3.4960938-1.7026367.7900391-.1767578,1.5947266-.2861328,2.3935547-.324707.0927734-.0092773.1787109.0698242.1835938.1665039.0048828.0961914-.0693359.1782227-.1660156.1831055-.7802734.0375977-1.5634766.144043-2.3310547.315918-1.2294922.3037109-2.3613281.8544922-3.359375,1.637207-.0322266.0249023-.0703125.0371094-.1083984.0371094Z"/>
        <path class="cls-1" d="M17.7504297,14.0440903c-.0517578,0-.1035156-.0229492-.1376953-.0668945-.0595703-.0761719-.0458984-.1860352.0292969-.2456055,1.0380859-.8134766,2.2148438-1.3862305,3.4960938-1.7021484.7861328-.1767578,1.5908203-.2856445,2.3935547-.3251953.0927734-.0107422.1787109.0698242.1835938.1660156.0048828.0966797-.0693359.1787109-.1660156.1835938-.7832031.0385742-1.5673828.1450195-2.3310547.3164062-1.2294922.3032227-2.3613281.8540039-3.359375,1.6367187-.0322266.0249023-.0703125.0371094-.1083984.0371094Z"/>
        <path class="cls-1" d="M17.7504297,15.9942856c-.0517578,0-.1035156-.0229492-.1376953-.0668945-.0595703-.0761719-.0458984-.1860352.0292969-.2456055,1.0371094-.8129883,2.2128906-1.3857422,3.4960938-1.7026367.7871094-.1767578,1.5917969-.2856445,2.3935547-.324707.0927734.0009766.1787109.0698242.1835938.1665039.0048828.0961914-.0693359.1782227-.1660156.1831055-.7822266.0380859-1.5664062.144043-2.3310547.315918-1.2304688.3037109-2.3623047.8549805-3.359375,1.637207-.0322266.0249023-.0703125.0371094-.1083984.0371094Z"/>
        <path class="cls-2" d="M30.4902773,10.3692733c-1.1710815-.8788166-2.5079193-1.5115175-3.9300003-1.8599997-.6582985-.1437578-1.3271446-.2340527-2-.2700005V2.6992732c.5717697.0438919,1.139801.1274261,1.7000008.25,1.5196533.3705587,2.9462128,1.0514946,4.1899986,2v5.3900003l.0400009.0299997Z"/>
        <path class="cls-4" d="M30.4902773,16.7592736c-1.1719093-.8752651-2.5086937-1.5045395-3.9300003-1.8500004-.6582985-.1437588-1.3271446-.2340527-2-.2700005v-5.5499992c.5717697.0438919,1.139801.1274261,1.7000008.25,1.5196533.3705587,2.9462128,1.0514946,4.1899986,2v5.3899994l.0400009.0300007Z"/>
        <path class="cls-1" d="M30.4906641,18.093895c-.0390625,0-.078125-.0126953-.1103516-.0390625-1.1083984-.9008789-2.3720703-1.5424805-3.7548828-1.90625-1.7597656-.3979492-3.6279297-.3974609-5.3974609.0014648-1.2285156.3032227-2.3603516.8544922-3.3603516,1.6367188-.0722656.0605469-.1855469.046875-.2451172-.0297852-.0595703-.0761719-.0458984-.1860352.0302734-.2456055,1.0380859-.8129883,2.2138672-1.3857422,3.4951172-1.7021484,1.8222656-.4111328,3.7441406-.4111328,5.5605469-.0009766,1.4375.378418,2.7451172,1.0424805,3.8925781,1.9750977.0751953.0610352.0859375.1708984.0253906.2460938-.0341797.0424805-.0849609.0644531-.1357422.0644531Z"/>
      </g>
    </g>
  </g>
</svg>