<?xml version="1.0" encoding="UTF-8"?>
<svg xmlns="http://www.w3.org/2000/svg" version="1.1" viewBox="0 0 80 26">
  <defs>
    <style>
      .cls-1 {
        fill: #6f6e6f;
      }

      .cls-2, .cls-3 {
        fill: #fff;
      }

      .cls-3 {
        stroke: #6f6e6f;
        stroke-miterlimit: 10;
        stroke-width: .25px;
      }

      .cls-4 {
        fill: #595757;
      }
    </style>
  </defs>
  <!-- Generator: Adobe Illustrator 28.7.1, SVG Export Plug-In . SVG Version: 1.2.0 Build 142)  -->
  <g>
    <g id="_レイヤー_1" data-name="レイヤー_1">
      <g>
        <g>
          <path class="cls-4" d="M30.3000975,7.4018555h3.8071289c3.2001953,0,5.1708984,1.9863281,5.1708984,5.3447266,0,3.6435547-1.9404297,5.8398438-5.2944336,5.8398438h-3.6835938V7.4018555ZM32.2849607,17.0141602h1.6630859c2.175293,0,3.2856445-1.5722656,3.2856445-4.2294922,0-2.3007812-1.1337891-3.7880859-3.2695312-3.7880859h-1.6791992v8.0175781Z"/>
          <path class="cls-4" d="M49.4285154,12.9360352c0,3.2167969-1.5341797,5.8134766-4.9736328,5.8134766-3.3261719,0-4.8291016-2.5888672-4.8291016-5.8271484,0-2.8144531,1.5126953-5.671875,4.9775391-5.671875,3.2802734,0,4.8251953,2.6015625,4.8251953,5.6855469ZM41.6707029,12.9194336c0,2.3662109.9492188,4.2363281,2.8730469,4.2363281,2.0644531,0,2.8603516-1.7773438,2.8603516-4.2148438,0-2.2294922-.7988281-4.0966797-2.8857422-4.0966797-1.9951172,0-2.8476562,1.8125-2.8476562,4.0751953Z"/>
          <path class="cls-4" d="M50.2830076,7.4018555h1.9736328v9.5507812h5.1279297l-.2314453,1.6337891h-6.8701172V7.4018555Z"/>
          <path class="cls-4" d="M57.6609373,7.4018555h1.9736328v9.5507812h5.1279297l-.2314453,1.6337891h-6.8701172V7.4018555Z"/>
        </g>
        <g id="_レイヤー_2-2" data-name="レイヤー_2">
          <g>
            <path class="cls-3" d="M21.268083,20.5767607l-.0067901,2.6078402s-.2941935.7960186-.3068113,1.3567602c-.0031289.1390316.0559496.2699799.0864225.3164374.1028836.1568472.3238211.218836.454609.2308557.1457706.0133958.3383892-.0777836.4617927-.2162976.0987141-.1107988.1672598-.3179995.1955213-.4547221.077073-.3728597.0525154-1.1346108.0525154-1.1346108,0,0,.2354932-1.4103603.2596828-1.9092185.0086319-.178021-.0511532-.7896012-.0511532-.7896012l-1.145789-.0074433Z"/>
            <path class="cls-1" d="M22.2345151,23.697732s-.199969-.2274463-.5270537-.2980577c-.2268729-.0489774-.526158.0497321-.526158.0497321l.1205737-.2037913s.1046673-.0770304.4513762-.0320963c.2609094.0338149.4681791.2450852.4681791.2450852l.0130827.2391281Z"/>
            <path class="cls-1" d="M21.336707,22.5239179s-.4248458,1.4902376-.4376845,2.069489c-.0031831.1436219.0572312.278897.0883906.3268918.1052005.1620357.3310838.2260949.4647968.2385268.1490312.0138545.4247792-.1041846.5464136-.2661676.166206-.2213404.1883267-.5152294.2172042-.6564616.0787545-.3851613-.0548686-1.1602293-.0548686-1.1602293,0,0-.0196249.2952822-.0392498.6419175-.0109929.1941691-.0402129.3762783-.1439171.5071135-.1194106.1506545-.347211.170026-.5233344.1412229-.1570006-.0256758-.2585546-.16326-.2812929-.2439291-.0425212-.1508498-.0065414-.2760238-.0065414-.2760238l.1700834-1.3223502Z"/>
            <path class="cls-1" d="M25.452144,13.2994018c-.2844326-1.098927-.9918971-3.2640454-1.1908734-4.3816108-.1472715-.8271641-.2920696-3.3479751-.2920696-3.3479751,0,0-.070737-1.7337611-.2696591-2.2693383-.1803348-.4855348-.6236664-1.1857117-1.2358727-1.6627811-.3264649-.2544006-.6430619-.491353-1.5800067-.4943167-.749895-.0023718-1.2339006.2597101-1.5727695.4943167-.5659432.3918143-1.059836,1.1756722-1.2358742,1.6627811-.1941823.5373141-.2696583,2.2693383-.2696583,2.2693383,0,0-.1447989,2.520811-.2920704,3.3479751-.1989764,1.1175654-.90644,3.2826838-1.1908727,4.3816108-.1507522.5824439-.49075,1.7423167-.7034639,2.7801056-.3751195,1.8301378-.3301664,2.0334673-.3301664,2.0334673h11.1969864s-.07443-.5837689-.2725338-1.5560403c-.2319265-1.1382728-.5853077-2.5783583-.7610956-3.2575327Z"/>
            <rect class="cls-2" x="19.0687259" y="11.6817912" width="3.6564199" height="1.1095348"/>
            <path class="cls-2" d="M18.6521982,7.8835293s-.2994641.4214077-.3042535.4281467c-.3207704.4517133-.4231644,1.3162497-.4098368,1.8442278.0000132.0005153-.2683597,1.4504175-.2683597,1.4504175l-.8201648,2.1542417.6024662.1932439c.2474315-.3815985.6281002-.8260181.9085531-1.6171535.3784627-1.0676118.6072161-2.1576867.588449-2.3515188l.1492776-2.0010999-.4461312-.1005056Z"/>
            <path class="cls-2" d="M18.6828772,3.5963856l.1300851,1.0057845s.0921069.9806775.092509.9849601c.0807389.8593464,1.0158216,1.20978,1.7080632,1.4387396h.4939703c.6922416-.2289596,1.6273251-.5793932,1.708064-1.4387396.0004014-.0042827.0925075-.9849601.0925075-.9849601l.1300866-1.0057845"/>
            <polygon class="cls-2" points="20.5475296 6.7771613 20.3866252 7.2610058 20.850407 7.6005487 21.4078887 7.3172668 21.172215 6.7209003 20.5475296 6.7771613"/>
            <path class="cls-3" d="M20.9499548,21.3653344l.0067901,2.6078387s.2941927.7960186.3068106,1.3567602c.0031289.1390316-.0559496.2699799-.0864225.3164374-.1028836.1568472-.3238211.218836-.454609.2308557-.1457706.0133989-.3383884-.0777836-.4617927-.2162945-.0987141-.1108019-.1672598-.3180026-.1955213-.4547252-.0770722-.3728597-.0525154-1.1346093-.0525154-1.1346093,0,0-.212803-1.3606871-.2502434-1.8452445-.0146921-.1901476,0-.8440212,0-.8440212l1.1875036-.0169973Z"/>
            <path class="cls-1" d="M20.9214121,2.0074226c-1.3887952-.016926-2.5291253,1.1579938-2.5469943,2.6241886-.0015869.130199-.0203657.0269369-.0047863.1522895,5.0304176-.0021634,1.3586586-.0021634,5.0397546-.0000364.0031583-1.4533527-1.1082408-2.7596261-2.487974-2.7764417Z"/>
            <path class="cls-2" d="M23.1332228,7.8835293s.2994649.4214077.3042535.4281467c.3207704.4517133.4231651,1.3162497.4098375,1.8442278-.0000139.0005153.2683589,1.4504175.2683589,1.4504175l.9277185,2.4278603-.6908546.2566027c-.2474315-.381597-.6472656-1.1629955-.9277185-1.9541309-.3784619-1.0676118-.6072161-2.1576867-.588449-2.3515188l-.1492768-2.0010999.4461304-.1005056Z"/>
            <path class="cls-4" d="M19.5975618,8.6723045c0,.3132063-.1085138.597869-.2855089.8089022-.1907257.2274029-.460969.3693108-.7606423.3693108-.3562776,0-.6987318-.0255285-.8876435-.3318905-.1174463-.1904645-.1585077-.5968656-.1585077-.8463225,0-.650709.4748979-1.0916595,1.0461512-1.178213.3256885-.049347.6616493-.046838.8388947.1085626.2458911.2155863.2072565.6915132.2072565,1.0696504Z"/>
            <polygon class="cls-4" points="19.002886 10.2246463 17.6496584 10.0274328 17.7305887 9.4558757 19.083817 9.6530885 19.002886 10.2246463"/>
            <path class="cls-4" d="M22.1711578,8.6723045c0,.3132063.108513.597869.2855081.8089022.1907257.2274029.4609706.3693108.7606431.3693108.3562776,0,.6987318-.0255285.8876427-.3318905.1174471-.1904645.1585085-.5968656.1585085-.8463225,0-.650709-.4748979-1.0916595-1.0461512-1.178213-.3256893-.049347-.6616501-.046838-.8388947.1085626-.2458918.2155863-.2072565.6915132-.2072565,1.0696504Z"/>
            <polygon class="cls-4" points="22.7491834 10.2246463 24.1025265 9.9930491 24.0381635 9.4558648 22.6848204 9.6874613 22.7491834 10.2246463"/>
            <path class="cls-4" d="M20.9633553,7.3474468l.9832667-.1681114c.2319637.1249276.4639274.2498545.6958911.3747813.3708078.1997032.6478312.2581672.7711983.7011075l-.0936388.571602-.0624289.9078015c.0111595.2283893.0485202.4697265.0058688.6927375-.0703403.3677789-.299967.7169735-.4428714,1.0556076-.0905595.2145975.0262027.2783701-.222078.4242375-.1355107.0796153-.2794301.1137309-.4335731.1137309h-2.535927c-.154143,0-.2980632-.0341155-.4335738-.1137309-.2482799-.1458674-.1315178-.20964-.222078-.4242375-.1429044-.3386341-.3725303-.6878287-.4428706-1.0556076-.0426522-.223011-.0052915-.4643482.005868-.6927375l-.0624289-.9078015-.093638-.571602c.1233671-.4429403.4003904-.5014043.7711983-.7011075.2319637-.1249268.4639274-.2498537.6958911-.3747813l.9832659.1681114"/>
            <path class="cls-1" d="M20.8803863,23.3572305s.4248458,1.4902376.4376837,2.069489c.0031831.1436219-.0572304.278897-.0883899.3268918-.1052012.1620357-.3310846.2260949-.4647968.2385268-.1490312.0138545-.4247792-.1041846-.5464136-.2661676-.166206-.2213404-.2216263-.4793502-.2505038-.6205825-.0787545-.3851613.0881675-1.1961084.0881675-1.1961084,0,0-.0040742.297441.0392505.641919.026642.2118313.0402121.3762783.1439171.507115.1194098.1506514.347211.170026.5233344.1412198.1570006-.0256758.2585546-.16326.2812929-.243926.0425205-.1508529.0065414-.2760269.0065414-.2760269l-.1700834-1.3223502Z"/>
            <path class="cls-1" d="M19.9935402,24.3954983s.199969-.2274447.527053-.2980562c.2268737-.0489774.526158.0497321.526158.0497321l-.1205737-.2037913s-.1046666-.0770304-.4513762-.0320963c-.2609086.0338149-.4681775.2450852-.4681775.2450852l-.0130835.2391265Z"/>
            <rect class="cls-2" x="18.5862878" y="1.4838802" width="1.6576725" height="1.1163055"/>
            <rect class="cls-2" x="21.5483027" y="1.4327272" width="1.6344646" height="1.1163053"/>
            <g>
              <path class="cls-4" d="M24.2932552,1.2871032c-.0785073-.3122224-.1836031-.6160277-.2964879-.9172368-.0363425-.0969943-.0711911-.1944605-.1076141-.2913761-.0233636-.0622242-.0545936-.0798453-.120435-.0685174-.0254092.0044053-.051054.0099905-.0752823.0186437-.1878525.0675734-.3768843.1320002-.562533.2049228-.4217223.1655903-.8226769.3707493-1.1871316.6426164-.172198.1284604-.3315728.2699791-.4594821.444616-.0254084.0346128-.0321737.0686749-.0243856.10903.0180922.0942412.0362642.188482.0519187.2831161.0064499.0388608.0063717.078744.0092038.1166606.0416131-.0044051.0792155-.0120355.1166599-.0117996.1865143.0014161.3712193-.0143957.5536431-.0536498.1413609-.0304435.281936-.0648202.4236889-.0934543.0689889-.0140025.1397879-.0188795.2097206-.0278473.0013374.0064503.0025958.012901.0039332.0193514-.2371739.0734734-.4839452.1094234-.7255257.1655117.0002363.0044841.0005509.0089678.0007865.0133733.2676972.0169129.5353153.0338257.8030109.0506604.0003146.0038545.0006292.0076304.0010228.0114063-.0172267.0030681-.0343759.0086533-.0515251.0086533-.069147.0000786-.1382924-.0013374-.2074394-.0025962-.1489917-.0028317-.2980608-.0054279-.4471316-.0091251-.1175254-.002989-.2350508-.0067649-.3524971-.011485-.1032873-.0041691-.2065739-.0100693-.3136371-.0154186-.0013374.0214756-.0023594.0309158-.0024385.0404341-.0014947.1976858-.0030677.3954503-.0043268.5932144-.0009438.1353832.0137669.1665345.1154805.2565276.1460805.129483.3161538.216644.503219.2640793.2477941.0629322.4975548.1190991.7482609.1690516.30695.0611229.6156311.1135926.9239186.1679502.0849588.0149463.1708598.0258807.2566833.0337475.0515267.0047197.0814192-.0182507.0980167-.067259.009912-.0294207.0162845-.060572.0194304-.0914878.0168346-.1643316.0308363-.3289778.0482211-.4932311.0298926-.2824865.065843-.5644229.0911732-.8473031.0184076-.2050017.0104622-.4105539-.0401192-.6117797Z"/>
              <path class="cls-4" d="M21.4252123,1.379535c-.0029111-.0213183-.009991-.0287128-.0305225-.0321741-.1072197-.0180143-.2128673-.0032254-.3189859.0108558-.0832277.0110131-.1670056.0250156-.2503907.0240716-.0803949-.0008653-.1604759-.0193517-.2407142-.0298929-.0719783-.0094397-.1441139-.0152611-.2156994.0022027-.0082592.0020452-.0200596.0107771-.0210816.0176997-.0186439.1248418-.0412993.2493688-.0521551.3749973-.0134516.1558356-.0169919.3125368-.0247793.4688447.001573.0000786.0030677.0000786.0046406.0000786,0,.1446652-.0000783.2893309.000079.4339961,0,.0261171.009833.0448392.0397255.0432659.1530822-.008181.3061643-.0169129.4592457-.0250156.0763834-.0040118.1531604-.0125864.2293083-.0091251.1433275.0065294.2863403.0203746.4294314.030994.0478282.0036186.0619098-.0097543.0620671-.0586054.0003929-.1434855.0042478-.2871283.0002356-.4305348-.004956-.1747941-.0129006-.3496673-.0264313-.5239105l-.0439733-.297748Z"/>
              <path class="cls-4" d="M20.2916506,1.335089c-.0741805-.0841717-.1424619-.1745582-.2234867-.2514927-.2254533-.2142055-.4848115-.3822345-.7562055-.5316985-.3432933-.1890326-.7043658-.3373953-1.0754278-.4620796-.0766197-.0257236-.1527676-.0535711-.2308812-.0738667-.0676523-.0174638-.1009271.0043264-.1251562.0696187-.0142381.0383887-.0252511.0781146-.0401974.1162672-.1135922.2894095-.2182952.5819656-.3063999.8802641-.0483792.1639383-.0907795.328742-.0999833.5006256-.0129797.2428397.0128224.4833195.0416139.7237989.0303644.2531449.0597851.5063681.088341.7597489.0087311.0771707.0091248.1554428.0212389.2319839.0137669.0877119.0593923.1177621.1470251.1038382.1994157-.0315449.3992243-.0612016.5976954-.0979385.3173347-.0588413.6340395-.121459.9504296-.1851777.2034272-.040906.4052031-.0895212.5926612-.1819531.1319207-.0650561.2510981-.1485198.3430578-.265731.0088892-.0113277.0176994-.0258811.0188795-.0395686.0036969-.0440527.0050343-.0884983.004956-.1327084-.0004719-.1448225-.0020456-.2896455-.0029894-.434468-.0003146-.0582125-.000079-.1164247-.000079-.1832114-.052076,0-.1015563-.0025171-.1506429.0005505-.1143004.0070799-.2282855.0198236-.3425859.0246223-.0884193.0036972-.1771532-.0031467-.2657298-.0018879-.1858061.0027531-.3715339.0081023-.5573407.0115636-.0189585.000315-.0379953-.0051129-.0569538-.0078664.0002363-.0029108.0004727-.0058211.0007873-.0087319.264786-.0332752.5338198-.0189581.7979767-.0656853-.0505821-.014553-.101478-.0235209-.1519811-.0341407-.1341237-.0281623-.268011-.0576616-.4022919-.085352-.0569538-.0117996-.1139068-.0224194-.162286-.0619094.0051923,0,.0104629-.0007078.0154972.0000786.1193347.0185649.239063.0348486.3577677.0567174.1644098.0301289.3270104.0721364.492364.0947918.1437203.019745.2901945.0196663.4370623.0283982.0057425-.0611229.0084956-.1248416.0184076-.1874592.0117996-.0744962.0298135-.1480479.0451534-.2219934.0066863-.0324101.0023602-.0622242-.0202959-.0879478Z"/>
            </g>
            <polygon class="cls-2" points="20.2256689 8.3440481 19.2423976 7.4801339 19.8164459 7.1618492 20.8395024 7.343726 20.2256689 8.3440481"/>
            <polygon class="cls-2" points="21.5016476 8.3440481 22.4849173 7.4801339 21.9108699 7.1618492 20.8878134 7.343726 21.5016476 8.3440481"/>
            <path class="cls-2" d="M17.609647,13.5902596l-.5620867-.2032629s-.5828065.3926449-.7759582.6227862c-.0719589.0857398-.1465578.2540503-.166478.3146971-.0097222.0295997-.0479778.1865647-.0449396.3322337.0024555.1177214.0442972.2420384.1718206.3058389.0882116.0441345.2822289.0955186.4739518-.0385663.1039522-.0726788.1456203-.1934516.1664276-.2154468.119788-.1266308.3930207-.2659041.4971046-.3539143.0387709-.0327843.0902596-.1194463.1209231-.1901368.0485256-.1118697.1192347-.5742288.1192347-.5742288Z"/>
            <path class="cls-2" d="M24.1469771,13.5902596l.5620867-.2032629s.5828065.3926449.775959.6227862c.0719582.0857398.1465571.2540503.1664772.3146971.0097229.0295997.0479778.1865647.0449388.3322337-.0024548.1177214-.0442957.2420384-.1718191.3058389-.0882132.0441345-.2822304.0955186-.4739526-.0385663-.1039522-.0726788-.145621-.1934516-.1664276-.2154468-.1197872-.1266308-.3930215-.2659041-.4971054-.3539143-.0387709-.0327843-.0902588-.1194463-.1209231-.1901368-.0485248-.1118697-.1192339-.5742288-.1192339-.5742288Z"/>
            <path class="cls-4" d="M19.0050169,10.4531239l3.6026198-.0318034,4.5720226,9.5644356s.0869099.271012.0027926.3678355c-.4285907.4933225-1.6220801.3671939-1.6220801.3671939,0,0-.286706.3353533-.6400113.6444947-.2150423.1881624-.5811638.3842842-.6445907.4082367-1.0661194.4025864-2.704253.0223749-2.704253.0223749,0,0-.3710139.0648372-.6535133.0464141-.2952822-.0192584-.5656658-.0988629-.5656658-.0988629,0,0-.6373861.1708195-.8555.1932455-.514291.0528796-1.6430958-.0283273-2.0487452-.2815951-.052744-.03293-.334425-.1493326-.4393675-.2443444-.3908411-.3538539-.8313739-.9665157-.8313739-.9665157,0,0-.7783545-.0528207-.9078216-.30662-.0513097-.1005846-.0255762-.3580707-.0255762-.3580707l3.7610636-9.3264187Z"/>
          </g>
        </g>
      </g>
    </g>
  </g>
</svg>