<?xml version="1.0" encoding="UTF-8"?>
<svg xmlns="http://www.w3.org/2000/svg" version="1.1" viewBox="0 0 80 26">
  <defs>
    <style>
      .cls-1 {
        fill: #727171;
      }

      .cls-2 {
        fill: #6f6e6f;
      }

      .cls-3 {
        fill: #fff;
      }

      .cls-4 {
        fill: #595757;
      }
    </style>
  </defs>
  <!-- Generator: Adobe Illustrator 28.7.1, SVG Export Plug-In . SVG Version: 1.2.0 Build 142)  -->
  <g>
    <g id="_レイヤー_1" data-name="レイヤー_1">
      <g>
        <g>
          <g>
            <path class="cls-4" d="M38.9896959,20.3261719c-.1875,1.1123047-.9277344,2.1582031-2.6025391,2.1582031-2.0664062,0-2.8232422-1.5253906-2.8232422-3.4736328,0-1.8535156.9335938-3.4345703,2.8759766-3.4345703,1.7216797,0,2.4267578,1.0830078,2.5136719,2.15625h-1.1669922c-.1474609-.6337891-.4375-1.1923828-1.3867188-1.1923828-1.1894531,0-1.6142578,1.1865234-1.6142578,2.4658203,0,1.3242188.3789062,2.5214844,1.6279297,2.5214844.9316406,0,1.2509766-.6113281,1.4052734-1.2011719h1.1708984Z"/>
            <path class="cls-4" d="M40.4271959,20.1230469c-.0029297.7490234.2978516,1.4375,1.0917969,1.4375.6689453,0,.8769531-.4384766.9570312-.6738281h1.1318359c-.2177734.7646484-.7724609,1.5908203-2.1279297,1.5908203-1.5957031,0-2.2177734-1.1435547-2.2177734-2.6064453,0-1.2412109.6181641-2.6103516,2.2705078-2.6103516,1.6494141,0,2.1425781,1.2128906,2.1425781,2.4628906,0,.0546875-.0068359.3378906-.0136719.3994141h-3.234375ZM42.5473131,19.3496094c-.0224609-.6640625-.2890625-1.2060547-1.0341797-1.2060547-.8330078,0-1.0351562.7060547-1.0664062,1.2060547h2.1005859Z"/>
            <path class="cls-4" d="M44.1879381,22.3867188v-7.1171875h1.1523438v7.1171875h-1.1523438Z"/>
            <path class="cls-4" d="M45.9789537,22.4814453l2.3085938-6.9052734h.8818359l-2.3017578,6.9052734h-.8886719Z"/>
            <path class="cls-4" d="M50.5492662,20.4316406c.1083984.7001953.5722656,1.1064453,1.3164062,1.1064453.7792969,0,1.1367188-.3603516,1.1367188-.9287109,0-.65625-.3632812-.9287109-1.4052734-1.2353516-1.5058594-.4306641-2.0390625-.9580078-2.0390625-1.9267578,0-1.1845703.9316406-1.8681641,2.2011719-1.8681641,1.5546875,0,2.2148438.8427734,2.2900391,1.8779297h-1.1679688c-.0898438-.5605469-.3828125-.9580078-1.1376953-.9580078-.6660156,0-.9951172.3154297-.9951172.8339844,0,.5458984.3408203.7246094,1.3359375,1.0175781,1.6953125.5019531,2.1289062,1.1699219,2.1289062,2.1210938,0,1.1025391-.7431641,1.9970703-2.4013672,1.9970703-1.4423828,0-2.3496094-.7421875-2.4375-2.0371094h1.1748047Z"/>
            <path class="cls-4" d="M58.8217271,20.6826172c-.1660156,1-.796875,1.7949219-2.1367188,1.7949219-1.4960938,0-2.2158203-.9482422-2.2158203-2.6035156,0-1.5439453.8330078-2.6132812,2.2871094-2.6132812,1.5410156,0,2.0195312,1.0947266,2.0625,1.8369141h-1.1513672c-.0654297-.4921875-.3095703-.9394531-.9355469-.9394531-.7685547,0-1.0878906.6904297-1.0878906,1.6777344,0,1.2128906.3916016,1.7519531,1.0673828,1.7519531.6123047,0,.8330078-.3916016.9658203-.9052734h1.1445312Z"/>
            <path class="cls-4" d="M59.2592271,19.0625c0-.8173828-.0029297-1.390625-.0195312-1.703125h1.125c.0234375.2236328.0302734.5429688.0302734.9277344.1914062-.4902344.6699219-1.0068359,1.5566406-1.0126953v1.1738281c-1.0673828.0029297-1.5400391.4589844-1.5400391,1.5898438v2.3486328h-1.1523438v-3.3242188Z"/>
            <path class="cls-4" d="M62.2631334,15.2695312h1.1523438v1.1660156h-1.1523438v-1.1660156ZM62.2631334,17.359375h1.1523438v5.0273438h-1.1523438v-5.0273438Z"/>
            <path class="cls-4" d="M64.9936021,21.8945312v2.4472656h-1.1455078v-5.5185547c0-.6816406.0068359-1.1435547-.0126953-1.4638672h1.125c.0166016.1621094.0263672.4521484.0332031.7109375.2011719-.4072266.6474609-.8095703,1.4873047-.8095703,1.0615234,0,1.8916016.8222656,1.8916016,2.5488281,0,1.6542969-.9150391,2.6621094-2.1152344,2.6621094-.6738281,0-1.0703125-.2431641-1.2636719-.5771484ZM67.1977037,19.8320312c0-1.125-.4423828-1.6162109-1.1152344-1.6162109-.8759766,0-1.1425781.5341797-1.1425781,1.6699219,0,1.015625.2226562,1.6455078,1.0976562,1.6455078.7480469,0,1.1601562-.59375,1.1601562-1.6992188Z"/>
            <path class="cls-4" d="M68.3412584,17.359375h.7412109v-1.3984375h1.1455078v1.3984375h.9355469v.9072266h-.9355469v2.7705078c0,.3710938.0898438.5253906.5068359.5253906.1259766,0,.2011719-.0058594.3300781-.0253906v.8125c-.2353516.0791016-.5771484.0917969-.7568359.0917969-.890625,0-1.2255859-.3535156-1.2255859-1.2548828v-2.9199219h-.7412109v-.9072266Z"/>
          </g>
          <g>
            <path class="cls-4" d="M33.6649888,9.9306641l-.8916016,2.9130859h-1.9482422c.3642578-1.0859375,3.0859375-9.9541016,3.4951172-11.1855469h2.5400391l3.6640625,11.1855469h-2.0820312l-.9423828-2.9130859h-3.8349609ZM37.0917467,8.2802734c-.78125-2.4765625-1.3056641-4.0996094-1.5458984-5.0917969h-.0214844c-.2851562,1.2695312-.8173828,3.0068359-1.4667969,5.0917969h3.0341797Z"/>
            <path class="cls-4" d="M40.7685045,12.84375V1.6582031h2.5439453c3.7109375,7.2001953,4.2714844,8.2929688,4.453125,8.8115234h.0283203c-.109375-1.3837891-.1259766-3.2021484-.1259766-5.0263672V1.6582031h1.8183594v11.1855469h-2.4199219c-3.9775391-7.8740234-4.3603516-8.7001953-4.5507812-9.1367188h-.0166016c.0820312,1.4248047.0830078,3.3378906.0830078,5.3388672v3.7978516h-1.8134766Z"/>
            <path class="cls-4" d="M52.8720201,1.6582031v11.1855469h-1.9736328V1.6582031h1.9736328Z"/>
            <path class="cls-4" d="M63.2353013,8.4667969c0-1.9580078.0273438-4.1855469.0761719-5.4169922h-.0732422c-.5078125,2.2119141-1.8476562,6.6123047-2.8828125,9.7939453h-1.7373047c-.7714844-2.6738281-2.1425781-7.59375-2.6308594-9.8212891h-.078125c.0927734,1.3027344.1367188,3.7490234.1367188,5.6748047v4.1464844h-1.8251953V1.6582031h2.9560547c.9257812,2.8515625,2.0966797,6.9785156,2.4335938,8.6220703h.0214844c.234375-1.3212891,1.6923828-5.7431641,2.6601562-8.6220703h2.8535156v11.1855469h-1.9101562v-4.3769531Z"/>
            <path class="cls-4" d="M73.3974107,7.8300781h-4.9199219v3.3789062h5.4248047l-.2441406,1.6347656h-7.1083984V1.6582031h7.0625v1.6464844h-5.1347656v2.8740234h4.9199219v1.6513672Z"/>
          </g>
        </g>
        <g>
          <g>
            <rect class="cls-3" x="7.3507844" y="6.0385898" width="19.2683027" height="17.0382906"/>
            <path class="cls-2" d="M27.0366907,23.494369H6.9329168V5.6209493h20.1037739v17.8734197ZM7.7681271,22.6591586h18.4333532V6.4561596H7.7681271v16.202999Z"/>
          </g>
          <g>
            <rect class="cls-3" x="6.5155741" y="8.5442208" width="19.2683027" height="17.0382922"/>
            <path class="cls-2" d="M26.2014803,26H6.0977065V8.1265803h20.1037739v17.8734197ZM6.9329168,25.1647897h18.4333532V8.9617906H6.9329168v16.202999Z"/>
          </g>
          <g>
            <path class="cls-3" d="M18.1249979,16.5371835l-2.6893775-1.8541664c-.9640417.0841156-1.8599133.5320522-2.505631,1.2528155-1.4449135,1.5868993-.9187309,4.1676994-2.3218845,5.762951,2.4638703.6848722,6.2223177,0,7.3080905-2.697729.2088026-.4092529.6514646-2.1548426.2088026-2.4638711Z"/>
            <path class="cls-4" d="M12.5020733,22.3569658c-.7193902,0-1.4086018-.0897199-2.0056467-.2557016l-.6410892-.1782163.4396273-.4999843c.6223296-.7079713.8262384-1.658594,1.0431973-2.6646799.2349029-1.0909119.4771465-2.2189353,1.282994-3.1038994.7169433-.800138,1.7046774-1.2940051,2.7788688-1.3873953l.1492612-.0130502,2.8147567,1.9403959c.8246071.5754306.0358879,2.7776453-.0758541,2.9966433-.9069862,2.2568623-3.4982589,3.1658876-5.7861154,3.1658876ZM11.320218,21.4291809c2.2030304.3739687,5.2722653-.2569251,6.2086144-2.583932.2153277-.4257615.4706215-1.6985601.3335948-1.9819933l-2.5358095-1.7483138c-.8050318.1048091-1.5407347.491828-2.0855789,1.0994761-.6565863.7210214-.8653888,1.6916272-1.0864259,2.7197352-.1835179.8543778-.3727452,1.7320011-.8343947,2.4950278Z"/>
          </g>
          <g>
            <polygon class="cls-1" points="18.2155461 10.981711 16.646672 12.9958708 16.7636137 14.5995114 18.8265588 15.9358276 20.3466477 15.6184435 21.7199733 13.4258125 18.2155461 10.981711"/>
            <polygon class="cls-1" points="22.1639337 12.7169746 29.1247165 1.6036406 26.7694173 0 18.7296002 10.3217092 22.1639337 12.7169746"/>
          </g>
          <path class="cls-4" d="M17.2897876,20.028363c-.3424361.2338595-.6598169.5261818-1.1108297.4426621-.3325577-.0528442-.559309-.3652755-.5064648-.6978332.0074921-.0471507.0204976-.0932596.0387474-.1373772.0751691-.2839716.367493-.927084-.2088026-.7850982-.3758445.0918736-.5512387.6013509-.9939008.5679433s-.4760696-.4092529-.3424361-.7182814.4760696-1.0774221-.1670419-1.0857728c-.1930331.0299475-.3714963.1206423-.509478.2589148-.2756193.2088026-.63476.5762956-.9688439.2422118s-.1753942-.7767459-.1753942-1.1024774l-.6598161,2.330236-.31738,1.1525896-.7600421,1.2027033,1.4115059.2255072h1.9293354l1.6036039-.6097032.8352103-.2589148.9020271-1.0273099Z"/>
        </g>
      </g>
    </g>
  </g>
</svg>