<?xml version="1.0" encoding="UTF-8"?>
<svg xmlns="http://www.w3.org/2000/svg" version="1.1" viewBox="0 0 80 26">
  <defs>
    <style>
      .cls-1 {
        fill: #6f6e6f;
      }

      .cls-2 {
        fill: #c3c4c4;
      }

      .cls-3 {
        fill: #fff;
      }

      .cls-4 {
        fill: #595757;
      }
    </style>
  </defs>
  <!-- Generator: Adobe Illustrator 28.7.1, SVG Export Plug-In . SVG Version: 1.2.0 Build 142)  -->
  <g>
    <g id="_レイヤー_1" data-name="レイヤー_1">
      <g>
        <g>
          <path class="cls-4" d="M42.7704373,9.0532227h-3.1142578v-1.6513672h8.2226562v1.6513672h-3.1191406v9.5341797h-1.9892578v-9.5341797Z"/>
          <path class="cls-4" d="M57.7216092,12.9360352c0,3.2167969-1.5341797,5.8134766-4.9736328,5.8134766-3.3261719,0-4.8291016-2.5888672-4.8291016-5.8261719,0-2.8154297,1.5126953-5.6728516,4.9775391-5.6728516,3.2802734,0,4.8251953,2.6025391,4.8251953,5.6855469ZM49.9637967,12.9194336c0,2.3671875.9492188,4.2373047,2.8730469,4.2373047,2.0644531,0,2.8603516-1.7773438,2.8603516-4.2158203,0-2.2294922-.7988281-4.0966797-2.8857422-4.0966797-1.9951172,0-2.8476562,1.8134766-2.8476562,4.0751953Z"/>
          <path class="cls-4" d="M60.4725858,18.5874023v-4.2832031c0-.1210938-.0263672-.2392578-.09375-.3408203l-3.5732422-6.5615234h2.2294922c.8369141,1.7099609,2.0302734,4.0517578,2.515625,5.0380859.7783203-1.5986328,1.7304688-3.4355469,2.5205078-5.0380859h2.0664062l-3.609375,6.5400391c-.0595703.0947266-.0830078.1767578-.0830078.3193359v4.3261719h-1.9726562Z"/>
        </g>
        <g>
          <path class="cls-4" d="M27.0922441,1.7197273c0-.9497576-.8842857-1.7197273-1.9751195-1.7197273s-1.9751195.7699698-1.9751195,1.7197273c0,.7703855.5857133,1.4147636,1.3876395,1.6335747v.465006h1.0471859v-.4305034c.8680736-.1810349,1.5154136-.8567979,1.5154136-1.6680773Z"/>
          <g>
            <path class="cls-1" d="M19.7281156,12.5828587v-.000052h-.3619658v1.3280913h.3534441v5.2868521c0,1.1823385,1.1588518,2.2073887,2.8611719,2.7243046h-.247546c-.4635511-.0583531-.9295964.0876595-1.2770129.4001577-.1033.1276182-.1786966.2755534-.2213572.4341407v2.7498698h.9620205v-2.0092064c-.0290986-.2196944.0465578-.4403242.2043137-.5958978.0964411-.0687974.2069638-.1153032.3235141-.1362438h5.5252008c.1166023.0209406.227125.0674464.3235141.1362438.1578079.1555736.2334643.3762033.2043657.5958978v2.0092064h.9194119v-2.7498698c-.0426087-.1585874-.1180052-.3065226-.2213572-.4341407-.3473646-.3124982-.8134098-.4585108-1.2770129-.4001577h-.1964675c1.7023201-.5169159,2.8611719-1.5419661,2.8611719-2.7243046v-5.2868001h.3619139v-1.3280913h-11.0973231Z"/>
            <polygon class="cls-1" points="16.4978591 12.5828067 17.3782477 13.9108981 18.0474636 13.9108981 17.6522422 12.5828067 16.4978591 12.5828067"/>
            <path class="cls-1" d="M15.9907121,12.5828067c-.6156952-.0057678-1.1010703.1878419-1.3547997.5736581l1.7454484,1.1525125.5117716-.3980793h.1282417l-.8803886-1.3280913h-.1502735Z"/>
            <polygon class="cls-1" points="18.3587147 13.9108981 19.0685127 13.9108981 19.0685127 12.5828067 17.9634933 12.5828067 18.3587147 13.9108981"/>
            <path class="cls-1" d="M14.4412635,16.2598826c.5998988-.0038971,1.249629-.0063913,1.762284-.0043648v-.7483017h-1.762284v.7526665Z"/>
            <path class="cls-1" d="M14.4412635,13.8428281v1.3667509h1.762284v-.6607461l-1.6954612-1.1194648c-.039439.1253838-.0668229.2598609-.0668229.4134599Z"/>
            <path class="cls-1" d="M14.4412635,16.5580394v.7497047h1.762284v-.7544852c-.4831407-.0015069-1.1145284.0006755-1.762284.0047805Z"/>
            <path class="cls-1" d="M34.2009285,12.5828587h-.1502735l-.8803366,1.3280913h.1281897l.5118236.3980793,1.7454484-1.1524605c-.2537814-.3858682-.7391045-.5794779-1.3548517-.5737101Z"/>
            <path class="cls-1" d="M33.988093,16.2556737c.512603-.0020265,1.1623332.0005196,1.762284.0043648v-.7530822h-1.762284v.7487174Z"/>
            <path class="cls-1" d="M35.6836061,13.4294721l-1.6955131,1.1195167v.6603304h1.762284v-1.3664391c0-.153599-.0273839-.2880242-.0667709-.413408Z"/>
            <path class="cls-1" d="M33.988093,16.5528952v.7549009h1.762284v-.7501723c-.6477037-.004105-1.2790394-.0062354-1.762284-.0047285Z"/>
            <polygon class="cls-1" points="31.1230759 12.5828587 31.1230759 13.91095 31.832822 13.91095 32.2281472 12.5828587 31.1230759 12.5828587"/>
            <polygon class="cls-1" points="32.5393464 12.5828587 32.1440731 13.91095 32.8134448 13.91095 33.6937814 12.5828587 32.5393464 12.5828587"/>
          </g>
          <path class="cls-3" d="M25.4065721.7321716v-.32351c-.4813919-.0701245-.9714289.0455368-1.370661.32351-.0759974.0700045-.1418963.1502305-.1958083.2383759-.17156.3235084-.2342551.6937061-.178781,1.0556638h.4597238c-.0524993-.2929752.0018771-.5950623.1532418-.8513419.1586507-.1876149.3736361-.3189946.6129656-.3745905l.5193191-.0681073Z"/>
          <g>
            <path class="cls-4" d="M18.7018955,6.410609h-.1571324c-.8557587,0-1.5494486.6937418-1.5494486,1.5494486v.6385064c0,.8557587.6936899,1.5494486,1.5494486,1.5494486h.1571324v-3.7374036Z"/>
            <path class="cls-4" d="M31.6553977,6.410609h-.2764887v3.7374036h.2764887c.8557587,0,1.5494486-.6936899,1.5494486-1.5494486v-.6385064c0-.8557067-.6936899-1.5494486-1.5494486-1.5494486Z"/>
          </g>
          <rect class="cls-1" x="18.914731" y="4.0311748" width="12.2513425" height="8.1812796" rx="2.3029464" ry="2.3029464"/>
          <path class="cls-4" d="M23.0057881,26c-.0499093-.6391755-.6030328-1.1203156-1.2429601-1.0812046-.6399265-.039111-1.19305.4420292-1.2429593,1.0812046h2.4859193Z"/>
          <path class="cls-4" d="M29.680309,26c-.0988216-.6888184-.7373313-1.167104-1.4261497-1.0682824-.5537665.0794463-.9888361.5145159-1.0682824,1.0682824h2.4944321Z"/>
          <polygon class="cls-4" points="15.1819553 17.3077997 14.4412879 17.3077997 13.8623752 17.8867108 13.8623752 18.6444062 14.4412879 19.0785908 14.4412879 18.1931944 15.1819553 18.1931944 15.4458717 18.1931944 16.1865391 18.1931944 16.1865391 19.0785908 16.765451 18.6444062 16.765451 17.8867108 16.1865391 17.3077997 15.4458717 17.3077997 15.1819553 17.3077997"/>
          <rect class="cls-3" x="21.3626979" y="13.2979783" width=".7917483" height=".6895865"/>
          <rect class="cls-3" x="28.1138397" y="13.2979783" width=".7917483" height=".6895865"/>
          <g>
            <ellipse class="cls-4" cx="25.0915749" cy="17.0183433" rx="3.8054978" ry="3.3117196"/>
            <path class="cls-3" d="M25.0919484,20.4365505c-2.1574534,0-3.9125148-1.5334963-3.9125148-3.4182542s1.7550613-3.4182542,3.9125148-3.4182542c2.156622,0,3.9116834,1.5334963,3.9116834,3.4182542s-1.7550613,3.4182542-3.9116834,3.4182542ZM25.0919484,13.8128775c-2.0402276,0-3.6996793,1.4378866-3.6996793,3.2054188s1.6594517,3.2054188,3.6996793,3.2054188c2.0393962,0,3.6988479-1.4378866,3.6988479-3.2054188s-1.6594517-3.2054188-3.6988479-3.2054188Z"/>
          </g>
          <ellipse class="cls-2" cx="25.0915749" cy="17.0183433" rx="2.4774049" ry="2.1538957"/>
          <polygon class="cls-4" points="35.0097097 17.3077997 35.7503763 17.3077997 36.329289 17.8867108 36.329289 18.6444062 35.7503763 19.0785908 35.7503763 18.1931944 35.0097097 18.1931944 34.7457925 18.1931944 34.0051259 18.1931944 34.0051259 19.0785908 33.4262132 18.6444062 33.4262132 17.8867108 34.0051259 17.3077997 34.7457925 17.3077997 35.0097097 17.3077997"/>
          <ellipse class="cls-3" cx="22.4949828" cy="6.9214274" rx="1.3791744" ry="1.200392"/>
          <ellipse class="cls-4" cx="22.4949826" cy="6.9214274" rx=".7491802" ry=".6555337"/>
          <ellipse class="cls-3" cx="27.2284433" cy="6.9214274" rx="1.3791746" ry="1.200392"/>
          <ellipse class="cls-4" cx="27.2284433" cy="6.9214274" rx=".7491802" ry=".6555337"/>
          <rect class="cls-3" x="21.1839161" y="9.305185" width="7.8068064" height="1.8899793"/>
          <rect class="cls-1" x="22.4098481" y="9.0242422" width=".9960701" height="2.5880794"/>
          <rect class="cls-1" x="24.5382029" y="8.6922186" width="1.0386366" height="2.9201031"/>
          <rect class="cls-1" x="26.6665578" y="9.0242422" width="1.0386366" height="2.5880794"/>
        </g>
      </g>
    </g>
  </g>
</svg>