<?xml version="1.0" encoding="UTF-8"?>
<svg xmlns="http://www.w3.org/2000/svg" version="1.1" viewBox="0 0 80 26">
  <defs>
    <style>
      .cls-1 {
        fill: #6f6e6f;
      }

      .cls-2 {
        fill: #fff;
      }

      .cls-3 {
        fill: #b5b5b6;
      }

      .cls-4 {
        fill: #595757;
      }
    </style>
  </defs>
  <!-- Generator: Adobe Illustrator 28.7.1, SVG Export Plug-In . SVG Version: 1.2.0 Build 142)  -->
  <g>
    <g id="_レイヤー_1" data-name="レイヤー_1">
      <g>
        <g>
          <path class="cls-4" d="M39.7627754,12.940918c0,2.9423828-1.4033203,5.3183594-4.5488281,5.3183594-3.0429688,0-4.4169922-2.3691406-4.4169922-5.3300781,0-2.5751953,1.3828125-5.1884766,4.5527344-5.1884766,3,0,4.4130859,2.3798828,4.4130859,5.2001953ZM32.6670723,12.9262695c0,2.1640625.8681641,3.875,2.6279297,3.875,1.8886719,0,2.6162109-1.6259766,2.6162109-3.8564453,0-2.0390625-.7304688-3.7470703-2.6386719-3.7470703-1.8251953,0-2.6054688,1.6582031-2.6054688,3.7285156Z"/>
          <path class="cls-4" d="M42.3545723,9.3881836h-2.8486328v-1.5097656h7.5214844v1.5097656h-2.8525391v8.7216797h-1.8203125v-8.7216797Z"/>
          <path class="cls-4" d="M47.5625801,7.878418h1.8046875v4.1308594h4.0947266v-4.1308594h1.8095703v10.2314453h-1.8095703v-4.5908203h-4.0947266v4.5908203h-1.8046875V7.878418Z"/>
          <path class="cls-4" d="M62.5254707,13.5239258h-4.5v3.0908203h4.9619141l-.2236328,1.4951172h-6.5009766V7.878418h6.4599609v1.5058594h-4.6972656v2.6298828h4.5v1.5097656Z"/>
          <path class="cls-4" d="M65.2061348,13.7368164v4.3730469h-1.7773438V7.878418h3.9794922c1.8886719,0,3.2314453.9375,3.2314453,2.7226562,0,1.4238281-.7851562,2.0898438-1.6220703,2.3916016,1.0332031.3759766,1.4296875,1.1914062,1.4296875,2.5039062v.2382812c0,.9199219.0410156,1.7910156.1386719,2.375h-1.7519531c-.1445312-.4228516-.1845703-1.2001953-.1845703-2.3935547v-.2470703c0-1.2666016-.4599609-1.7324219-1.9160156-1.7324219h-1.5273438ZM65.2061348,12.2885742h1.6708984c1.1083984,0,1.9599609-.3056641,1.9599609-1.5410156,0-.9970703-.7011719-1.4199219-1.6679688-1.4199219h-1.9628906v2.9609375Z"/>
          <path class="cls-4" d="M72.6075019,15.1342773c.1650391,1.0654297.8701172,1.6835938,2.0029297,1.6835938,1.1865234,0,1.7314453-.5478516,1.7314453-1.4140625,0-.9990234-.5527344-1.4140625-2.1396484-1.8818359-2.2919922-.6552734-3.1054688-1.4580078-3.1054688-2.9326172,0-1.8037109,1.4179688-2.8447266,3.3515625-2.8447266,2.3681641,0,3.3720703,1.2841797,3.4873047,2.859375h-1.7783203c-.1376953-.8535156-.5839844-1.4580078-1.7333984-1.4580078-1.0126953,0-1.5146484.4804688-1.5146484,1.2695312,0,.8300781.5195312,1.1025391,2.0351562,1.5488281,2.5810547.7646484,3.2412109,1.78125,3.2412109,3.2294922,0,1.6796875-1.1318359,3.0410156-3.6572266,3.0410156-2.1953125,0-3.5771484-1.1298828-3.7099609-3.1005859h1.7890625Z"/>
        </g>
        <g>
          <path class="cls-3" d="M15.1858762,18.7438951l1.0769803-1.1253838-2.9405184-3.3640491c-1.3406996-1.5668124-2.8595354-2.9719392-4.5257353-4.1869105-.8534444-.5980318-1.742486-1.1435806-2.6621972-1.6336216-.8061804-.562333-1.70843-.972447-2.6621972-1.2100897-.4621377-.0456119-.8824608.2696291-.968072.7260531,0,.2662201,0,1.1132826.3872289,1.0890803-.4114304,0-.9801726-.0605047-1.0769797.4961366-.0013681.2519701.109511.4914685.3025224.6534484.9211583.7655314,1.9994029,1.3191134,3.1583338,1.6215204,2.84263,1.1522428,5.4632036,2.7901008,7.744575,4.8403589l2.1660594,2.093457Z"/>
          <path class="cls-3" d="M5.3720489,1.7179317c-.4235313,0-.3146236-.8833655-.2178159-1.1253835.1642504-.4664803.6755591-.7114858,1.1420394-.5472354.0025193.0008872.0050345.0017853.0075456.002695.8929971.3671618,1.7127495.8918035,2.4201789,1.5489145.8366428.6441365,1.6327792,1.3392397,2.3838771,2.0813547,1.4712574,1.4572417,2.766809,3.0817569,3.8601857,4.8403589l2.4201795,3.7633787-1.7909323,1.3795027-6.1593569-4.8403589-4.985569-3.5213609c-.701852-.6413472-1.5247128-1.2100897-1.4884104-2.2507671.0363024-1.282695,1.4279057-1.4037039,2.4080783-1.3310986Z"/>
          <g>
            <polygon class="cls-2" points="16.8194978 11.9673921 11.2893881 10.4426788 13.4433475 15.7670731 10.2729125 20.5590297 15.9966364 20.1597002 19.5785032 24.649132 20.970106 19.0706176 26.3550039 17.0618688 21.4783438 14.0124433 21.2242237 8.2766182 16.8194978 11.9673921"/>
            <path class="cls-1" d="M19.8693088,25.9830554l-4.1478662-5.1978317-6.6306772.4626466,3.6716297-5.5493959-2.4922649-6.1644854,6.4037854,1.765502,5.1015209-4.2731294.2942503,6.6413128,5.6462976,3.5315949-6.2347983,2.3268229-1.6118773,6.4569632ZM16.272128,19.5337734l3.0157705,3.7809396,1.1722744-4.6997333,4.5331096-1.6910531-4.105324-2.5673046-.2138928-4.8297234-3.709445,3.1079453-4.6548276-1.2833569,1.8139529,4.4840679-2.6695241,4.0344203,4.8179061-.3362017Z"/>
          </g>
        </g>
      </g>
    </g>
  </g>
</svg>