<?xml version="1.0" encoding="UTF-8"?>
<svg xmlns="http://www.w3.org/2000/svg" version="1.1" viewBox="0 0 80 26">
  <defs>
    <style>
      .cls-1 {
        fill: #595757;
      }
    </style>
  </defs>
  <!-- Generator: Adobe Illustrator 28.7.1, SVG Export Plug-In . SVG Version: 1.2.0 Build 142)  -->
  <g>
    <g id="_レイヤー_1" data-name="レイヤー_1">
      <g>
        <g>
          <g>
            <path class="cls-1" d="M24.3156484,8.2885742c0-1.4550781.0205078-3.1103516.0566406-4.0253906h-.0546875c-.3779297,1.6435547-1.3740234,4.9140625-2.1425781,7.2783203h-1.2910156c-.5732422-1.9873047-1.5927734-5.6435547-1.9550781-7.2988281h-.0585938c.0693359.9677734.1015625,2.7861328.1015625,4.2177734v3.0810547h-1.3564453V3.2290039h2.1972656c.6875,2.1191406,1.5585938,5.1865234,1.8085938,6.4072266h.015625c.1738281-.9814453,1.2578125-4.2675781,1.9775391-6.4072266h2.1201172v8.3125h-1.4189453v-3.2529297Z"/>
            <path class="cls-1" d="M27.9748281,9.3764648l-.6630859,2.1650391h-1.4482422c.2714844-.8066406,2.2939453-7.3974609,2.5976562-8.3125h1.8886719l2.7226562,8.3125h-1.5478516l-.7001953-2.1650391h-2.8496094ZM30.5207265,8.1499023c-.5800781-1.8408203-.9697266-3.046875-1.1484375-3.7841797h-.015625c-.2119141.9433594-.6074219,2.2353516-1.0898438,3.7841797h2.2539062Z"/>
            <path class="cls-1" d="M33.2531484,11.5415039V3.2290039h1.890625c2.7578125,5.3505859,3.1748047,6.1630859,3.3095703,6.5478516h.0205078c-.0810547-1.0283203-.0927734-2.3798828-.0927734-3.7353516v-2.8125h1.3515625v8.3125h-1.7988281c-2.9560547-5.8525391-3.2412109-6.4658203-3.3818359-6.7900391h-.0126953c.0605469,1.0585938.0615234,2.4804688.0615234,3.9677734v2.8222656h-1.3476562Z"/>
            <path class="cls-1" d="M40.5392812,3.2290039h2.8291016c2.3789062,0,3.84375,1.4765625,3.84375,3.9726562,0,2.7080078-1.4423828,4.3398438-3.9355469,4.3398438h-2.7373047V3.2290039ZM42.0148671,10.3725586h1.2353516c1.6171875,0,2.4423828-1.1679688,2.4423828-3.1435547,0-1.7099609-.8427734-2.8144531-2.4296875-2.8144531h-1.2480469v5.9580078Z"/>
            <path class="cls-1" d="M48.9738515,9.3764648l-.6630859,2.1650391h-1.4482422c.2714844-.8066406,2.2939453-7.3974609,2.5976562-8.3125h1.8886719l2.7226562,8.3125h-1.5478516l-.7001953-2.1650391h-2.8496094ZM51.5197499,8.1499023c-.5800781-1.8408203-.9697266-3.046875-1.1484375-3.7841797h-.015625c-.2119141.9433594-.6074219,2.2353516-1.0898438,3.7841797h2.2539062Z"/>
            <path class="cls-1" d="M55.6984609,7.9887695v3.5527344h-1.4453125V3.2290039h3.234375c1.5341797,0,2.625.7607422,2.625,2.2119141,0,1.15625-.6376953,1.6972656-1.3183594,1.9433594.8398438.3046875,1.1621094.9677734,1.1621094,2.0341797v.1933594c0,.7480469.0332031,1.4550781.1123047,1.9296875h-1.4228516c-.1171875-.34375-.1503906-.9746094-.1503906-1.9443359v-.2011719c0-1.0292969-.3740234-1.4072266-1.5566406-1.4072266h-1.2402344ZM55.6984609,6.8110352h1.3564453c.9013672,0,1.5927734-.2480469,1.5927734-1.2509766,0-.8105469-.5693359-1.1542969-1.3554688-1.1542969h-1.59375v2.4052734Z"/>
            <path class="cls-1" d="M62.1672109,9.3764648l-.6630859,2.1650391h-1.4482422c.2714844-.8066406,2.2939453-7.3974609,2.5976562-8.3125h1.8886719l2.7226562,8.3125h-1.5478516l-.7001953-2.1650391h-2.8496094ZM64.7131093,8.1499023c-.5800781-1.8408203-.9697266-3.046875-1.1484375-3.7841797h-.015625c-.2119141.9433594-.6074219,2.2353516-1.0898438,3.7841797h2.2539062Z"/>
            <path class="cls-1" d="M67.4455312,3.2290039h1.4414062v3.9521484c.9003906-1.1064453,2.2939453-2.7919922,3.2304688-3.9521484h1.7558594l-2.9287109,3.3798828,3.1054688,4.9326172h-1.7558594l-2.3583984-3.9609375-1.0400391,1.1181641v2.8427734h-1.4501953V3.2290039Z"/>
            <path class="cls-1" d="M79.0343984,7.8149414h-3.65625v2.5117188h4.03125l-.1816406,1.2148438h-5.2822266V3.2290039h5.2490234v1.2226562h-3.8164062v2.1367188h3.65625v1.2265625Z"/>
          </g>
          <g>
            <path class="cls-1" d="M34.3923085,14.3374023h2.96875c1.5576172,0,2.8505859.8017578,2.8505859,2.4228516,0,1.6953125-1.2304688,2.5556641-2.9921875,2.5556641h-1.3574219v3.3339844h-1.4697266v-8.3125ZM35.8620351,18.144043h1.2724609c.9638672,0,1.5820312-.3486328,1.5820312-1.3554688,0-.890625-.6318359-1.2744141-1.5429688-1.2744141h-1.3115234v2.6298828Z"/>
            <path class="cls-1" d="M42.0466054,19.097168v3.5527344h-1.4453125v-8.3125h3.234375c1.5341797,0,2.625.7607422,2.625,2.2119141,0,1.15625-.6376953,1.6972656-1.3183594,1.9433594.8398438.3046875,1.1621094.9677734,1.1621094,2.0341797v.1933594c0,.7480469.0332031,1.4550781.1123047,1.9296875h-1.4228516c-.1171875-.34375-.1503906-.9746094-.1503906-1.9443359v-.2011719c0-1.0292969-.3740234-1.4072266-1.5566406-1.4072266h-1.2402344ZM42.0466054,17.9194336h1.3564453c.9013672,0,1.5927734-.2480469,1.5927734-1.2509766,0-.8105469-.5693359-1.1542969-1.3554688-1.1542969h-1.59375v2.4052734Z"/>
            <path class="cls-1" d="M53.9831288,18.449707c0,2.3916016-1.140625,4.3212891-3.6962891,4.3212891-2.4726562,0-3.5888672-1.9238281-3.5888672-4.3310547,0-2.0917969,1.1240234-4.2148438,3.6992188-4.2148438,2.4375,0,3.5859375,1.9335938,3.5859375,4.2246094ZM48.2175038,18.4379883c0,1.7587891.7050781,3.1484375,2.1347656,3.1484375,1.5351562,0,2.1259766-1.3203125,2.1259766-3.1328125,0-1.6572266-.5927734-3.0449219-2.1445312-3.0449219-1.4824219,0-2.1162109,1.3476562-2.1162109,3.0292969Z"/>
            <path class="cls-1" d="M54.6178945,14.3374023h2.8291016c2.3789062,0,3.84375,1.4765625,3.84375,3.9726562,0,2.7080078-1.4423828,4.3398438-3.9355469,4.3398438h-2.7373047v-8.3125ZM56.0934804,21.480957h1.2353516c1.6171875,0,2.4423828-1.1679688,2.4423828-3.1435547,0-1.7099609-.8427734-2.8144531-2.4296875-2.8144531h-1.2480469v5.9580078Z"/>
            <path class="cls-1" d="M61.2409413,22.6538086v-1.828125h1.3916016v1.828125h-1.3916016Z"/>
          </g>
        </g>
        <g>
          <circle class="cls-1" cx="9.4179019" cy="20.1727328" r="5.8272602"/>
          <polygon class="cls-1" points="3.4269632 14.4181808 10.1179202 6.8999748 10.1179202 3.9727262 10.1179202 0 6.9815428 4.1817996 6.9815428 6.4818282 .5906016 9.2000034 .5906016 19.3181983 3.6360921 22.3636333 2.3815411 19.6182141 3.4269632 14.4181808"/>
        </g>
      </g>
    </g>
  </g>
</svg>