<?xml version="1.0" encoding="UTF-8"?>
<svg xmlns="http://www.w3.org/2000/svg" version="1.1" viewBox="0 0 80 26">
  <defs>
    <style>
      .cls-1 {
        fill: #6f6e6f;
      }

      .cls-2 {
        fill: #fff;
      }

      .cls-3 {
        fill: #595757;
      }
    </style>
  </defs>
  <!-- Generator: Adobe Illustrator 28.7.1, SVG Export Plug-In . SVG Version: 1.2.0 Build 142)  -->
  <g>
    <g id="_レイヤー_1" data-name="レイヤー_1">
      <g>
        <g>
          <path class="cls-3" d="M36.9530452,7.4020996h4.1943359c2.3017578,0,3.4462891,1.2055664,3.4462891,2.8154297,0,1.4321289-.8203125,2.0429688-1.4443359,2.2836914.8066406.3193359,1.8203125,1.1010742,1.8203125,2.7285156,0,2.1494141-1.5986328,3.3574219-3.9208984,3.3574219h-4.0957031V7.4020996ZM40.7801937,11.8742676c1.3173828,0,1.8867188-.465332,1.8867188-1.4692383,0-.9589844-.6425781-1.480957-1.7734375-1.480957h-2.0009766v2.9501953h1.8876953ZM38.8924983,17.076416h2.0058594c1.1640625,0,2.0585938-.5576172,2.0585938-1.8369141,0-1.1767578-.7128906-1.8452148-2.2177734-1.8452148h-1.8466797v3.6821289Z"/>
          <path class="cls-3" d="M54.9745296,12.9362793c0,3.2163086-1.5341797,5.8129883-4.9736328,5.8129883-3.3261719,0-4.8291016-2.5888672-4.8291016-5.8261719,0-2.8149414,1.5126953-5.6723633,4.9775391-5.6723633,3.2802734,0,4.8251953,2.6020508,4.8251953,5.6855469ZM47.2167171,12.9196777c0,2.3666992.9492188,4.2368164,2.8730469,4.2368164,2.0644531,0,2.8603516-1.7773438,2.8603516-4.215332,0-2.2294922-.7988281-4.0966797-2.8857422-4.0966797-1.9951172,0-2.8476562,1.8129883-2.8476562,4.0751953Z"/>
          <path class="cls-3" d="M65.121014,12.9362793c0,3.2163086-1.5341797,5.8129883-4.9736328,5.8129883-3.3261719,0-4.8291016-2.5888672-4.8291016-5.8261719,0-2.8149414,1.5126953-5.6723633,4.9775391-5.6723633,3.2802734,0,4.8251953,2.6020508,4.8251953,5.6855469ZM57.3632015,12.9196777c0,2.3666992.9492188,4.2368164,2.8730469,4.2368164,2.0644531,0,2.8603516-1.7773438,2.8603516-4.215332,0-2.2294922-.7988281-4.0966797-2.8857422-4.0966797-1.9951172,0-2.8476562,1.8129883-2.8476562,4.0751953Z"/>
          <path class="cls-3" d="M65.9755062,7.4020996h1.9394531v5.3178711c1.2109375-1.487793,3.0869141-3.7568359,4.3466797-5.3178711h2.3623047l-3.9404297,4.5488281,4.1787109,6.6362305h-2.3632812l-3.1728516-5.3295898-1.3994141,1.5043945v3.8251953h-1.9511719V7.4020996Z"/>
        </g>
        <g>
          <g>
            <path class="cls-1" d="M6.0937948,12.4167822l.0725587.0536024c.0348795-.0104988.0718588-.0101489.1035303.0128902l1.0924048.8031033c-.1397513-.2656208-.2198925-.5527642-.2245003-.8590971-.0101489-.7308362.4059553-1.5069342,1.0792229-2.0690306l-.1385264-.100264c-.1795886-.1241197-.3319968-.2757697-.4674319-.4404849l-1.4130278-1.0025813c-1.0910049.966652-1.4938106,2.577933-.1042302,3.601862Z"/>
            <path class="cls-1" d="M5.946286,8.3432305l1.3462435.9552199c-.1368933-.3023084-.2207674-.6301057-.2191342-.9722513.1110544-.7960457.5557388-1.4852366,1.2211323-1.9065902.0029747-.0018665.0065909-.0000583.0096823-.0016332l-2.15028-1.5264154c-.5375408.4101549-.9099582,1.002698-1.0157632,1.6767821-.0128902.687266.2932677,1.3298537.8081194,1.774888Z"/>
            <path class="cls-1" d="M8.4960471,10.4454491c-.0165065.0133569-.0336546.0243807-.0539524.0275886-.6659767.5199261-1.0750817,1.2631277-1.0653994,1.9505104.0066493.4569914.1990698.8695376.5469315,1.2160578-.1303607-.2702286-.2079355-.5604633-.2123683-.8707625-.0099739-.7563251.3943483-1.5541206,1.0479013-2.1366899l-.2631127-.1867045Z"/>
            <path class="cls-1" d="M7.3109025,8.3434638c-.0016332.4754227.172531.9318308.4690067,1.3008069l.1615656.1146124c-.1892708-.3437205-.2968257-.7318278-.2946092-1.1363833.1065049-.7660074.5282085-1.4273763,1.1532981-1.8524628l-.326689-.2319661c-.0049578.0331297-.0207061.0639846-.0510944.0831159-.6061333.3840244-1.0111554,1.011622-1.1114777,1.7222771Z"/>
            <path class="cls-1" d="M15.1080444,22.2318021c-.0109071-.7520672.4251449-1.5556955,1.1342252-2.12065l-10.114237-7.4356317c-.0531941-.0387291-.0643929-.1138541-.0251972-.1670483.0005833-.0007582.0016915-.0005833.0022747-.0013415l-.0113154-.0043745-.0955978.2580383c-.1239447.0772248-.2285249.1818633-.3057497.305808-.5351494,1.108503-.7645492,2.3508663.4013475,3.201331l9.1892887,6.7041539c-.1031803-.2329577-.1713061-.4780474-.1750391-.7402852Z"/>
            <path class="cls-1" d="M33.0298055,21.1175247c-.0503945-.1558495-.1913123-.260838-.3546276-.2482393-.1409178-.1899124-.2907013-.8744371-.2823023-1.0564171.1119877-.6985231.3182316-1.377915.6121993-2.0195111.0327214-.0717421.0348795-.148617.0191312-.2225172.0008166-.0838741-.0237974-.1685065-.0825909-.2370989-.857639-.9976235-.5235424-1.8016017-.0177314-3.0180679l.0769915-.1852463c.0316715-.0764666.0270054-.1567244.0048411-.2332493.0350545-.1137375.0190146-.2407735-.0641013-.3374212-.8665046-1.0088223-.4848133-1.9691166-.0018665-3.1846495l.0629931-.1586492c.0508611-.1287858.0233308-.275303-.0718588-.3765586-.0839908-.0910483-.2090437-.1203868-.3290805-.0973476L20.2083832.0795898l-2.8668845.9556282-10.3207726,3.4785005c-.2102102.0605433-.4049638.1609823-.5846107.2850436l13.6729953,9.7058902,11.952468-3.8477099c-.375217,1.0127885-.5972093,2.050891.1433676,3.1060832l-12.7051185,3.9500736c-.0355794.0109655-.0586185.0417037-.0887152.0627014-.260838-.3553859-.2655624-.8169851-.2537804-1.3430939l.0027997-.2925678c.054594-.5641379.2846353-1.1072781.6504618-1.5393639l.0144651-.0046662-10.8251837-7.6843377c-.0020414.0014582-.0018665.0043745-.0040246.005716-.6065999.384491-1.011622,1.0120886-1.1110111,1.7222771-.0032663.6765922.3350298,1.3256541.9052337,1.7194774l.1025387.0745418.0659677.0468365c.039429-.0042579.0789163.0036746.1053967.0368043.0109655.0139985.0095073.0312632.0134152.0474781l10.9156488,7.7451143,12.0573398-3.7484375c-.3686261.9478707-.5807028,1.8739271.0797329,2.8780833l-12.6200195,3.9233016c-.0356961.0110821-.0655011.042287-.0991558.0607766-.142026-.13666-.2402486-.2629377-.24194-.4476007-.1034136-.8936267.1163622-1.7800208.6077665-2.526547l-10.8211008-7.6780384c-.627306.5403989-1.01483,1.289958-1.0054977,1.9940222.0083991.6084664.3000336,1.1455406.8436405,1.5528958.011957.0090407.0135902.0238557.0211727.0358711l8.11759,5.9677183c.0381458-.0027997.076.0059493.1011972.0381458.0105572.0134735.008924.030155.0129486.0457866l2.532438,1.8617368c.0516193-.1092463.1011972-.1902041.1432509-.2202424l12.3415085-3.8369778c-.1703146.4838801-.2977006.9840917-.3798249,1.4964353-.0247306.1810467.0541274.8870357.2939676,1.3765152l-12.452563,4.0819508c-.3532278-.4124879-.4852799-.9770925-.3378295-1.5528958.0352878-.2873767.1633737-.7652491.2974673-1.120285-.0022747-.0014582-.0050161-.0007582-.0072325-.0023914l-2.5518608-1.8760269c-.6277143.5403989-1.0154133,1.290308-1.006081,1.9945472.0057744.4203037.1556745.80287.4214703,1.1358583l2.7931593,2.0377674c.018373.0179064.0293968.0407705.0484113.0581519.0184896.0169148.0457866.0134735.0669593.0259555l.1652985.1206201c-.0156316-.0236807-.0278803-.0493446-.0431619-.0732003.0188979.003033.0334213.0204144.0526109.0204144.0373292,0,.0751251-.006066.1115211-.0177314l13.264007-4.3479215c.1875794-.0615932.2902347-.263171.2295747-.4507504Z"/>
            <path class="cls-1" d="M16.732449,20.4714958l-.2953092-.2170928c-.6825416.5207427-1.1004539,1.2768928-1.090655,1.9741328.0061827.4229285.1748058.8063113.4747228,1.1360916l.0384958.0281719c-.1055134-.2453813-.1746891-.5041195-.1786553-.7811724-.0100322-.7577249.3956315-1.5572703,1.051401-2.1401312Z"/>
          </g>
          <polygon class="cls-2" points="10.499219 5.3929018 20.1128379 2.191547 21.6609563 3.4051943 12.4582569 6.5109859 10.499219 5.3929018"/>
          <path class="cls-2" d="M13.7865795,14.0891176l-.2771321-.1911264c-.5995077-.3964152-.9588125-1.0683139-.9556282-1.7870255.1146917-.7354586.5530731-1.3807566,1.1945352-1.758356h.2484635l4.6252405,3.3542551c-.4002648.4698397-.649986,1.0491918-.7167211,1.6627946-.0827513.6098298.0240052,1.2303571.3058007,1.777469l.1242309.200681-4.5487894-3.2586919Z"/>
          <path class="cls-2" d="M13.7865795,14.0891176l-.2771321-.1911264c-.5995077-.3964152-.9588125-1.0683139-.9556282-1.7870255.1146917-.7354586.5530731-1.3807566,1.1945352-1.758356h.2484635l4.6252405,3.3542551c-.4002648.4698397-.649986,1.0491918-.7167211,1.6627946-.0827513.6098298.0240052,1.2303571.3058007,1.777469l.1242309.200681-4.5487894-3.2586919Z"/>
        </g>
      </g>
    </g>
  </g>
</svg>