<?xml version="1.0" encoding="UTF-8"?>
<svg xmlns="http://www.w3.org/2000/svg" version="1.1" viewBox="0 0 80 26">
  <defs>
    <style>
      .cls-1 {
        fill: #6f6e6f;
      }

      .cls-2 {
        stroke-width: .5px;
      }

      .cls-2, .cls-3 {
        fill: none;
      }

      .cls-2, .cls-3, .cls-4 {
        stroke: #6f6e6f;
        stroke-miterlimit: 10;
      }

      .cls-3, .cls-4 {
        stroke-width: .8px;
      }

      .cls-4 {
        fill: #fff;
      }

      .cls-5 {
        fill: #a2a2a2;
      }

      .cls-6 {
        fill: #595757;
      }
    </style>
  </defs>
  <!-- Generator: Adobe Illustrator 28.7.1, SVG Export Plug-In . SVG Version: 1.2.0 Build 142)  -->
  <g>
    <g id="_レイヤー_1" data-name="レイヤー_1">
      <g>
        <g id="_レイヤー_1-2" data-name="_レイヤー_1">
          <path class="cls-4" d="M31.2770505,23.7000008V4.5999999c-1.8999996-1.0999999-3.6000004-2.2-5.7999992-2.5-3.2999992-.4-6.6000004.2-9.6000004,1.5999999h0c-3-1.5-6.3000002-2.0999999-9.6000004-1.7-2.1999998.3-3.9000001,1.3999999-5.8000002,2.5000002v19.1000004"/>
          <path class="cls-3" d="M15.8770509,3.8v18.3999989c-1.5-.7999992-3.1999998-1.3999996-4.8999996-1.7999992-3.6999998-.5-8,.6000004-10.5,3.3999996l1.5,1.6000004c1-.7999992,2.1999998-1.3999996,3.5-1.7999992,3.3000002-.7000008,7.5-1,10,1.7999992h1c2.3999996-2.7999992,6.7000008-2.5,10-1.7999992,1.2999992.3999996,2.3999996,1,3.5,1.7999992l1.5-1.6000004c-2.5-2.7999992-6.7999992-3.7999992-10.5-3.3999996-1.7000008.3999996-3.3999996,1-4.8999996,1.7999992V3.8"/>
          <path class="cls-1" d="M2.1770513,20.5c1.1000001-.6000004,2.3-1.1000004,3.4999998-1.3999996h.5999999c0-.1000004,1.9000001-5.8999996,1.9000001-5.8999996h-.6999998c-.4000001,0-.8000002,0-1.1999998.1000004-1.5999999.3000002-3.2.8999996-4.5999999,1.8000002v5.5999994l.5-.2999992h0l-.0000002.0999985Z"/>
          <path class="cls-2" d="M15.8770509,15.1000004h0c-1.8000002-.8999996-3.8000002-1.5-5.8000002-1.6999998h-.6000004l-1.8000002,5.500001h.8999996c2.5,0,5.1000004.6000004,7.3000002,1.7999992h0"/>
          <path class="cls-1" d="M15.8770509,5h0c-1.6000004-.8000002-3.3999996-1.4000001-5.1999998-1.5999999l-1.1000004-.2,2.3000002,5.8,1.1000004.1999998c1,.3000002,2,.6999998,2.8999996,1.1000004h0"/>
          <path class="cls-5" d="M4.7770514,13v-3.3999996c-1,.5-2.0999999,1-3.2,1.6999998v3.0999994c1-.6000004,2.0999999-1,3.2-1.3999996Z"/>
          <path class="cls-2" d="M1.6770513,10.6000004c1.3999999-.8999996,2.9999998-1.5,4.6000001-1.8000002,1.1999998-.1000004,2.4000006-.1999998,3.5999994,0l.8000002.1999998v-.1999998l-2.0999994-5.4000001h-2.3000002c-1.5999999.3-3.2.9000001-4.5999999,1.7999997v5.4000006h-.0000002Z"/>
          <line class="cls-2" x1="6.2770514" y1="8.8000002" x2="6.2770514" y2="13.3999996"/>
          <path class="cls-2" d="M6.9770513,14.6999998h2"/>
          <line class="cls-2" x1="10.1770511" y1="7.5" x2="13.4770513" y2="8"/>
          <path class="cls-1" d="M16.2770505,12.1999998h0c1.6000004-.8000002,3.3999996-1.3999996,5.2000008-1.6000004l1.1000004-.1999998-2.2999992,5.8000011-1.1000004.2000008c-1,.2999992-2,.7000008-2.8999996,1.1000004h0"/>
          <path class="cls-2" d="M30.4770513,17.7000008c-1.3999996-.8999996-3-1.5-4.6000004-1.8000002-1.2000008-.1000004-2.3999996-.1999998-3.6000004,0l-.7999992.1999998v-.1999998l2.1000004-5.4000006h.3999996c.6000004,0,1.2999992,0,1.8999996.1000004,1.6000004.3000002,3.2000008.8999996,4.6000004,1.8000002v5.4000006h0v-.1000004Z"/>
          <line class="cls-2" x1="25.8770509" y1="15.8999996" x2="25.8770509" y2="20.5"/>
          <line class="cls-2" x1="21.9770513" y1="14.6999998" x2="18.677052" y2="15.1999998"/>
          <path class="cls-4" d="M21.4770513,10.5l-1.7999992,4.3000002v-5.6999998c-1.1000004-.8000002-1.7999992-2-1.7999992-3.4000001,0-2.9000001,3.5-5.3000002,7.7999992-5.3000002s7.7999992,2.3,7.7999992,5.3000002-3.5,5.1999993-7.7999992,5.1999993-2.7999992-.3000002-4.1000004-.8000002v.3000002h-.1000004v.1000004Z"/>
          <line class="cls-2" x1="19.177052" y1="16.3999996" x2="19.177052" y2="20.5"/>
          <path class="cls-1" d="M23.177052,6.4000001s.1000004-.3000002.2000008-.4000001c0,0,0-.1999998.2000008-.5999999l.7000008-2.7c.1000004-.4000001.2000008-.9.2999992-1.1l1.8999996.6c-.2000008.3-.2999992.6000001-.5,1.1000001l-1,2.5c-.1000004.3000002-.2000008.5-.2000008.5999999s0,.1999998-.1000004.4000001l-1.3999996-.4000001h-.1000004ZM22.3770509,8.3999996l.5-1.5999999,1.6000004.5999999-.5,1.6000004-1.6000004-.6000004Z"/>
          <path class="cls-1" d="M26.177052,7.4000001s.1000004-.3000002.2000008-.4000001c0,0,0-.1999998.2000008-.5999999l.7000008-2.5999999c.1000004-.4000001.2000008-.9000001.2999992-1.0999999l1.8999996.5999999c-.2000008.3-.2999992.5999999-.5,1.0999999l-1,2.5c-.1000004.3000002-.2000008.5-.2000008.5999999v.4000001l-1.3999996-.4000001h-.2000008v-.0999999ZM25.3770509,9.3999996l.5-1.5999999,1.6000004.5999999-.5,1.6000004-1.7000008-.6000004h.1000004Z"/>
        </g>
        <g>
          <g>
            <path class="cls-6" d="M37.3041997,15.8527832h1.1855469v5.7373047h3.0810547l-.1396484.9824219h-4.1269531v-6.7197266Z"/>
            <path class="cls-6" d="M42.129395,15.4553223h1.1523438v1.1660156h-1.1523438v-1.1660156ZM42.129395,17.545166h1.1523438v5.0273438h-1.1523438v-5.0273438Z"/>
            <path class="cls-6" d="M48.2915044,22.114502c0,1.5556641-.6337891,2.4912109-2.3037109,2.4912109-1.5732422,0-2.0390625-.8486328-2.1035156-1.5849609h1.1376953c.09375.4501953.4570312.6845703,1.0283203.6845703.9179688,0,1.1191406-.5644531,1.1191406-1.5380859v-.3457031c-.2548828.5029297-.7236328.7138672-1.3886719.7138672-1.1962891,0-1.9814453-.9609375-1.9814453-2.5175781,0-1.6113281.9433594-2.5712891,2.0810547-2.5712891.7929688,0,1.1396484.3017578,1.2626953.6103516,0-.1503906.0332031-.4121094.0498047-.5117188h1.1181641c-.0097656.2451172-.0195312.7988281-.0195312,1.4951172v3.0742188ZM44.9868169,19.9963379c0,.9853516.4101562,1.5810547,1.1054688,1.5810547.8222656,0,1.1074219-.4882812,1.1074219-1.5966797,0-1.0361328-.1796875-1.5761719-1.0722656-1.5761719-.6699219,0-1.140625.5175781-1.140625,1.5917969Z"/>
            <path class="cls-6" d="M50.2397466,15.4553223v2.734375c.2373047-.4355469.7011719-.7431641,1.4296875-.7431641.84375,0,1.5839844.4580078,1.5839844,1.8164062v3.3095703h-1.1386719v-3.1289062c0-.6191406-.2167969-1.0322266-.8720703-1.0322266-.6943359,0-1.0029297.4658203-1.0029297,1.3378906v2.8232422h-1.1523438v-7.1171875h1.1523438Z"/>
            <path class="cls-6" d="M53.6489263,17.545166h.7412109v-1.3984375h1.1455078v1.3984375h.9355469v.9072266h-.9355469v2.7705078c0,.3710938.0898438.5253906.5068359.5253906.1259766,0,.2011719-.0058594.3300781-.0253906v.8125c-.2353516.0791016-.5771484.0917969-.7568359.0917969-.890625,0-1.2255859-.3535156-1.2255859-1.2548828v-2.9199219h-.7412109v-.9072266Z"/>
            <path class="cls-6" d="M58.5014653,19.114502c0-1.0410156-.0097656-1.3505859-.0195312-1.5693359h1.125c.0166016.0908203.0429688.46875.0400391.6953125.2050781-.4101562.6738281-.7939453,1.4277344-.7939453,1.0136719,0,1.5927734.6240234,1.5927734,1.8476562v3.2783203h-1.1552734v-3.0673828c0-.6230469-.1757812-1.09375-.84375-1.09375-.6992188,0-1.0146484.4560547-1.0146484,1.3945312v2.7666016h-1.1523438v-3.4580078Z"/>
            <path class="cls-6" d="M67.8374028,19.9846191c0,1.4628906-.6796875,2.6796875-2.3544922,2.6796875-1.6914062,0-2.3046875-1.2871094-2.3046875-2.6533203,0-1.2753906.7148438-2.5644531,2.3701172-2.5644531,1.5537109,0,2.2890625,1.1455078,2.2890625,2.5380859ZM64.3530278,19.9865723c0,1.1005859.4052734,1.7607422,1.1787109,1.7607422.7548828,0,1.1347656-.6513672,1.1347656-1.7558594,0-1.0292969-.3808594-1.6269531-1.1679688-1.6269531-.7431641,0-1.1455078.6435547-1.1455078,1.6220703Z"/>
            <path class="cls-6" d="M68.9721684,17.545166c.5527344,1.8603516.9414062,3.1396484,1.0839844,3.9179688h.0097656c.1230469-.7109375.6982422-2.4111328,1.1376953-3.9179688h1.1337891l-1.7148438,5.0273438h-1.21875l-1.6611328-5.0273438h1.2294922Z"/>
            <path class="cls-6" d="M73.3823247,20.3088379c-.0029297.7490234.2978516,1.4375,1.0927734,1.4375.6679688,0,.8759766-.4384766.9560547-.6738281h1.1318359c-.2167969.7646484-.7714844,1.5908203-2.1279297,1.5908203-1.5947266,0-2.2177734-1.1435547-2.2177734-2.6064453,0-1.2412109.6191406-2.6103516,2.2714844-2.6103516,1.6484375,0,2.1416016,1.2128906,2.1416016,2.4628906,0,.0546875-.0068359.3378906-.0136719.3994141h-3.234375ZM75.5034184,19.5354004c-.0224609-.6640625-.2900391-1.2060547-1.0341797-1.2060547-.8330078,0-1.0361328.7060547-1.0673828,1.2060547h2.1015625Z"/>
            <path class="cls-6" d="M77.1440434,22.5725098v-7.1171875h1.1523438v7.1171875h-1.1523438Z"/>
          </g>
          <g>
            <path class="cls-6" d="M44.4750981,9.3015137c-.3125,1.8510742-1.5449219,3.5917969-4.3330078,3.5917969-3.4389648,0-4.6992188-2.5380859-4.6992188-5.7827148,0-3.0839844,1.5537109-5.7163086,4.7871094-5.7163086,2.8671875,0,4.0400391,1.8032227,4.1845703,3.5888672h-1.9414062c-.2460938-1.0541992-.7285156-1.9838867-2.3095703-1.9838867-1.9794922,0-2.6870117,1.9746094-2.6870117,4.1049805,0,2.2041016.6313477,4.1958008,2.7094727,4.1958008,1.5517578,0,2.0839844-1.0175781,2.3408203-1.9985352h1.9482422Z"/>
            <path class="cls-6" d="M54.5170903,7.079834c0,3.2167969-1.5332031,5.8134766-4.9726562,5.8134766-3.3271484,0-4.8291016-2.5888672-4.8291016-5.8266602,0-2.8149414,1.5117188-5.6723633,4.9775391-5.6723633,3.2792969,0,4.8242188,2.6020508,4.8242188,5.6855469ZM46.7602544,7.0632324c0,2.3666992.9482422,4.2368164,2.8720703,4.2368164,2.0654297,0,2.8613281-1.7773438,2.8613281-4.215332,0-2.2294922-.7988281-4.0966797-2.8857422-4.0966797-1.9951172,0-2.8476562,1.8129883-2.8476562,4.0751953Z"/>
            <path class="cls-6" d="M64.3217778,8.3537598c0-1.9580078.0273438-4.1855469.0761719-5.4165039h-.0732422c-.5078125,2.2114258-1.8476562,6.6123047-2.8828125,9.793457h-1.7373047c-.7714844-2.6733398-2.1425781-7.59375-2.6308594-9.8212891h-.078125c.0927734,1.3027344.1367188,3.7495117.1367188,5.675293v4.1459961h-1.8251953V1.5456543h2.9560547c.9257812,2.8510742,2.0966797,6.9785156,2.4335938,8.621582h.0214844c.234375-1.3212891,1.6923828-5.7426758,2.6601562-8.621582h2.8535156v11.1850586h-1.9101562v-4.3769531Z"/>
            <path class="cls-6" d="M69.6098638,1.5456543v11.1850586h-1.9736328V1.5456543h1.9736328Z"/>
            <path class="cls-6" d="M79.5229497,9.3015137c-.3125,1.8510742-1.5449219,3.5917969-4.3330078,3.5917969-3.4384766,0-4.6992188-2.5380859-4.6992188-5.7827148,0-3.0839844,1.5537109-5.7163086,4.7871094-5.7163086,2.8662109,0,4.0400391,1.8032227,4.1845703,3.5888672h-1.9423828c-.2451172-1.0541992-.7285156-1.9838867-2.3085938-1.9838867-1.9794922,0-2.6865234,1.9746094-2.6865234,4.1049805,0,2.2041016.6308594,4.1958008,2.7089844,4.1958008,1.5517578,0,2.0830078-1.0175781,2.3398438-1.9985352h1.9492188Z"/>
          </g>
        </g>
      </g>
    </g>
  </g>
</svg>