<?xml version="1.0" encoding="UTF-8"?>
<svg xmlns="http://www.w3.org/2000/svg" version="1.1" viewBox="0 0 80 26">
  <defs>
    <style>
      .cls-1 {
        fill: #fff;
      }

      .cls-2 {
        fill: #666;
      }

      .cls-3 {
        fill: #b5b5b6;
      }

      .cls-4 {
        fill: #595757;
      }
    </style>
  </defs>
  <!-- Generator: Adobe Illustrator 28.7.1, SVG Export Plug-In . SVG Version: 1.2.0 Build 142)  -->
  <g>
    <g id="_レイヤー_1" data-name="レイヤー_1">
      <g>
        <g>
          <g>
            <path class="cls-4" d="M28.5550548,23.3969727l-2.1855469-6.71875h1.2724609l.9472656,3.140625c.2749023.90625.5527344,1.828125.6845703,2.4550781h.0195312c.1367188-.5800781.4428711-1.5546875.7197266-2.4306641l.9970703-3.1650391h1.2177734l-2.2563477,6.71875h-1.4165039Z"/>
            <path class="cls-4" d="M36.1234142,20.809082c0,1.4628906-.6796875,2.6796875-2.3549805,2.6796875-1.6904297,0-2.3037109-1.2871094-2.3037109-2.6533203,0-1.2753906.7138672-2.5634766,2.3691406-2.5634766,1.5541992,0,2.2895508,1.1455078,2.2895508,2.5371094ZM32.6395274,20.8110352c0,1.1015625.4047852,1.7607422,1.1777344,1.7607422.7553711,0,1.1352539-.6503906,1.1352539-1.7558594,0-1.0283203-.3818359-1.6269531-1.168457-1.6269531-.7426758,0-1.1445312.6445312-1.1445312,1.6220703Z"/>
            <path class="cls-4" d="M36.4368907,16.2807617h1.1523438v1.1650391h-1.1523438v-1.1650391ZM36.4368907,18.3696289h1.1523438v5.0273438h-1.1523438v-5.0273438Z"/>
            <path class="cls-4" d="M42.2635509,21.6928711c-.1660156,1.0009766-.796875,1.7949219-2.1367188,1.7949219-1.496582,0-2.2163086-.9472656-2.2163086-2.6035156,0-1.5439453.8330078-2.6123047,2.2875977-2.6123047,1.5410156,0,2.0195312,1.09375,2.0625,1.8359375h-1.1513672c-.0654297-.4912109-.3095703-.9394531-.9345703-.9394531-.7700195,0-1.0893555.6914062-1.0893555,1.6777344,0,1.2138672.3916016,1.7519531,1.0678711,1.7519531.6123047,0,.8330078-.390625.9658203-.9052734h1.1445312Z"/>
            <path class="cls-4" d="M43.812379,21.1342773c-.0029297.7480469.2978516,1.4365234,1.0927734,1.4365234.6679688,0,.8759766-.4375.9560547-.6728516h1.1318359c-.2167969.7636719-.7714844,1.5898438-2.1279297,1.5898438-1.5947266,0-2.2177734-1.1425781-2.2177734-2.6064453,0-1.2412109.6191406-2.609375,2.2714844-2.609375,1.6484375,0,2.1416016,1.2128906,2.1416016,2.4619141,0,.0546875-.0068359.3388672-.0136719.4003906h-3.234375ZM45.9334728,20.3598633c-.0224609-.6630859-.2900391-1.2050781-1.0341797-1.2050781-.8330078,0-1.0361328.7050781-1.0673828,1.2050781h2.1015625Z"/>
            <path class="cls-4" d="M52.8846446,22.1577148c0,.3417969.0253906.9140625.0712891,1.2392578h-1.0185547c-.0361328-.1582031-.0683594-.4511719-.0751953-.6640625-.2041016.4404297-.6884766.7519531-1.4462891.7519531-1.2382812,0-1.6572266-.7929688-1.6572266-1.53125,0-.8554688.5810547-1.6328125,2.34375-1.6328125h.6503906v-.40625c0-.4335938-.1298828-.8105469-.8085938-.8105469-.6328125,0-.8115234.3105469-.8710938.7431641h-1.1181641c.0605469-.8105469.5400391-1.5751953,2.0117188-1.5751953,1.1425781,0,1.9179688.4140625,1.9179688,1.625v2.2607422ZM51.7899181,21.081543h-.6728516c-1.0078125,0-1.1972656.4091797-1.1972656.7871094,0,.3916016.2363281.7236328.7822266.7236328.8554688,0,1.0878906-.5712891,1.0878906-1.40625v-.1044922Z"/>
            <path class="cls-4" d="M57.5594493,21.6928711c-.1660156,1.0009766-.796875,1.7949219-2.1367188,1.7949219-1.4960938,0-2.2158203-.9472656-2.2158203-2.6035156,0-1.5439453.8330078-2.6123047,2.2871094-2.6123047,1.5410156,0,2.0195312,1.09375,2.0625,1.8359375h-1.1513672c-.0654297-.4912109-.3095703-.9394531-.9355469-.9394531-.7685547,0-1.0878906.6914062-1.0878906,1.6777344,0,1.2138672.3916016,1.7519531,1.0673828,1.7519531.6123047,0,.8330078-.390625.9658203-.9052734h1.1445312Z"/>
            <path class="cls-4" d="M57.5574962,18.3696289h.7412109v-1.3974609h1.1455078v1.3974609h.9355469v.9072266h-.9355469v2.7714844c0,.3701172.0898438.5244141.5068359.5244141.1259766,0,.2011719-.0058594.3300781-.0253906v.8125c-.2353516.0791016-.5771484.0917969-.7568359.0917969-.890625,0-1.2255859-.3535156-1.2255859-1.2539062v-2.9208984h-.7412109v-.9072266Z"/>
            <path class="cls-4" d="M65.1795665,20.809082c0,1.4628906-.6796875,2.6796875-2.3544922,2.6796875-1.6914062,0-2.3046875-1.2871094-2.3046875-2.6533203,0-1.2753906.7148438-2.5634766,2.3701172-2.5634766,1.5537109,0,2.2890625,1.1455078,2.2890625,2.5371094ZM61.6951915,20.8110352c0,1.1015625.4052734,1.7607422,1.1787109,1.7607422.7548828,0,1.1347656-.6503906,1.1347656-1.7558594,0-1.0283203-.3808594-1.6269531-1.1679688-1.6269531-.7431641,0-1.1455078.6445312-1.1455078,1.6220703Z"/>
            <path class="cls-4" d="M65.4930431,20.0737305c0-.8183594-.0029297-1.390625-.0195312-1.7041016h1.125c.0234375.2236328.0302734.5439453.0302734.9277344.1914062-.4892578.6699219-1.0058594,1.5566406-1.0117188v1.1738281c-1.0673828.0029297-1.5400391.4589844-1.5400391,1.5898438v2.3476562h-1.1523438v-3.3232422Z"/>
          </g>
          <g>
            <path class="cls-4" d="M34.0147716,2.6635742v11.1845703h-1.9736328V2.6635742h1.9736328Z"/>
            <path class="cls-4" d="M35.4283458,2.6635742h3.8071289c3.2001953,0,5.1708984,1.9863281,5.1708984,5.3447266,0,3.6435547-1.9404297,5.8398438-5.2939453,5.8398438h-3.684082V2.6635742ZM37.4132091,12.2758789h1.6630859c2.1757812,0,3.2851562-1.5722656,3.2851562-4.2294922,0-2.3007812-1.1337891-3.7880859-3.2685547-3.7880859h-1.6796875v8.0175781Z"/>
            <path class="cls-4" d="M54.5567638,8.1967773c0,3.2167969-1.5341797,5.8144531-4.9736328,5.8144531-3.3261719,0-4.8291016-2.5898438-4.8291016-5.8271484,0-2.8154297,1.5126953-5.6728516,4.9775391-5.6728516,3.2802734,0,4.8251953,2.6025391,4.8251953,5.6855469ZM46.7989513,8.1811523c0,2.3662109.9492188,4.2363281,2.8730469,4.2363281,2.0644531,0,2.8603516-1.7773438,2.8603516-4.2148438,0-2.2304688-.7988281-4.0976562-2.8857422-4.0976562-1.9951172,0-2.8476562,1.8134766-2.8476562,4.0761719Z"/>
            <path class="cls-4" d="M55.4122325,2.6635742h1.9736328v9.5507812h5.1279297l-.2314453,1.6337891h-6.8701172V2.6635742Z"/>
          </g>
        </g>
        <g>
          <path class="cls-4" d="M21.503334,9.1014115c.911884-.9669615,1.474611-2.2668622,1.474611-3.7008759,0-2.9826053-2.4178775-5.4005355-5.4004829-5.4005355-2.982658,0-5.4005355,2.4179302-5.4005355,5.4005355,0,1.4340137.5627269,2.7339145,1.474611,3.7008759h7.8517965Z"/>
          <rect class="cls-3" x="11.8145741" y="5.0295816" width="11.4739631" height="1.2250398"/>
          <ellipse class="cls-1" cx="17.5601831" cy="1.3285814" rx=".2933195" ry=".1466597"/>
          <ellipse class="cls-1" cx="17.5601831" cy="2.2948098" rx=".3623358" ry=".1811679"/>
          <ellipse class="cls-1" cx="17.5601831" cy="3.3473085" rx=".4658601" ry=".2329301"/>
          <ellipse class="cls-1" cx="18.9364615" cy="1.2386044" rx=".2933195" ry=".1466597" transform="translate(.038773 2.9709679) rotate(-8.9799994)"/>
          <ellipse class="cls-1" cx="19.074162" cy="2.1875446" rx=".3623358" ry=".1811679" transform="translate(-.107659 3.0040928) rotate(-8.9799994)"/>
          <ellipse class="cls-1" cx="19.2437166" cy="3.2362139" rx=".4658608" ry=".2329301" transform="translate(-.2692671 3.0434064) rotate(-8.9799825)"/>
          <ellipse class="cls-1" cx="16.2419323" cy="1.241313" rx=".1466597" ry=".2933195" transform="translate(12.0505577 16.982139) rotate(-79.4599992)"/>
          <ellipse class="cls-1" cx="16.0649539" cy="2.1884341" rx=".1811679" ry=".3623357" transform="translate(10.9748119 17.5820185) rotate(-79.4599992)"/>
          <ellipse class="cls-1" cx="15.8646767" cy="3.226962" rx=".2329305" ry=".4658601" transform="translate(9.7901644 18.2336788) rotate(-79.4599992)"/>
          <ellipse class="cls-1" cx="15.0447829" cy="1.149716" rx=".1466597" ry=".2933195" transform="translate(6.813663 13.7955059) rotate(-61.3100015)"/>
          <ellipse class="cls-1" cx="14.5793083" cy="1.9987478" rx=".1811679" ry=".3623358" transform="translate(5.8268527 13.8286145) rotate(-61.3100015)"/>
          <ellipse class="cls-1" cx="14.0749673" cy="2.9229449" rx=".2329305" ry=".4658601" transform="translate(4.7538975 13.8667089) rotate(-61.3100015)"/>
          <ellipse class="cls-1" cx="20.138887" cy="1.1374367" rx=".2933195" ry=".1466597" transform="translate(1.1912836 8.0553017) rotate(-23.2900009)"/>
          <ellipse class="cls-1" cx="20.5196795" cy="2.0278431" rx=".3623357" ry=".1811679" transform="translate(.8702588 8.2784158) rotate(-23.2900009)"/>
          <ellipse class="cls-1" cx="20.9369852" cy="2.9931931" rx=".4658609" ry=".2329301" transform="translate(.5225776 8.5220735) rotate(-23.2900009)"/>
          <polygon class="cls-2" points="15.0475868 14.1310433 15.8779078 25.9932761 19.3028701 25.9932761 20.1331911 14.1310433 15.0475868 14.1310433"/>
          <polygon class="cls-2" points="13.8286172 9.5327635 14.9305868 13.6996913 20.2239161 13.6996913 21.3258857 9.5327635 13.8286172 9.5327635"/>
        </g>
      </g>
    </g>
  </g>
</svg>