<?xml version="1.0" encoding="UTF-8"?>
<svg xmlns="http://www.w3.org/2000/svg" version="1.1" viewBox="0 0 80 26">
  <defs>
    <style>
      .cls-1 {
        fill: none;
      }

      .cls-1, .cls-2, .cls-3 {
        stroke-miterlimit: 10;
      }

      .cls-1, .cls-3 {
        stroke: #595757;
        stroke-width: .5px;
      }

      .cls-2 {
        fill: #a2a2a2;
        stroke: #000;
      }

      .cls-4 {
        fill: #6f6e6f;
      }

      .cls-5 {
        fill: #fff;
      }

      .cls-3 {
        fill: #b5b5b6;
      }

      .cls-6 {
        fill: #595757;
      }
    </style>
  </defs>
  <!-- Generator: Adobe Illustrator 28.7.1, SVG Export Plug-In . SVG Version: 1.2.0 Build 142)  -->
  <g>
    <g id="_レイヤー_1" data-name="レイヤー_1">
      <g>
        <g>
          <g>
            <path class="cls-6" d="M27.8136784,15.2197266h2.5205078c1.3828125,0,2.0693359.7246094,2.0693359,1.6914062,0,.8603516-.4921875,1.2275391-.8671875,1.3720703.484375.1914062,1.09375.6611328,1.09375,1.6386719,0,1.2919922-.9609375,2.0175781-2.3554688,2.0175781h-2.4609375v-6.7197266ZM30.1125065,17.90625c.7919922,0,1.1347656-.2792969,1.1347656-.8828125,0-.5761719-.3867188-.8896484-1.0654297-.8896484h-1.203125v1.7724609h1.1337891ZM28.9787174,21.0322266h1.2060547c.6982422,0,1.2363281-.3359375,1.2363281-1.1044922,0-.7060547-.4287109-1.1083984-1.3330078-1.1083984h-1.109375v2.2128906Z"/>
            <path class="cls-6" d="M37.5314518,19.3515625c0,1.4628906-.6796875,2.6796875-2.3544922,2.6796875-1.6904297,0-2.3037109-1.2871094-2.3037109-2.6533203,0-1.2753906.7138672-2.5644531,2.3691406-2.5644531,1.5537109,0,2.2890625,1.1455078,2.2890625,2.5380859ZM34.0480534,19.3535156c0,1.1005859.4042969,1.7607422,1.1777344,1.7607422.7548828,0,1.1347656-.6513672,1.1347656-1.7558594,0-1.0292969-.3818359-1.6269531-1.1679688-1.6269531-.7431641,0-1.1445312.6435547-1.1445312,1.6220703Z"/>
            <path class="cls-6" d="M41.823444,20.6992188c0,.3427734.0253906.9140625.0712891,1.2402344h-1.0185547c-.0361328-.1582031-.0683594-.4511719-.0751953-.6650391-.2041016.4414062-.6884766.7529297-1.4462891.7529297-1.2382812,0-1.6572266-.7929688-1.6572266-1.5322266,0-.8544922.5810547-1.6318359,2.34375-1.6318359h.6503906v-.4072266c0-.4326172-.1298828-.8105469-.8085938-.8105469-.6328125,0-.8115234.3115234-.8710938.7431641h-1.1181641c.0605469-.8095703.5400391-1.5751953,2.0117188-1.5751953,1.1425781,0,1.9179688.4140625,1.9179688,1.625v2.2607422ZM40.7287174,19.6230469h-.6728516c-1.0078125,0-1.1972656.4101562-1.1972656.7871094,0,.3916016.2363281.7246094.7822266.7246094.8554688,0,1.0878906-.5722656,1.0878906-1.40625v-.1054688Z"/>
            <path class="cls-6" d="M42.6496159,18.6152344c0-.8173828-.0029297-1.390625-.0195312-1.703125h1.125c.0234375.2236328.0302734.5429688.0302734.9277344.1914062-.4902344.6699219-1.0068359,1.5566406-1.0126953v1.1738281c-1.0673828.0029297-1.5400391.4589844-1.5400391,1.5898438v2.3486328h-1.1523438v-3.3242188Z"/>
            <path class="cls-6" d="M49.8224674,14.8222656v5.7460938c0,.5517578.0068359,1.0712891.0195312,1.3710938h-1.125c-.0166016-.1337891-.0400391-.4365234-.0400391-.6435547-.2470703.4873047-.6328125.7382812-1.4404297.7382812-1.2890625,0-1.9462891-1.0644531-1.9462891-2.5986328,0-1.4931641.7910156-2.6220703,2.1484375-2.6220703.7695312,0,1.1123047.2802734,1.2314453.5068359v-2.4980469h1.1523438ZM46.4718815,19.3925781c0,1.0361328.3886719,1.6943359,1.1279297,1.6943359.9355469,0,1.1210938-.6640625,1.1210938-1.7119141,0-1.1845703-.2783203-1.6064453-1.0761719-1.6064453-.7128906,0-1.1728516.5556641-1.1728516,1.6240234Z"/>
            <path class="cls-6" d="M57.2091862,21.9394531h-.8837891c-.0429688-.2109375-.0761719-.5117188-.0927734-.8447266-.3486328.7041016-1.0175781.9423828-1.8994141.9423828-1.7568359,0-2.6572266-1.4765625-2.6572266-3.4208984,0-1.9355469,1.0634766-3.4873047,3.0097656-3.4873047,1.5400391,0,2.359375.8496094,2.5361328,1.9921875h-1.1650391c-.1513672-.5273438-.4990234-1.0283203-1.4355469-1.0283203-1.2441406,0-1.7236328,1.15625-1.7236328,2.5302734,0,1.3310547.4873047,2.4570312,1.6875,2.4570312,1.1582031,0,1.4482422-.8056641,1.4482422-1.7978516v-.0351562h-1.5195312v-1.0146484h2.6953125v3.7070312Z"/>
            <path class="cls-6" d="M61.8849674,20.6992188c0,.3427734.0253906.9140625.0712891,1.2402344h-1.0185547c-.0361328-.1582031-.0683594-.4511719-.0751953-.6650391-.2041016.4414062-.6884766.7529297-1.4462891.7529297-1.2382812,0-1.6572266-.7929688-1.6572266-1.5322266,0-.8544922.5810547-1.6318359,2.3427734-1.6318359h.6513672v-.4072266c0-.4326172-.1298828-.8105469-.8085938-.8105469-.6328125,0-.8115234.3115234-.8710938.7431641h-1.1181641c.0605469-.8095703.5400391-1.5751953,2.0117188-1.5751953,1.1425781,0,1.9179688.4140625,1.9179688,1.625v2.2607422ZM60.7902409,19.6230469h-.6728516c-1.0078125,0-1.1972656.4101562-1.1972656.7871094,0,.3916016.2363281.7246094.7822266.7246094.8554688,0,1.0878906-.5722656,1.0878906-1.40625v-.1054688Z"/>
            <path class="cls-6" d="M62.5158268,18.4716797c0-.9599609-.0097656-1.3310547-.0195312-1.5595703h1.1181641c.0234375.1582031.0361328.4511719.0400391.6347656.2529297-.4121094.6943359-.7333984,1.3994141-.7333984.6767578,0,1.0830078.3261719,1.2646484.8115234.2216797-.4179688.7460938-.8115234,1.5-.8115234.8212891,0,1.5693359.4316406,1.5693359,1.7392578v3.3867188h-1.1318359v-3.1953125c0-.5058594-.1738281-.9726562-.7861328-.9726562-.6679688,0-.9433594.5078125-.9433594,1.2744141v2.8935547h-1.1289062v-3.2373047c0-.5087891-.2265625-.9238281-.7851562-.9238281-.6181641,0-.9580078.4150391-.9580078,1.3378906v2.8232422h-1.1386719v-3.4677734Z"/>
            <path class="cls-6" d="M71.0753971,19.6757812c-.0029297.7490234.2978516,1.4375,1.0927734,1.4375.6679688,0,.8759766-.4384766.9560547-.6738281h1.1318359c-.2167969.7646484-.7714844,1.5908203-2.1279297,1.5908203-1.5947266,0-2.2177734-1.1435547-2.2177734-2.6064453,0-1.2412109.6191406-2.6103516,2.2714844-2.6103516,1.6484375,0,2.1416016,1.2128906,2.1416016,2.4628906,0,.0546875-.0068359.3378906-.0136719.3994141h-3.234375ZM73.1964909,18.9023438c-.0224609-.6640625-.2900391-1.2060547-1.0341797-1.2060547-.8330078,0-1.0361328.7060547-1.0673828,1.2060547h2.1015625Z"/>
            <path class="cls-6" d="M75.5646549,20.4248047c.0693359.4804688.4179688.7529297.9521484.7529297.5439453,0,.7998047-.2421875.7998047-.6015625,0-.3701172-.2978516-.5361328-1.0927734-.7568359-1.2998047-.3623047-1.6152344-.8242188-1.6152344-1.5253906,0-.6445312.4169922-1.4804688,1.8359375-1.4804688,1.2939453,0,1.8251953.6806641,1.8876953,1.5009766h-1.125c-.0527344-.3173828-.2285156-.6513672-.8164062-.6513672-.4267578,0-.6523438.1943359-.6523438.5263672,0,.3027344.1972656.4580078.9628906.6542969,1.3408203.3505859,1.7529297.828125,1.7529297,1.6279297,0,.9990234-.8212891,1.5556641-1.9707031,1.5556641-1.1679688,0-1.9443359-.5292969-2.046875-1.6025391h1.1279297Z"/>
          </g>
          <g>
            <path class="cls-6" d="M26.2824284,4.0732422h2.7792969c2.3369141,0,3.7763672,1.4501953,3.7763672,3.9023438,0,2.6601562-1.4169922,4.2636719-3.8662109,4.2636719h-2.6894531V4.0732422ZM27.7316471,11.0908203h1.2138672c1.5888672,0,2.3994141-1.1474609,2.3994141-3.0878906,0-1.6796875-.828125-2.7646484-2.3876953-2.7646484h-1.2255859v5.8525391Z"/>
            <path class="cls-6" d="M34.9005924,4.0732422v8.1660156h-1.4414062V4.0732422h1.4414062Z"/>
            <path class="cls-6" d="M36.7287174,9.8642578c.1318359.8505859.6943359,1.34375,1.5986328,1.34375.9472656,0,1.3818359-.4375,1.3818359-1.1289062,0-.796875-.4404297-1.1279297-1.7070312-1.5009766-1.8300781-.5234375-2.4794922-1.1640625-2.4794922-2.3408203,0-1.4404297,1.1328125-2.2705078,2.6757812-2.2705078,1.8896484,0,2.6914062,1.0244141,2.7832031,2.2822266h-1.4199219c-.109375-.6816406-.4648438-1.1640625-1.3828125-1.1640625-.8085938,0-1.2089844.3828125-1.2089844,1.0126953,0,.6630859.4150391.8808594,1.6240234,1.2373047,2.0605469.609375,2.5869141,1.4208984,2.5869141,2.5771484,0,1.3398438-.9033203,2.4267578-2.9189453,2.4267578-1.7519531,0-2.8554688-.9023438-2.9609375-2.4746094h1.4277344Z"/>
            <path class="cls-6" d="M41.6808659,4.0732422h1.4160156v3.8828125c.8837891-1.0869141,2.2539062-2.7431641,3.1738281-3.8828125h1.7246094l-2.8769531,3.3212891,3.0507812,4.8447266h-1.7255859l-2.3164062-3.890625-1.0214844,1.0976562v2.7929688h-1.4248047V4.0732422Z"/>
            <path class="cls-6" d="M48.4416081,12.3544922l2.8056641-8.3916016h1.0712891l-2.796875,8.3916016h-1.0800781Z"/>
            <path class="cls-6" d="M58.6408268,12.2392578h-1.0742188c-.0527344-.2558594-.0927734-.6220703-.1132812-1.0263672-.4228516.8554688-1.2363281,1.1455078-2.3076172,1.1455078-2.1347656,0-3.2304688-1.7949219-3.2304688-4.1582031,0-2.3505859,1.2939453-4.2373047,3.6582031-4.2373047,1.8710938,0,2.8671875,1.0322266,3.0830078,2.4208984h-1.4160156c-.1845703-.640625-.6074219-1.2490234-1.7451172-1.2490234-1.5117188,0-2.0947266,1.4042969-2.0947266,3.0742188,0,1.6181641.5927734,2.9853516,2.0507812,2.9853516,1.4072266,0,1.7607422-.9785156,1.7607422-2.1835938v-.0429688h-1.8466797v-1.2333984h3.2753906v4.5048828Z"/>
            <path class="cls-6" d="M60.9523502,10.1123047l-.6513672,2.1269531h-1.4228516c.2666016-.7919922,2.2539062-7.2666016,2.5517578-8.1660156h1.8554688l2.6748047,8.1660156h-1.5205078l-.6875-2.1269531h-2.7998047ZM63.4533268,8.9072266c-.5703125-1.8076172-.9521484-2.9931641-1.1289062-3.7167969h-.0146484c-.2080078.9267578-.5966797,2.1953125-1.0712891,3.7167969h2.2148438Z"/>
            <path class="cls-6" d="M72.6798893,9.0439453c0-1.4296875.0195312-3.0556641.0556641-3.9550781h-.0537109c-.3710938,1.6152344-1.3496094,4.828125-2.1054688,7.1503906h-1.2675781c-.5634766-1.9521484-1.5644531-5.5439453-1.9208984-7.1699219h-.0576172c.0683594.9501953.1005859,2.7373047.1005859,4.1435547v3.0263672h-1.3330078V4.0732422h2.1582031c.6757812,2.0810547,1.53125,5.0947266,1.7773438,6.2949219h.0146484c.171875-.9648438,1.2363281-4.1933594,1.9423828-6.2949219h2.0830078v8.1660156h-1.3935547v-3.1953125Z"/>
            <path class="cls-6" d="M79.6173893,8.5791016h-3.5927734v2.4667969h3.9609375l-.1787109,1.1933594h-5.1894531V4.0732422h5.15625v1.2011719h-3.7490234v2.0996094h3.5927734v1.2050781Z"/>
          </g>
        </g>
        <g id="_レイヤー_1-2" data-name="レイヤー_1">
          <g>
            <circle class="cls-2" cx="14.6216954" cy="16.2309938" r="9.3081185"/>
            <polygon class="cls-5" points="17.5708029 18.9957814 21.3493462 22.5900049 18.6767186 24.6175165 16.280569 19.9173773 17.5708029 18.9957814"/>
            <circle class="cls-4" cx="14.6216954" cy="16.2309938" r="4.0550214"/>
            <circle class="cls-5" cx="14.6216952" cy="16.2309938" r="1.658872"/>
            <path class="cls-6" d="M14.621381,26c-5.3864758,0-9.7685561-4.3825303-9.7685561-9.7690061S9.2349052,6.4619877,14.621381,6.4619877s9.7694561,4.3825303,9.7694561,9.7690061-4.3829803,9.7690061-9.7694561,9.7690061ZM14.621381,7.3835836c-4.8779781,0-8.8469603,3.9689822-8.8469603,8.8474103s3.9689822,8.8474103,8.8469603,8.8474103c4.8788781,0,8.8478603-3.9689822,8.8478603-8.8474103s-3.9689822-8.8474103-8.8478603-8.8474103Z"/>
            <polygon class="cls-5" points="16.5570471 13.4662062 14.1608975 8.8582269 11.1196318 11.1622166 15.0824933 14.5721202 16.5570471 13.4662062"/>
            <path class="cls-6" d="M10.0134017.0571665C4.5000265.0571665.0144466,4.5427464.0144466,10.0561216.0144466,15.5699468,4.5000265,20.0555267,10.0134017,20.0555267c5.5142752,0,9.9998551-4.4855799,9.9998551-9.9994051C20.0132568,4.5427464,15.527677.0571665,10.0134017.0571665Z"/>
            <path class="cls-5" d="M10.013717,19.3644194C4.9449397,19.3644194.7977581,15.217238.7977581,10.0563009h9.3081188v9.3081185h-.0921599Z"/>
            <path class="cls-5" d="M10.013717,10.0563009V.7481832c5.1609363,0,9.3081194,4.1471814,9.3081194,9.3081185"/>
            <circle class="cls-3" cx="10.0137171" cy="10.0563009" r="4.0550218"/>
            <path class="cls-1" d="M10.013717,15.7701959c-3.1334265,0-5.7138942-2.5804677-5.7138942-5.7138942h0"/>
            <path class="cls-1" d="M10.013717,4.2502476c3.1334265,0,5.7138942,2.5804686,5.8060541,5.7138942h0v.4607979"/>
            <path class="cls-1" d="M10.013717,2.499215c4.1471805,0,7.5570859,3.4099045,7.6492458,7.5570859h0"/>
            <path class="cls-1" d="M10.013717,17.6133876c-4.1471814,0-7.5570859-3.4099054-7.5570859-7.5570859h0"/>
            <circle class="cls-5" cx="10.013717" cy="10.0563006" r="1.6588724"/>
          </g>
        </g>
      </g>
    </g>
  </g>
</svg>