<?xml version="1.0" encoding="UTF-8"?>
<svg xmlns="http://www.w3.org/2000/svg" version="1.1" viewBox="0 0 27.8 25.7">
  <defs>
    <style>
      .cls-1 {
        fill: #6f6e6f;
      }

      .cls-2 {
        fill: #494645;
        stroke: #fff;
        stroke-miterlimit: 10;
      }

      .cls-3 {
        fill: #fff;
      }
    </style>
  </defs>
  <!-- Generator: Adobe Illustrator 28.7.1, SVG Export Plug-In . SVG Version: 1.2.0 Build 142)  -->
  <g>
    <g id="_レイヤー_1" data-name="レイヤー_1">
      <rect class="cls-1" x="19.6" y=".8" width="2.4" height="7.6"/>
      <polygon class="cls-1" points="22.9 10.8 22.9 24.8 4.7 24.8 4.7 10.8 12.5 3 15.1 3 22.9 10.8"/>
      <path class="cls-2" d="M26,15c-.3,0-.6-.1-.9-.4L13.8,3.5,2.6,14.6c-.5.4-1.3.4-1.8-.2-.4-.5-.4-1.2,0-1.6L12.9.9c.5-.5,1.3-.5,1.8,0l12.2,12c.5.5.5,1.3,0,1.8-.2.2-.6.4-.9.4h0Z"/>
      <rect class="cls-3" x="11.3" y="18.3" width="4.9" height="7.5"/>
    </g>
  </g>
</svg>